# Blender 5.1.2
# www.blender.org
o Body.005
v 0.099100 -0.039067 -0.471612
v 0.078923 -0.050136 -0.351130
v 0.063326 -0.027485 -0.341305
v 0.059683 -0.105325 -0.312323
v 0.058014 -0.012829 -0.201754
v 0.043146 -0.129480 -0.360329
v 0.106381 -0.141449 -0.528114
v 0.011265 -0.132154 -0.427716
v -0.029340 -0.107944 -0.460474
v 0.077429 -0.061101 -0.231911
v 0.032290 -0.053748 0.013568
v 0.042605 -0.062748 -0.070712
v 0.029977 -0.083533 0.010503
v 0.009906 -0.110670 0.007115
v 0.017046 -0.103974 -0.032878
v -0.021572 -0.093573 -0.008375
v -0.037269 -0.051435 0.011010
v -0.042640 -0.057162 -0.030202
v -0.026671 -0.013647 -0.035854
v -0.001378 -0.006073 0.017017
v 0.010051 -0.007171 -0.009480
v 0.028810 0.010950 -0.175106
v 0.054192 0.001708 -0.250912
v -0.003425 0.027486 -0.294380
v 0.065108 -0.010334 -0.417192
v 0.072764 0.005524 -0.512729
v 0.009351 -0.000129 -0.475416
v -0.030231 -0.019572 -0.400891
v -0.035006 -0.118596 -0.578507
v -0.035953 -0.033415 -0.504007
v 0.004971 -0.163964 -0.546372
v 0.062713 -0.173175 -0.555835
v -0.051937 -0.044447 -0.324640
v -0.055772 0.009557 -0.269844
v -0.030427 0.001009 -0.122309
v -0.046092 -0.061132 -0.064102
v -0.054882 -0.055666 -0.133430
v -0.019072 -0.104362 -0.341891
v 0.021388 -0.104121 -0.076438
v -0.009854 -0.101625 -0.088505
v 0.003956 -0.090880 0.008423
v 0.009159 -0.101531 0.007848
v -0.005211 0.018888 0.063716
v 0.014449 -0.012061 0.076141
v 0.022148 0.006369 0.066482
v 0.015998 -0.004070 -0.009212
v 0.032286 -0.066588 0.006700
v 0.015622 -0.113468 -0.029886
v 0.025854 -0.107260 0.068732
v 0.047305 -0.230117 0.074108
v 0.027879 -0.142402 -0.000279
v 0.048008 -0.239817 0.059821
v 0.037197 -0.093638 0.037026
v 0.004491 -0.281703 0.059350
v -0.011272 -0.271126 0.046199
v 0.021105 -0.265103 0.034451
v -0.049137 -0.204182 0.078569
v -0.030875 -0.004018 0.070943
v -0.054626 -0.184258 0.063732
v 0.051139 -0.189594 0.039562
v -0.015145 -0.145639 -0.001107
v -0.024872 -0.098708 -0.013348
v -0.034226 -0.026420 0.004341
v -0.039263 -0.006730 0.054983
v -0.029234 0.003409 0.026670
v 0.005530 -0.195759 0.079866
v -0.005414 -0.003900 0.072051
v -0.013359 -0.105055 0.007189
v -0.006048 -0.021080 0.013890
v 0.020789 -0.097135 0.009131
vn 0.9955 -0.0207 0.0928
vn 0.9503 0.3100 0.0298
vn 0.8156 0.5584 0.1514
vn 0.9618 0.2738 0.0031
vn 0.9425 -0.2936 -0.1599
vn 0.8456 -0.5081 0.1636
vn 0.9650 -0.2279 0.1298
vn 0.0463 -0.9878 0.1490
vn 0.0527 -0.9781 0.2014
vn -0.5514 -0.8259 0.1178
vn -0.6671 -0.7449 0.0086
vn -0.8378 -0.5338 0.1146
vn 0.5860 -0.7992 0.1336
vn 0.9724 -0.1777 0.1512
vn -0.4989 -0.8659 0.0370
vn 0.9363 0.3359 0.1025
vn 0.4226 -0.9062 -0.0129
vn 0.0036 -0.1014 0.9948
vn 0.1287 -0.0840 0.9881
vn -0.6195 -0.7794 0.0935
vn -0.1102 -0.1656 0.9800
vn -0.9926 -0.0222 0.1195
vn -0.7768 0.6143 0.1388
vn -0.7479 0.5806 0.3217
vn 0.4722 0.8631 0.1791
vn -0.5093 0.8470 0.1525
vn 0.2441 0.9622 0.1204
vn 0.6382 0.7698 0.0114
vn -0.0117 0.9995 -0.0301
vn 0.7526 0.6328 0.1824
vn 0.6619 0.6427 -0.3858
vn -0.3535 0.8634 -0.3600
vn -0.9138 0.3858 -0.1270
vn -0.8593 0.4819 -0.1713
vn -0.6186 -0.7848 0.0366
vn -0.9599 -0.2740 -0.0588
vn -0.9651 -0.2608 0.0252
vn -0.9534 -0.2986 0.0430
vn -0.8572 0.5144 -0.0255
vn -0.9886 -0.1286 0.0780
vn -0.0613 -0.0857 0.9944
vn -0.0564 -0.0828 0.9950
vn -0.3421 0.3964 0.8520
vn 0.9513 0.2821 0.1243
vn -0.5086 0.4660 0.7240
vn 0.9497 0.1097 0.2932
vn -0.3582 0.8810 -0.3090
vn -0.4207 0.1782 -0.8895
vn 0.9962 0.0819 -0.0307
vn 0.3123 0.8577 -0.4084
vn 0.9846 -0.1382 -0.1068
vn 0.6155 -0.1985 -0.7627
vn 0.9661 -0.2577 0.0141
vn 0.9773 -0.0206 -0.2111
vn 0.0527 -0.3408 0.9387
vn -0.6213 -0.4747 -0.6234
vn 0.2988 -0.3919 -0.8701
vn -0.1149 -0.1144 0.9868
vn -0.9975 -0.0705 0.0078
vn -0.0815 0.2536 0.9639
vn -0.4475 -0.3444 -0.8253
vn -0.6631 -0.5541 -0.5032
vn 0.2589 -0.2847 -0.9230
vn -0.9793 0.2017 0.0148
vn -0.4748 0.7960 -0.3754
vn 0.0292 -0.0632 0.9976
vn -0.0458 0.3470 0.9368
vn 0.6339 0.3515 -0.6890
vn -0.0724 -0.2376 -0.9687
vn -0.6592 0.1900 -0.7276
vt 0.453024 0.186568
vt 0.436410 0.211790
vt 0.441150 0.191940
vt 0.442616 0.170272
vt 0.446380 0.136310
vt 0.467948 0.298293
vt 0.490692 0.173789
vt 0.473446 0.124397
vt 0.452630 0.113170
vt 0.504959 0.205488
vt 0.493487 0.319578
vt 0.527406 0.244996
vt 0.547399 0.194034
vt 0.556379 0.263249
vt 0.517123 0.051781
vt 0.489217 0.046170
vt 0.456582 0.107154
vt 0.534307 0.058162
vt 0.469881 0.042415
vt 0.479250 0.025980
vt 0.517667 0.029322
vt 0.487949 0.007812
vt 0.501870 0.007810
vt 0.507090 0.007810
vt 0.526833 0.007802
vt 0.545808 0.017340
vt 0.536134 0.007825
vt 0.545660 0.007810
vt 0.566639 0.007420
vt 0.571445 0.031986
vt 0.590511 0.007831
vt 0.598500 0.034885
vt 0.595594 0.007843
vt 0.604560 0.007810
vt 0.614339 0.016053
vt 0.622620 0.007810
vt 0.629010 0.007810
vt 0.649970 0.024830
vt 0.649990 0.033450
vt 0.605769 0.076207
vt 0.655512 0.057131
vt 0.642530 0.098217
vt 0.664662 0.133161
vt 0.681283 0.139199
vt 0.681260 0.172020
vt 0.631214 0.161553
vt 0.671656 0.229677
vt 0.683120 0.206190
vt 0.687370 0.226840
vt 0.677389 0.288423
vt 0.636445 0.266937
vt 0.604386 0.222698
vt 0.601070 0.285078
vt 0.524917 0.315483
vt 0.582202 0.180731
vt 0.555192 0.330406
vt 0.570784 0.082488
vt 0.604135 0.148895
vt 0.568444 0.047931
vt 0.624220 0.007810
vt 0.624330 0.010000
vt 0.627410 0.007810
vt 0.541320 0.007810
vt 0.541310 0.010270
vt 0.544210 0.007810
vt 0.506940 0.010320
vt 0.544210 0.010260
vt 0.538420 0.010280
vt 0.500020 0.010310
vt 0.493420 0.007810
vt 0.532730 0.010320
vt 0.527230 0.010360
vt 0.521710 0.010370
vt 0.512380 0.007810
vt 0.517720 0.010360
vt 1.786226 0.384854
vt 1.791671 0.384532
vt 1.785509 0.375795
vt 1.789164 0.414140
vt 1.804686 0.450225
vt 1.833662 0.370668
vt 1.816164 0.367912
vt 1.829639 0.396041
vt 1.829185 0.410588
vt 1.820914 0.436800
vt 1.832366 0.415813
vt 1.839959 0.422708
vt 1.809669 0.484091
vt 1.814832 0.495167
vt 1.852192 0.455819
vt 1.862427 0.432192
vt 1.839323 0.519488
vt 1.839869 0.491637
vt 1.840882 0.532596
vt 1.849543 0.538787
vt 1.855318 0.541020
vt 1.879143 0.529833
vt 1.861591 0.525862
vt 1.890180 0.536651
vt 1.900723 0.527884
vt 1.906246 0.520648
vt 1.914404 0.488450
vt 1.926671 0.480577
vt 1.939808 0.446307
vt 1.942118 0.435640
vt 1.945575 0.416440
vt 1.876778 0.455659
vt 1.866885 0.431353
vt 1.883338 0.429450
vt 1.872250 0.430847
vt 1.898360 0.417253
vt 1.885539 0.427109
vt 1.907024 0.401744
vt 1.936290 0.389522
vt 1.923630 0.380344
vt 1.901750 0.378669
vt 1.947176 0.384296
vt 1.949470 0.366982
vt 1.932943 0.366982
vt 1.901177 0.366982
vt 1.901455 0.374073
vt 1.918501 0.366982
vt 1.958097 0.520722
vt 1.989977 0.519192
vt 1.972190 0.477473
vt 1.953087 0.512560
vt 1.993989 0.476444
vt 1.990421 0.465399
vt 1.948410 0.451601
vt 1.956265 0.424109
vt 1.980546 0.400934
vt 1.971293 0.373361
vt 1.955050 0.398426
vt 1.983210 0.370867
vt 1.979314 0.368327
vt 1.971145 0.366348
vt 1.966971 0.366987
vt 1.855595 0.566101
vt 1.863449 0.566101
vt 1.859536 0.555103
vt 1.889042 0.566101
vt 1.875100 0.565709
vt 1.919567 0.555103
vt 1.909511 0.567395
vt 1.918018 0.566101
vt 1.942785 0.566101
vt 1.947286 0.566101
vt 1.981893 0.555103
vt 1.956547 0.566101
vt 1.982678 0.566101
vt 1.986552 0.566101
s 1
f 2/1/1 1/2/2 3/3/3
f 2/1/1 3/4/3 5/5/4
f 7/6/5 2/1/1 4/7/6
f 2/1/1 10/8/7 4/7/6
f 5/9/4 10/8/7 2/1/1
f 6/10/8 7/6/5 4/7/6
f 7/6/5 6/10/8 32/11/9
f 8/12/10 32/11/9 6/10/8
f 6/10/8 38/13/11 8/12/10
f 32/11/9 8/12/10 9/14/12
f 4/7/6 39/15/13 6/10/8
f 39/15/13 4/7/6 10/8/7
f 12/16/14 10/8/7 5/17/4
f 12/16/14 39/15/13 10/8/7
f 40/18/15 6/10/8 39/15/13
f 5/19/4 11/20/16 12/16/14
f 12/16/14 15/21/17 39/15/13
f 12/16/14 11/22/16 13/23/18
f 12/16/14 13/23/18 14/24/19
f 14/24/19 15/21/17 12/16/14
f 14/25/19 16/26/20 15/21/17
f 14/27/19 17/28/21 16/26/20
f 17/29/21 18/30/22 16/26/20
f 17/31/21 19/32/23 18/30/22
f 17/33/21 20/34/24 19/32/23
f 21/35/25 19/32/23 20/34/24
f 20/36/24 11/37/16 21/35/25
f 11/38/16 5/39/4 21/35/25
f 19/32/23 21/35/25 35/40/26
f 21/35/25 5/41/4 22/42/27
f 22/42/27 35/40/26 21/35/25
f 22/42/27 5/41/4 23/43/28
f 23/43/28 5/44/4 3/45/3
f 23/43/28 24/46/29 22/42/27
f 25/47/30 23/43/28 3/45/3
f 24/46/29 23/43/28 25/47/30
f 25/47/30 3/48/3 1/49/2
f 24/46/29 25/47/30 26/50/31
f 26/50/31 27/51/32 24/46/29
f 24/46/29 27/51/32 28/52/33
f 27/51/32 30/53/34 28/52/33
f 31/54/35 32/11/9 9/14/12
f 9/14/12 8/12/10 33/55/36
f 33/55/36 8/12/10 38/13/11
f 29/56/37 31/54/35 9/14/12
f 9/14/12 28/52/33 29/56/37
f 30/53/34 29/56/37 28/52/33
f 9/14/12 33/55/36 28/52/33
f 37/57/38 33/55/36 38/13/11
f 33/55/36 34/58/39 28/52/33
f 37/57/38 34/58/39 33/55/36
f 24/46/29 28/52/33 34/58/39
f 35/40/26 24/46/29 34/58/39
f 22/42/27 24/46/29 35/40/26
f 37/57/38 35/40/26 34/58/39
f 36/59/40 35/40/26 37/57/38
f 35/40/26 36/59/40 19/32/23
f 18/30/22 19/32/23 36/59/40
f 16/26/20 18/30/22 36/59/40
f 40/18/15 16/26/20 36/59/40
f 37/57/38 40/18/15 36/59/40
f 37/57/38 38/13/11 40/18/15
f 38/13/11 6/10/8 40/18/15
f 16/26/20 39/15/13 15/21/17
f 39/15/13 16/26/20 40/18/15
f 20/60/24 17/61/21 11/62/16
f 14/63/19 41/64/41 17/65/21
f 13/66/18 17/67/21 41/68/41
f 17/67/21 13/69/18 11/70/16
f 41/71/41 14/72/19 42/73/42
f 13/74/18 41/71/41 42/73/42
f 42/73/42 14/75/19 13/74/18
f 44/76/43 45/77/44 43/78/45
f 44/79/43 49/80/46 45/77/44
f 45/77/44 46/81/47 43/82/45
f 46/83/47 45/77/44 47/84/48
f 45/77/44 53/85/49 47/84/48
f 47/86/48 53/85/49 48/87/50
f 53/85/49 45/77/44 49/80/46
f 49/80/46 44/88/43 50/89/51
f 51/90/52 48/91/50 53/85/49
f 50/89/51 52/92/53 49/80/46
f 60/93/54 49/80/46 52/92/53
f 53/85/49 49/80/46 60/93/54
f 60/93/54 51/90/52 53/85/49
f 50/94/51 54/95/55 52/92/53
f 52/92/53 54/96/55 55/97/56
f 60/93/54 52/92/53 56/98/57
f 55/97/56 56/98/57 52/92/53
f 54/99/55 57/100/58 55/97/56
f 57/101/58 59/102/59 55/97/56
f 57/103/58 44/104/43 59/102/59
f 44/105/43 58/106/60 59/102/59
f 55/97/56 59/102/59 61/107/61
f 61/107/61 56/98/57 55/97/56
f 60/93/54 56/98/57 51/90/52
f 61/107/61 51/90/52 56/98/57
f 48/108/50 51/90/52 61/107/61
f 61/107/61 62/109/62 48/110/50
f 62/109/62 61/107/61 59/102/59
f 59/102/59 63/111/63 62/112/62
f 63/113/63 59/102/59 64/114/64
f 64/114/64 59/102/59 58/106/60
f 65/115/65 63/116/63 64/114/64
f 64/114/64 58/117/60 43/118/45
f 64/114/64 43/119/45 65/115/65
f 46/120/47 63/121/63 65/115/65
f 43/122/45 46/120/47 65/115/65
f 54/123/55 50/124/51 66/125/66
f 66/125/66 57/126/58 54/123/55
f 66/125/66 50/127/51 44/128/43
f 57/129/58 66/125/66 44/130/43
f 44/131/43 67/132/67 58/133/60
f 67/132/67 44/134/43 43/135/45
f 67/132/67 43/136/45 58/137/60
f 48/138/50 62/139/62 68/140/68
f 63/141/63 68/140/68 62/142/62
f 69/143/69 68/140/68 63/141/63
f 63/144/63 46/145/47 69/143/69
f 46/146/47 47/147/48 69/143/69
f 70/148/70 69/143/69 47/149/48
f 47/150/48 48/151/50 70/148/70
f 25/47/30 1/49/2 26/50/31
f 2/1/1 7/6/5 1/2/2
f 27/51/32 26/50/31 30/53/34
f 26/50/31 1/2/2 7/6/5
