# Blender 5.1.2
# www.blender.org
o Body.004
v -0.015509 -0.137401 -0.471612
v -0.004440 -0.117224 -0.351130
v -0.027091 -0.101627 -0.341305
v 0.050749 -0.097985 -0.312323
v -0.041747 -0.096315 -0.201754
v 0.074904 -0.081448 -0.360329
v 0.086873 -0.144682 -0.528114
v 0.077578 -0.049567 -0.427716
v 0.053368 -0.008961 -0.460474
v 0.006525 -0.115730 -0.231911
v -0.000828 -0.070591 0.013568
v 0.008173 -0.080907 -0.070712
v 0.028957 -0.068279 0.010503
v 0.056094 -0.048208 0.007115
v 0.049399 -0.055347 -0.032878
v 0.038998 -0.016729 -0.008375
v -0.003141 -0.001032 0.011010
v 0.002586 0.004339 -0.030202
v -0.040929 -0.011630 -0.035854
v -0.048503 -0.036923 0.017017
v -0.047405 -0.048353 -0.009480
v -0.065526 -0.067111 -0.175106
v -0.056283 -0.092493 -0.250912
v -0.082062 -0.034877 -0.294380
v -0.044242 -0.103409 -0.417192
v -0.060099 -0.111065 -0.512729
v -0.054447 -0.047652 -0.475416
v -0.035004 -0.008071 -0.400891
v 0.064020 -0.003295 -0.578507
v -0.021161 -0.002348 -0.504007
v 0.109388 -0.043273 -0.546372
v 0.118599 -0.101014 -0.555835
v -0.010129 0.013636 -0.324640
v -0.064133 0.017470 -0.269844
v -0.055585 -0.007874 -0.122309
v 0.006556 0.007790 -0.064102
v 0.001090 0.016581 -0.133430
v 0.049786 -0.019230 -0.341891
v 0.049545 -0.059689 -0.076438
v 0.047049 -0.028447 -0.088505
v 0.036304 -0.042257 0.008423
v 0.046955 -0.047460 0.007848
v -0.073464 -0.033091 0.063716
v -0.042515 -0.052750 0.076141
v -0.060945 -0.060449 0.066482
v -0.050506 -0.054300 -0.009212
v 0.012012 -0.070588 0.006700
v 0.058892 -0.053923 -0.029886
v 0.052684 -0.064155 0.068732
v 0.175542 -0.085607 0.074108
v 0.087826 -0.066180 -0.000279
v 0.185241 -0.086309 0.059821
v 0.039062 -0.075498 0.037026
v 0.227127 -0.042792 0.059350
v 0.216551 -0.027029 0.046199
v 0.210528 -0.059406 0.034451
v 0.149606 0.010836 0.078569
v -0.050558 -0.007426 0.070943
v 0.129682 0.016324 0.063732
v 0.135019 -0.089440 0.039562
v 0.091063 -0.023156 -0.001107
v 0.044132 -0.013429 -0.013348
v -0.028155 -0.004075 0.004341
v -0.047846 0.000962 0.054983
v -0.057985 -0.009067 0.026670
v 0.141184 -0.043831 0.079866
v -0.050676 -0.032887 0.072051
v 0.050479 -0.024942 0.007189
v -0.033496 -0.032253 0.013890
v 0.042559 -0.059091 0.009131
vn -0.1145 -0.9378 0.3278
vn -0.4266 -0.8636 0.2686
vn -0.3069 -0.9513 0.0300
vn -0.6208 -0.7805 -0.0739
vn 0.5661 -0.7710 -0.2916
vn 0.5925 -0.7977 0.1127
vn 0.0115 -0.9966 0.0815
vn 0.9692 -0.0445 0.2421
vn 0.9642 -0.1471 0.2208
vn 0.8179 0.5500 0.1690
vn 0.6876 0.7214 -0.0825
vn 0.5342 0.8386 0.1062
vn 0.9486 -0.2982 0.1063
vn 0.2652 -0.9552 0.1316
vn 0.8784 0.4663 0.1050
vn 0.0125 -0.9953 0.0963
vn 0.9176 -0.3965 -0.0267
vn 0.8905 -0.4265 0.1583
vn 0.9254 -0.0176 -0.3787
vn 0.7324 0.5679 0.3755
vn 0.3856 0.9186 0.0868
vn 0.0567 0.9930 0.1037
vn -0.6599 0.7029 0.2656
vn -0.4959 0.7650 0.4110
vn -0.8778 -0.4624 0.1247
vn -0.7451 0.6457 0.1671
vn -0.9560 -0.2906 0.0409
vn -0.5424 -0.8399 0.0171
vn -0.9991 -0.0049 -0.0415
vn -0.6739 -0.7156 0.1838
vn -0.8992 -0.2762 -0.3395
vn -0.8659 0.4733 -0.1618
vn -0.3776 0.9025 -0.2070
vn -0.2689 0.9332 -0.2383
vn 0.9900 0.0818 0.1153
vn 0.0623 0.9778 -0.2002
vn 0.5344 0.8451 -0.0128
vn 0.0985 0.9949 0.0220
vn -0.6564 0.7490 -0.0901
vn 0.2342 0.9718 0.0264
vn 0.1137 0.0441 0.9925
vn 0.0837 0.0561 0.9949
vn -0.3476 -0.8121 0.4687
vn -0.9338 -0.2290 -0.2750
vn -0.6504 -0.7567 -0.0663
vn -0.1264 -0.9467 -0.2962
vn -0.3035 -0.9514 -0.0516
vn -0.1452 -0.9482 0.2825
vn -0.1179 -0.9881 0.0989
vn -0.7505 0.2338 -0.6181
vn 0.2863 0.0391 0.9574
vn 0.1923 -0.7008 -0.6870
vn 0.3295 -0.9335 0.1417
vn 0.0666 -0.9756 -0.2091
vn 0.5239 -0.5221 -0.6730
vn 0.5994 0.7844 -0.1595
vn 0.8818 -0.4535 0.1293
vn 0.2721 0.9617 -0.0346
vn 0.0648 0.9974 0.0329
vn 0.1412 0.5606 0.8159
vn 0.3733 0.3940 -0.8399
vn -0.4474 -0.6669 -0.5958
vn 0.2174 0.9761 -0.0033
vn -0.2310 0.9725 -0.0301
vn -0.8212 0.4854 -0.3001
vn 0.0597 -0.0367 0.9975
vn -0.3473 0.0473 0.9366
vn -0.9044 -0.3407 -0.2567
vn 0.2225 -0.0459 -0.9738
vn -0.6985 0.6419 -0.3163
vt 0.453024 0.186568
vt 0.441150 0.191940
vt 0.436410 0.211790
vt 0.446380 0.136310
vt 0.442616 0.170272
vt 0.467948 0.298293
vt 0.490692 0.173789
vt 0.473446 0.124397
vt 0.452630 0.113170
vt 0.504959 0.205488
vt 0.493487 0.319578
vt 0.527406 0.244996
vt 0.547399 0.194034
vt 0.556379 0.263249
vt 0.517123 0.051781
vt 0.489217 0.046170
vt 0.456582 0.107154
vt 0.534307 0.058162
vt 0.469881 0.042415
vt 0.479250 0.025980
vt 0.517667 0.029322
vt 0.501870 0.007810
vt 0.487949 0.007812
vt 0.507090 0.007810
vt 0.526833 0.007802
vt 0.545808 0.017340
vt 0.536134 0.007825
vt 0.545660 0.007810
vt 0.566639 0.007420
vt 0.571445 0.031986
vt 0.590511 0.007831
vt 0.598500 0.034885
vt 0.595594 0.007843
vt 0.604560 0.007810
vt 0.614339 0.016053
vt 0.622620 0.007810
vt 0.629010 0.007810
vt 0.649970 0.024830
vt 0.649990 0.033450
vt 0.605769 0.076207
vt 0.642530 0.098217
vt 0.655512 0.057131
vt 0.664662 0.133161
vt 0.681260 0.172020
vt 0.681283 0.139199
vt 0.631214 0.161553
vt 0.671656 0.229677
vt 0.687370 0.226840
vt 0.683120 0.206190
vt 0.677389 0.288423
vt 0.636445 0.266937
vt 0.604386 0.222698
vt 0.601070 0.285078
vt 0.524917 0.315483
vt 0.582202 0.180731
vt 0.555192 0.330406
vt 0.570784 0.082488
vt 0.604135 0.148895
vt 0.568444 0.047931
vt 0.624220 0.007810
vt 0.627410 0.007810
vt 0.624330 0.010000
vt 0.541320 0.007810
vt 0.544210 0.007810
vt 0.541310 0.010270
vt 0.506940 0.010320
vt 0.538420 0.010280
vt 0.544210 0.010260
vt 0.493420 0.007810
vt 0.500020 0.010310
vt 0.532730 0.010320
vt 0.521710 0.010370
vt 0.527230 0.010360
vt 0.512380 0.007810
vt 0.517720 0.010360
vt 1.786226 0.384854
vt 1.785509 0.375795
vt 1.791671 0.384532
vt 1.789164 0.414140
vt 1.804686 0.450225
vt 1.816164 0.367912
vt 1.833662 0.370668
vt 1.829639 0.396041
vt 1.829185 0.410588
vt 1.820914 0.436800
vt 1.832366 0.415813
vt 1.839959 0.422708
vt 1.814832 0.495167
vt 1.809669 0.484091
vt 1.852192 0.455819
vt 1.862427 0.432192
vt 1.839323 0.519488
vt 1.839869 0.491637
vt 1.840882 0.532596
vt 1.849543 0.538787
vt 1.879143 0.529833
vt 1.855318 0.541020
vt 1.861591 0.525862
vt 1.890180 0.536651
vt 1.900723 0.527884
vt 1.906246 0.520648
vt 1.914404 0.488450
vt 1.926671 0.480577
vt 1.939808 0.446307
vt 1.942118 0.435640
vt 1.945575 0.416440
vt 1.876778 0.455659
vt 1.866885 0.431353
vt 1.872250 0.430847
vt 1.883338 0.429450
vt 1.885539 0.427109
vt 1.898360 0.417253
vt 1.907024 0.401744
vt 1.936290 0.389522
vt 1.923630 0.380344
vt 1.901750 0.378669
vt 1.949470 0.366982
vt 1.947176 0.384296
vt 1.932943 0.366982
vt 1.901177 0.366982
vt 1.901455 0.374073
vt 1.918501 0.366982
vt 1.958097 0.520722
vt 1.972190 0.477473
vt 1.989977 0.519192
vt 1.953087 0.512560
vt 1.990421 0.465399
vt 1.993989 0.476444
vt 1.948410 0.451601
vt 1.956265 0.424109
vt 1.980546 0.400934
vt 1.955050 0.398426
vt 1.971293 0.373361
vt 1.979314 0.368327
vt 1.983210 0.370867
vt 1.966971 0.366987
vt 1.971145 0.366348
vt 1.855595 0.566101
vt 1.859536 0.555103
vt 1.863449 0.566101
vt 1.889042 0.566101
vt 1.875100 0.565709
vt 1.919567 0.555103
vt 1.909511 0.567395
vt 1.918018 0.566101
vt 1.942785 0.566101
vt 1.947286 0.566101
vt 1.981893 0.555103
vt 1.956547 0.566101
vt 1.982678 0.566101
vt 1.986552 0.566101
s 1
f 2/1/1 3/2/2 1/3/3
f 2/1/1 5/4/4 3/5/2
f 7/6/5 4/7/6 2/1/1
f 2/1/1 4/7/6 10/8/7
f 5/9/4 2/1/1 10/8/7
f 6/10/8 4/7/6 7/6/5
f 7/6/5 32/11/9 6/10/8
f 8/12/10 6/10/8 32/11/9
f 6/10/8 8/12/10 38/13/11
f 32/11/9 9/14/12 8/12/10
f 4/7/6 6/10/8 39/15/13
f 39/15/13 10/8/7 4/7/6
f 12/16/14 5/17/4 10/8/7
f 12/16/14 10/8/7 39/15/13
f 40/18/15 39/15/13 6/10/8
f 5/19/4 12/16/14 11/20/16
f 12/16/14 39/15/13 15/21/17
f 12/16/14 13/22/18 11/23/16
f 12/16/14 14/24/19 13/22/18
f 14/24/19 12/16/14 15/21/17
f 14/25/19 15/21/17 16/26/20
f 14/27/19 16/26/20 17/28/21
f 17/29/21 16/26/20 18/30/22
f 17/31/21 18/30/22 19/32/23
f 17/33/21 19/32/23 20/34/24
f 21/35/25 20/34/24 19/32/23
f 20/36/24 21/35/25 11/37/16
f 11/38/16 21/35/25 5/39/4
f 19/32/23 35/40/26 21/35/25
f 21/35/25 22/41/27 5/42/4
f 22/41/27 21/35/25 35/40/26
f 22/41/27 23/43/28 5/42/4
f 23/43/28 3/44/2 5/45/4
f 23/43/28 22/41/27 24/46/29
f 25/47/30 3/44/2 23/43/28
f 24/46/29 25/47/30 23/43/28
f 25/47/30 1/48/3 3/49/2
f 24/46/29 26/50/31 25/47/30
f 26/50/31 24/46/29 27/51/32
f 24/46/29 28/52/33 27/51/32
f 27/51/32 28/52/33 30/53/34
f 31/54/35 9/14/12 32/11/9
f 9/14/12 33/55/36 8/12/10
f 33/55/36 38/13/11 8/12/10
f 29/56/37 9/14/12 31/54/35
f 9/14/12 29/56/37 28/52/33
f 30/53/34 28/52/33 29/56/37
f 9/14/12 28/52/33 33/55/36
f 37/57/38 38/13/11 33/55/36
f 33/55/36 28/52/33 34/58/39
f 37/57/38 33/55/36 34/58/39
f 24/46/29 34/58/39 28/52/33
f 35/40/26 34/58/39 24/46/29
f 22/41/27 35/40/26 24/46/29
f 37/57/38 34/58/39 35/40/26
f 36/59/40 37/57/38 35/40/26
f 35/40/26 19/32/23 36/59/40
f 18/30/22 36/59/40 19/32/23
f 16/26/20 36/59/40 18/30/22
f 40/18/15 36/59/40 16/26/20
f 37/57/38 36/59/40 40/18/15
f 37/57/38 40/18/15 38/13/11
f 38/13/11 40/18/15 6/10/8
f 16/26/20 15/21/17 39/15/13
f 39/15/13 40/18/15 16/26/20
f 20/60/24 11/61/16 17/62/21
f 14/63/19 17/64/21 41/65/41
f 13/66/18 41/67/41 17/68/21
f 17/68/21 11/69/16 13/70/18
f 41/71/41 42/72/42 14/73/19
f 13/74/18 42/72/42 41/71/41
f 42/72/42 13/74/18 14/75/19
f 44/76/43 43/77/44 45/78/45
f 44/79/43 45/78/45 49/80/46
f 45/78/45 43/81/44 46/82/47
f 46/83/47 47/84/48 45/78/45
f 45/78/45 47/84/48 53/85/49
f 47/86/48 48/87/50 53/85/49
f 53/85/49 49/80/46 45/78/45
f 49/80/46 50/88/51 44/89/43
f 51/90/52 53/85/49 48/91/50
f 50/88/51 49/80/46 52/92/53
f 60/93/54 52/92/53 49/80/46
f 53/85/49 60/93/54 49/80/46
f 60/93/54 53/85/49 51/90/52
f 50/94/51 52/92/53 54/95/55
f 52/92/53 55/96/56 54/97/55
f 60/93/54 56/98/57 52/92/53
f 55/96/56 52/92/53 56/98/57
f 54/99/55 55/96/56 57/100/58
f 57/101/58 55/96/56 59/102/59
f 57/103/58 59/102/59 44/104/43
f 44/105/43 59/102/59 58/106/60
f 55/96/56 61/107/61 59/102/59
f 61/107/61 55/96/56 56/98/57
f 60/93/54 51/90/52 56/98/57
f 61/107/61 56/98/57 51/90/52
f 48/108/50 61/107/61 51/90/52
f 61/107/61 48/109/50 62/110/62
f 62/110/62 59/102/59 61/107/61
f 59/102/59 62/111/62 63/112/63
f 63/113/63 64/114/64 59/102/59
f 64/114/64 58/106/60 59/102/59
f 65/115/65 64/114/64 63/116/63
f 64/114/64 43/117/44 58/118/60
f 64/114/64 65/115/65 43/119/44
f 46/120/47 65/115/65 63/121/63
f 43/122/44 65/115/65 46/120/47
f 54/123/55 66/124/66 50/125/51
f 66/124/66 54/123/55 57/126/58
f 66/124/66 44/127/43 50/128/51
f 57/129/58 44/130/43 66/124/66
f 44/131/43 58/132/60 67/133/67
f 67/133/67 43/134/44 44/135/43
f 67/133/67 58/136/60 43/137/44
f 48/138/50 68/139/68 62/140/62
f 63/141/63 62/142/62 68/139/68
f 69/143/69 63/141/63 68/139/68
f 63/144/63 69/143/69 46/145/47
f 46/146/47 69/143/69 47/147/48
f 70/148/70 47/149/48 69/143/69
f 47/150/48 70/148/70 48/151/50
f 25/47/30 26/50/31 1/48/3
f 2/1/1 1/3/3 7/6/5
f 27/51/32 30/53/34 26/50/31
f 26/50/31 7/6/5 1/3/3
