# Blender 5.1.2
# www.blender.org
o Body.001
v 0.099100 0.471612 -0.017319
v 0.078923 0.351130 -0.006251
v 0.063326 0.341305 -0.028901
v 0.059683 0.312323 0.048939
v 0.058014 0.201754 -0.043557
v 0.043146 0.360329 0.073094
v 0.106381 0.528114 0.085063
v 0.011265 0.427716 0.075768
v -0.029340 0.460474 0.051557
v 0.077429 0.231911 0.004715
v 0.032290 -0.013568 -0.002638
v 0.042605 0.070712 0.006362
v 0.029977 -0.010503 0.027147
v 0.009906 -0.007115 0.054284
v 0.017046 0.032878 0.047588
v -0.021572 0.008375 0.037187
v -0.037269 -0.011010 -0.004951
v -0.042640 0.030202 0.000776
v -0.026671 0.035854 -0.042739
v -0.001378 -0.017017 -0.050313
v 0.010051 0.009480 -0.049215
v 0.028810 0.175106 -0.067336
v 0.054192 0.250912 -0.058094
v -0.003425 0.294380 -0.083872
v 0.065108 0.417192 -0.046052
v 0.072764 0.512729 -0.061910
v 0.009351 0.475416 -0.056257
v -0.030231 0.400891 -0.036814
v -0.035006 0.578507 0.062210
v -0.035953 0.504007 -0.022971
v 0.004971 0.546372 0.107578
v 0.062713 0.555835 0.116789
v -0.051937 0.324640 -0.011939
v -0.055772 0.269844 -0.065943
v -0.030427 0.122309 -0.057395
v -0.046092 0.064102 0.004746
v -0.054882 0.133430 -0.000720
v -0.019072 0.341891 0.047976
v 0.021388 0.076438 0.047735
v -0.009854 0.088505 0.045239
v 0.003956 -0.008423 0.034494
v 0.009159 -0.007848 0.045145
v -0.005211 -0.063716 -0.075274
v 0.014449 -0.076141 -0.044326
v 0.022148 -0.066482 -0.062755
v 0.015998 0.009212 -0.052316
v 0.032286 -0.006700 0.010202
v 0.015622 0.029886 0.057082
v 0.025854 -0.068732 0.050874
v 0.047305 -0.074108 0.173731
v 0.027879 0.000279 0.086016
v 0.048008 -0.059821 0.183431
v 0.037197 -0.037026 0.037252
v 0.004491 -0.059350 0.225317
v -0.011273 -0.046199 0.214740
v 0.021105 -0.034451 0.208717
v -0.049137 -0.078569 0.147796
v -0.030875 -0.070943 -0.052368
v -0.054626 -0.063732 0.127872
v 0.051139 -0.039562 0.133208
v -0.015145 0.001107 0.089253
v -0.024872 0.013348 0.042322
v -0.034226 -0.004341 -0.029966
v -0.039263 -0.054983 -0.049656
v -0.029234 -0.026670 -0.059795
v 0.005530 -0.079866 0.139373
v -0.005414 -0.072051 -0.052486
v -0.013359 -0.007189 0.048669
v -0.006048 -0.013890 -0.035306
v 0.020789 -0.009131 0.040748
vn 0.9378 -0.3278 -0.1145
vn 0.8636 -0.2686 -0.4266
vn 0.9513 -0.0300 -0.3069
vn 0.7805 0.0739 -0.6208
vn 0.7710 0.2916 0.5661
vn 0.7977 -0.1127 0.5925
vn 0.9966 -0.0815 0.0115
vn 0.0445 -0.2421 0.9692
vn 0.1471 -0.2208 0.9642
vn -0.5500 -0.1690 0.8179
vn -0.7214 0.0825 0.6876
vn -0.8386 -0.1062 0.5342
vn 0.2982 -0.1063 0.9486
vn 0.9552 -0.1316 0.2652
vn -0.4663 -0.1050 0.8784
vn 0.9953 -0.0963 0.0125
vn 0.3965 0.0267 0.9176
vn 0.4265 -0.1583 0.8905
vn 0.0176 0.3787 0.9254
vn -0.5679 -0.3755 0.7324
vn -0.9186 -0.0868 0.3856
vn -0.9930 -0.1037 0.0567
vn -0.7029 -0.2656 -0.6599
vn -0.7650 -0.4110 -0.4959
vn 0.4624 -0.1247 -0.8778
vn -0.6457 -0.1671 -0.7451
vn 0.2906 -0.0409 -0.9560
vn 0.8399 -0.0171 -0.5424
vn 0.0049 0.0415 -0.9991
vn 0.7156 -0.1838 -0.6739
vn 0.2762 0.3395 -0.8992
vn -0.4733 0.1618 -0.8659
vn -0.9025 0.2070 -0.3776
vn -0.9332 0.2383 -0.2689
vn -0.0818 -0.1153 0.9900
vn -0.9778 0.2002 0.0623
vn -0.8451 0.0128 0.5344
vn -0.9949 -0.0220 0.0985
vn -0.7490 0.0901 -0.6564
vn -0.9718 -0.0264 0.2342
vn -0.0441 -0.9925 0.1137
vn -0.0561 -0.9949 0.0837
vn 0.8121 -0.4687 -0.3476
vn 0.2290 0.2750 -0.9338
vn 0.7567 0.0663 -0.6504
vn 0.9467 0.2962 -0.1264
vn 0.9514 0.0516 -0.3035
vn 0.9482 -0.2825 -0.1452
vn 0.9881 -0.0989 -0.1179
vn -0.2338 0.6181 -0.7505
vn -0.0391 -0.9574 0.2863
vn 0.7008 0.6870 0.1923
vn 0.9335 -0.1417 0.3295
vn 0.9756 0.2091 0.0666
vn 0.5221 0.6730 0.5239
vn -0.7844 0.1595 0.5994
vn 0.4535 -0.1293 0.8818
vn -0.9617 0.0346 0.2721
vn -0.9974 -0.0329 0.0648
vn -0.5606 -0.8159 0.1412
vn -0.3940 0.8399 0.3733
vn 0.6669 0.5958 -0.4474
vn -0.9761 0.0033 0.2174
vn -0.9725 0.0301 -0.2310
vn -0.4854 0.3001 -0.8212
vn 0.0367 -0.9975 0.0597
vn -0.0473 -0.9366 -0.3473
vn 0.3407 0.2567 -0.9044
vn 0.0459 0.9738 0.2225
vn -0.6419 0.3163 -0.6985
vt 0.453024 0.186568
vt 0.441150 0.191940
vt 0.436410 0.211790
vt 0.446380 0.136310
vt 0.442616 0.170272
vt 0.467948 0.298293
vt 0.490692 0.173789
vt 0.473446 0.124397
vt 0.452630 0.113170
vt 0.504959 0.205488
vt 0.493487 0.319578
vt 0.527406 0.244996
vt 0.547399 0.194034
vt 0.556379 0.263249
vt 0.517123 0.051781
vt 0.489217 0.046170
vt 0.456582 0.107154
vt 0.534307 0.058162
vt 0.469881 0.042415
vt 0.479250 0.025980
vt 0.517667 0.029322
vt 0.501870 0.007810
vt 0.487949 0.007812
vt 0.507090 0.007810
vt 0.526833 0.007802
vt 0.545808 0.017340
vt 0.536134 0.007825
vt 0.545660 0.007810
vt 0.566639 0.007420
vt 0.571445 0.031986
vt 0.590511 0.007831
vt 0.598500 0.034885
vt 0.595594 0.007843
vt 0.604560 0.007810
vt 0.614339 0.016053
vt 0.622620 0.007810
vt 0.629010 0.007810
vt 0.649970 0.024830
vt 0.649990 0.033450
vt 0.605769 0.076207
vt 0.642530 0.098217
vt 0.655512 0.057131
vt 0.664662 0.133161
vt 0.681260 0.172020
vt 0.681283 0.139199
vt 0.631214 0.161553
vt 0.671656 0.229677
vt 0.687370 0.226840
vt 0.683120 0.206190
vt 0.677389 0.288423
vt 0.636445 0.266937
vt 0.604386 0.222698
vt 0.601070 0.285078
vt 0.524917 0.315483
vt 0.582202 0.180731
vt 0.555192 0.330406
vt 0.570784 0.082488
vt 0.604135 0.148895
vt 0.568444 0.047931
vt 0.624220 0.007810
vt 0.627410 0.007810
vt 0.624330 0.010000
vt 0.541320 0.007810
vt 0.544210 0.007810
vt 0.541310 0.010270
vt 0.506940 0.010320
vt 0.538420 0.010280
vt 0.544210 0.010260
vt 0.493420 0.007810
vt 0.500020 0.010310
vt 0.532730 0.010320
vt 0.521710 0.010370
vt 0.527230 0.010360
vt 0.512380 0.007810
vt 0.517720 0.010360
vt 1.786226 0.384854
vt 1.785509 0.375795
vt 1.791671 0.384532
vt 1.789164 0.414140
vt 1.804686 0.450225
vt 1.816164 0.367912
vt 1.833662 0.370668
vt 1.829639 0.396041
vt 1.829185 0.410588
vt 1.820914 0.436800
vt 1.832366 0.415813
vt 1.839959 0.422708
vt 1.814832 0.495167
vt 1.809669 0.484091
vt 1.852192 0.455819
vt 1.862427 0.432192
vt 1.839323 0.519488
vt 1.839869 0.491637
vt 1.840882 0.532596
vt 1.849543 0.538787
vt 1.879143 0.529833
vt 1.855318 0.541020
vt 1.861591 0.525862
vt 1.890180 0.536651
vt 1.900723 0.527884
vt 1.906246 0.520648
vt 1.914404 0.488450
vt 1.926671 0.480577
vt 1.939808 0.446307
vt 1.942118 0.435640
vt 1.945575 0.416440
vt 1.876778 0.455659
vt 1.866885 0.431353
vt 1.872250 0.430847
vt 1.883338 0.429450
vt 1.885539 0.427109
vt 1.898360 0.417253
vt 1.907024 0.401744
vt 1.936290 0.389522
vt 1.923630 0.380344
vt 1.901750 0.378669
vt 1.949470 0.366982
vt 1.947176 0.384296
vt 1.932943 0.366982
vt 1.901177 0.366982
vt 1.901455 0.374073
vt 1.918501 0.366982
vt 1.958097 0.520722
vt 1.972190 0.477473
vt 1.989977 0.519192
vt 1.953087 0.512560
vt 1.990421 0.465399
vt 1.993989 0.476444
vt 1.948410 0.451601
vt 1.956265 0.424109
vt 1.980546 0.400934
vt 1.955050 0.398426
vt 1.971293 0.373361
vt 1.979314 0.368327
vt 1.983210 0.370867
vt 1.966971 0.366987
vt 1.971145 0.366348
vt 1.855595 0.566101
vt 1.859536 0.555103
vt 1.863449 0.566101
vt 1.889042 0.566101
vt 1.875100 0.565709
vt 1.919567 0.555103
vt 1.909511 0.567395
vt 1.918018 0.566101
vt 1.942785 0.566101
vt 1.947286 0.566101
vt 1.981893 0.555103
vt 1.956547 0.566101
vt 1.982678 0.566101
vt 1.986552 0.566101
s 1
f 2/1/1 3/2/2 1/3/3
f 2/1/1 5/4/4 3/5/2
f 7/6/5 4/7/6 2/1/1
f 2/1/1 4/7/6 10/8/7
f 5/9/4 2/1/1 10/8/7
f 6/10/8 4/7/6 7/6/5
f 7/6/5 32/11/9 6/10/8
f 8/12/10 6/10/8 32/11/9
f 6/10/8 8/12/10 38/13/11
f 32/11/9 9/14/12 8/12/10
f 4/7/6 6/10/8 39/15/13
f 39/15/13 10/8/7 4/7/6
f 12/16/14 5/17/4 10/8/7
f 12/16/14 10/8/7 39/15/13
f 40/18/15 39/15/13 6/10/8
f 5/19/4 12/16/14 11/20/16
f 12/16/14 39/15/13 15/21/17
f 12/16/14 13/22/18 11/23/16
f 12/16/14 14/24/19 13/22/18
f 14/24/19 12/16/14 15/21/17
f 14/25/19 15/21/17 16/26/20
f 14/27/19 16/26/20 17/28/21
f 17/29/21 16/26/20 18/30/22
f 17/31/21 18/30/22 19/32/23
f 17/33/21 19/32/23 20/34/24
f 21/35/25 20/34/24 19/32/23
f 20/36/24 21/35/25 11/37/16
f 11/38/16 21/35/25 5/39/4
f 19/32/23 35/40/26 21/35/25
f 21/35/25 22/41/27 5/42/4
f 22/41/27 21/35/25 35/40/26
f 22/41/27 23/43/28 5/42/4
f 23/43/28 3/44/2 5/45/4
f 23/43/28 22/41/27 24/46/29
f 25/47/30 3/44/2 23/43/28
f 24/46/29 25/47/30 23/43/28
f 25/47/30 1/48/3 3/49/2
f 24/46/29 26/50/31 25/47/30
f 26/50/31 24/46/29 27/51/32
f 24/46/29 28/52/33 27/51/32
f 27/51/32 28/52/33 30/53/34
f 31/54/35 9/14/12 32/11/9
f 9/14/12 33/55/36 8/12/10
f 33/55/36 38/13/11 8/12/10
f 29/56/37 9/14/12 31/54/35
f 9/14/12 29/56/37 28/52/33
f 30/53/34 28/52/33 29/56/37
f 9/14/12 28/52/33 33/55/36
f 37/57/38 38/13/11 33/55/36
f 33/55/36 28/52/33 34/58/39
f 37/57/38 33/55/36 34/58/39
f 24/46/29 34/58/39 28/52/33
f 35/40/26 34/58/39 24/46/29
f 22/41/27 35/40/26 24/46/29
f 37/57/38 34/58/39 35/40/26
f 36/59/40 37/57/38 35/40/26
f 35/40/26 19/32/23 36/59/40
f 18/30/22 36/59/40 19/32/23
f 16/26/20 36/59/40 18/30/22
f 40/18/15 36/59/40 16/26/20
f 37/57/38 36/59/40 40/18/15
f 37/57/38 40/18/15 38/13/11
f 38/13/11 40/18/15 6/10/8
f 16/26/20 15/21/17 39/15/13
f 39/15/13 40/18/15 16/26/20
f 20/60/24 11/61/16 17/62/21
f 14/63/19 17/64/21 41/65/41
f 13/66/18 41/67/41 17/68/21
f 17/68/21 11/69/16 13/70/18
f 41/71/41 42/72/42 14/73/19
f 13/74/18 42/72/42 41/71/41
f 42/72/42 13/74/18 14/75/19
f 44/76/43 43/77/44 45/78/45
f 44/79/43 45/78/45 49/80/46
f 45/78/45 43/81/44 46/82/47
f 46/83/47 47/84/48 45/78/45
f 45/78/45 47/84/48 53/85/49
f 47/86/48 48/87/50 53/85/49
f 53/85/49 49/80/46 45/78/45
f 49/80/46 50/88/51 44/89/43
f 51/90/52 53/85/49 48/91/50
f 50/88/51 49/80/46 52/92/53
f 60/93/54 52/92/53 49/80/46
f 53/85/49 60/93/54 49/80/46
f 60/93/54 53/85/49 51/90/52
f 50/94/51 52/92/53 54/95/55
f 52/92/53 55/96/56 54/97/55
f 60/93/54 56/98/57 52/92/53
f 55/96/56 52/92/53 56/98/57
f 54/99/55 55/96/56 57/100/58
f 57/101/58 55/96/56 59/102/59
f 57/103/58 59/102/59 44/104/43
f 44/105/43 59/102/59 58/106/60
f 55/96/56 61/107/61 59/102/59
f 61/107/61 55/96/56 56/98/57
f 60/93/54 51/90/52 56/98/57
f 61/107/61 56/98/57 51/90/52
f 48/108/50 61/107/61 51/90/52
f 61/107/61 48/109/50 62/110/62
f 62/110/62 59/102/59 61/107/61
f 59/102/59 62/111/62 63/112/63
f 63/113/63 64/114/64 59/102/59
f 64/114/64 58/106/60 59/102/59
f 65/115/65 64/114/64 63/116/63
f 64/114/64 43/117/44 58/118/60
f 64/114/64 65/115/65 43/119/44
f 46/120/47 65/115/65 63/121/63
f 43/122/44 65/115/65 46/120/47
f 54/123/55 66/124/66 50/125/51
f 66/124/66 54/123/55 57/126/58
f 66/124/66 44/127/43 50/128/51
f 57/129/58 44/130/43 66/124/66
f 44/131/43 58/132/60 67/133/67
f 67/133/67 43/134/44 44/135/43
f 67/133/67 58/136/60 43/137/44
f 48/138/50 68/139/68 62/140/62
f 63/141/63 62/142/62 68/139/68
f 69/143/69 63/141/63 68/139/68
f 63/144/63 69/143/69 46/145/47
f 46/146/47 69/143/69 47/147/48
f 70/148/70 47/149/48 69/143/69
f 47/150/48 70/148/70 48/151/50
f 25/47/30 26/50/31 1/48/3
f 2/1/1 1/3/3 7/6/5
f 27/51/32 30/53/34 26/50/31
f 26/50/31 7/6/5 1/3/3
