# Blender 5.1.1
# www.blender.org
o Head
v -0.030357 0.107096 -0.009800
v -0.055454 0.108283 -0.096900
v 0.000109 0.019061 -0.205207
v -0.091515 0.076107 -0.111495
v -0.089568 0.041980 -0.070692
v -0.086811 0.041723 -0.146227
v -0.081682 0.067194 -0.054951
v -0.088497 0.056216 -0.069180
v -0.084819 0.072472 -0.072077
v -0.084405 0.009642 -0.048039
v -0.076336 0.004928 -0.038844
v -0.069384 -0.004225 -0.031108
v -0.068176 0.050798 -0.033856
v -0.094896 0.020021 -0.100566
v -0.090561 -0.001075 -0.075192
v -0.082459 -0.006459 -0.047715
v -0.092856 0.022701 -0.127450
v -0.090642 -0.003811 -0.123802
v -0.050882 -0.075925 -0.148723
v 0.074659 -0.016817 -0.159525
v 0.068813 -0.044318 -0.155843
v 0.070664 -0.024220 -0.167289
v 0.051100 -0.040060 -0.172748
v 0.042760 -0.055179 -0.171466
v 0.027811 -0.046448 -0.180950
v 0.062532 -0.065044 -0.145248
v 0.050850 -0.092353 -0.143938
v 0.037185 -0.083119 -0.159380
v -0.033487 -0.100431 -0.148752
v 0.043089 -0.095562 -0.146107
v 0.017416 -0.087269 -0.163148
v -0.000203 -0.088616 -0.166864
v -0.034256 -0.075229 -0.162815
v -0.024105 -0.086078 -0.162046
v 0.007687 -0.087236 -0.165917
v -0.025561 -0.052745 -0.179091
v -0.000565 -0.074187 -0.173935
v -0.055577 -0.025299 -0.175327
v -0.049520 -0.042078 -0.171377
v -0.049220 -0.055497 -0.164989
v -0.057774 -0.059253 -0.154557
v -0.038250 -0.051480 -0.174178
v -0.026648 -0.071458 -0.169092
v 0.015440 -0.033991 -0.189396
v 0.015381 -0.052501 -0.183092
v 0.026140 -0.027890 -0.188783
v -0.001388 -0.010950 -0.200560
v 0.051852 -0.003567 -0.187033
v 0.056717 -0.014123 -0.180248
v -0.074194 0.017160 -0.182526
v -0.077177 0.001496 -0.168975
v 0.081197 0.101237 -0.067327
v 0.090343 0.055055 -0.075177
v 0.076952 0.089108 -0.143400
v 0.071669 0.103750 -0.117380
v -0.023711 0.038855 -0.200215
v -0.036325 0.075476 -0.181197
v 0.042533 0.027942 -0.193972
v -0.044121 0.012412 -0.199445
v -0.079462 0.045162 -0.171066
v -0.053593 0.033301 -0.193136
v 0.015154 0.058709 -0.200151
v 0.080615 0.064204 -0.160616
v 0.095565 0.052035 -0.100435
v 0.096559 0.042747 -0.095603
v 0.094675 0.054952 -0.091821
v 0.089810 0.078378 -0.119053
v 0.085278 0.040320 -0.145613
v 0.072163 -0.007003 -0.038905
v 0.079672 -0.009414 -0.068912
v 0.080451 -0.006099 -0.059674
v 0.071187 -0.009908 -0.038812
v 0.022833 0.130619 -0.119305
v 0.015533 0.133178 -0.105446
v 0.051218 0.120086 -0.134955
v -0.030840 0.131592 -0.047343
v -0.055558 0.104420 -0.032343
v -0.057990 0.109419 -0.036998
v 0.074495 0.066521 -0.021166
v 0.065593 0.074369 -0.014084
v 0.070212 0.048089 -0.016584
v 0.012443 0.133888 -0.002149
v -0.013991 0.106228 0.004370
v 0.030841 0.103889 0.007953
v 0.042086 0.110735 0.000417
v 0.040843 0.126490 -0.005941
v 0.045789 0.109512 -0.001914
v -0.025762 0.124725 -0.021328
v -0.025214 0.134866 -0.044833
v -0.001490 0.142237 -0.035604
v 0.006921 0.143049 -0.053152
v 0.031949 0.138628 -0.042402
v -0.030370 0.133144 -0.059864
v -0.010708 0.129419 -0.099539
v -0.042274 0.088814 -0.170779
v -0.001973 0.114976 -0.175202
v -0.048011 0.109143 -0.143507
v -0.039598 0.091158 -0.170723
v -0.002313 0.066210 -0.196619
v -0.050150 0.089893 -0.165331
v -0.028867 0.109839 -0.161225
v 0.074964 0.102311 -0.042098
v 0.077875 0.091885 -0.042010
v -0.001503 0.046613 -0.201437
v -0.023100 0.076403 -0.187083
v 0.043009 0.077943 -0.194392
v 0.038850 0.064238 -0.199312
v 0.009546 0.091434 -0.191617
v 0.070575 0.026008 -0.182704
v 0.050295 0.075808 -0.189091
v 0.047359 0.113098 -0.148427
v 0.065347 0.120516 -0.037028
v 0.068645 0.088188 -0.022104
v 0.052658 0.124994 -0.079114
v 0.044516 0.129955 -0.080616
v 0.073598 -0.027099 -0.051337
v -0.037459 0.018164 -0.202388
v -0.022601 -0.003900 -0.202901
v 0.071103 -0.033222 -0.079689
v 0.033303 -0.095868 -0.147809
v -0.015374 -0.082419 -0.165653
v -0.024708 -0.098110 -0.153341
v -0.046155 -0.072447 -0.137381
v -0.022501 -0.008591 -0.192584
v 0.074747 -0.000889 -0.154512
v 0.041327 0.051429 -0.177726
v 0.034896 -0.088493 -0.148233
v 0.061765 0.065251 -0.152203
v 0.025114 0.071255 -0.014224
v 0.068999 0.073199 -0.053375
v 0.021365 0.106967 -0.103829
v -0.060243 0.054467 -0.028486
v -0.002471 0.108017 -0.055607
v -0.036610 0.065897 -0.169936
v -0.043395 0.090506 -0.129248
v -0.068473 0.079392 -0.078112
v -0.082752 0.021199 -0.134535
v -0.079072 0.013872 -0.067825
v -0.072737 -0.026067 -0.091797
v 0.001504 -0.071994 0.015877
v 0.026284 -0.092558 -0.028428
v 0.005970 -0.067695 0.017110
v -0.003052 -0.072070 0.015547
v -0.020843 -0.084212 -0.041230
v -0.002411 -0.100191 0.008028
v -0.027383 -0.077641 -0.001896
v -0.026641 -0.070721 -0.031421
v 0.000767 -0.085333 -0.036481
v -0.008527 -0.088579 0.002462
v 0.026548 -0.077787 -0.036798
v 0.025080 -0.071624 -0.004647
v 0.017990 -0.074947 0.005180
v -0.004097 -0.072196 0.014067
v -0.006053 -0.071782 0.014213
v -0.005210 -0.076270 0.010121
v -0.007762 -0.071948 0.013892
v 0.006676 -0.071946 0.014460
v 0.011216 -0.076248 0.009996
v 0.010545 -0.078164 0.008918
v 0.023520 -0.071328 -0.002508
v 0.020859 -0.075297 0.008232
v 0.021040 -0.073113 0.000551
v 0.028732 -0.072495 -0.019632
v -0.004468 -0.082538 0.017553
v 0.014906 -0.071185 0.011021
v 0.018940 -0.041672 0.000154
v -0.022293 -0.068990 0.004892
v -0.015814 -0.041596 0.003810
v -0.030689 -0.044139 -0.041045
v 0.032768 -0.044139 -0.041045
v 0.024556 -0.070351 0.003516
v -0.024572 -0.069111 -0.038296
v -0.006511 -0.067786 0.016068
v 0.015073 -0.077381 0.003561
v 0.015678 -0.092303 -0.007884
v 0.001279 -0.076679 0.007996
v 0.024430 -0.073600 -0.056653
v -0.020267 -0.075622 -0.057757
v 0.003216 -0.104345 -0.060570
v -0.023591 -0.082917 -0.048674
v -0.008695 -0.079016 0.003241
v -0.020294 -0.095313 -0.038678
v -0.010866 -0.088331 -0.015852
v -0.007669 -0.071347 0.005976
v -0.008814 -0.097608 -0.010530
v 0.014956 -0.099283 -0.011209
v 0.010190 -0.054367 -0.045973
v 0.030566 -0.068560 -0.038466
v 0.042848 -0.002041 0.008227
v 0.039064 -0.000526 0.009369
v 0.033439 -0.001525 0.013940
v 0.031406 0.000529 0.010791
v 0.033363 0.002207 0.009040
v 0.027023 -0.001880 0.011653
v -0.041552 -0.009748 0.006521
v -0.045276 -0.008994 0.004732
v -0.048419 -0.009168 0.002705
v -0.047087 -0.005721 -0.001034
v 0.044671 -0.002524 0.003636
v 0.047363 -0.004836 -0.001091
v 0.034694 0.000139 0.008104
v 0.035109 0.000752 0.009182
v 0.026034 0.000463 0.007932
v 0.027455 -0.005497 0.005642
v 0.019840 -0.004500 0.005120
v 0.045031 -0.004340 0.000486
v 0.041508 -0.006484 0.004508
v 0.042014 -0.008550 0.005094
v 0.028631 -0.009459 0.008750
v 0.033005 -0.009886 0.009467
v 0.017600 -0.007785 0.004612
v -0.030772 -0.010018 0.008270
v -0.029071 -0.004946 0.008019
v -0.022420 -0.008822 0.006138
v -0.031760 -0.010355 0.008572
v -0.041706 -0.009233 0.005906
v -0.039777 -0.009273 0.005903
v -0.037193 -0.001610 0.007807
v -0.041278 -0.006935 0.004346
v -0.038008 -0.001092 0.008741
v -0.030733 0.000178 0.010310
v -0.018735 -0.007959 0.004791
v -0.022686 -0.003914 0.005197
v 0.039361 0.007007 -0.013762
v 0.037449 0.011258 -0.012123
v 0.047992 -0.008182 -0.012487
v 0.034115 -0.009767 -0.019978
v 0.021227 0.001635 -0.013990
v 0.016786 0.000113 -0.012922
v 0.029516 -0.019744 -0.006877
v 0.026091 -0.015631 -0.013978
v 0.044207 -0.010615 -0.013584
v -0.032562 -0.006031 -0.018982
v -0.027027 0.006420 0.001481
v -0.025189 0.007077 -0.012348
v -0.043635 0.002226 -0.012623
v -0.045685 -0.009114 -0.003063
v -0.038958 -0.016014 -0.012040
v -0.029910 -0.019655 -0.003019
v -0.020270 -0.010362 -0.012410
v -0.033168 -0.004756 0.009264
v 0.033393 -0.005757 0.008808
v -0.036677 -0.011232 -0.020272
v -0.023968 0.004562 -0.005223
v -0.025859 0.007295 -0.012320
v -0.043394 0.002455 -0.012782
v -0.047037 -0.004997 -0.001591
v -0.038973 -0.016037 -0.011728
v -0.034257 -0.018833 -0.002446
v -0.020703 -0.010867 -0.012634
v 0.032827 -0.014781 -0.016167
v 0.042749 0.009296 -0.006924
v 0.044072 -0.010650 -0.013809
v 0.026050 -0.015498 -0.014109
v 0.017219 -0.000558 -0.009247
v 0.038572 0.007013 -0.014118
v 0.029181 0.006979 -0.015035
v 0.021011 0.002207 -0.013395
v 0.031882 -0.003843 0.007493
v -0.032590 -0.003229 0.009210
v 0.069168 -0.056855 -0.083703
v 0.083141 -0.025548 -0.102485
v 0.066795 -0.060238 -0.078485
v 0.065203 -0.060871 -0.075206
v 0.046341 -0.102768 -0.057012
v 0.081269 -0.003617 -0.085088
v 0.086771 -0.005621 -0.097383
v 0.012639 -0.127923 -0.029221
v 0.024026 -0.075574 0.013401
v -0.005154 -0.073102 0.023837
v -0.003311 -0.072473 0.024826
v -0.063841 -0.060147 -0.074124
v -0.080273 -0.027574 -0.103171
v -0.085484 -0.004265 -0.096208
v -0.080640 -0.002979 -0.087450
v -0.083009 -0.002280 -0.088724
v -0.076406 -0.008454 -0.069204
v -0.011957 -0.129571 -0.028920
v -0.022361 -0.075796 0.014087
v 0.017558 -0.007588 0.005281
v 0.027972 -0.000161 0.005490
v 0.062536 -0.167438 -0.096665
v 0.063079 -0.166704 -0.096770
v 0.066931 -0.163912 -0.101069
v 0.066327 -0.059043 -0.085370
v 0.057616 -0.114104 -0.123287
v 0.032477 -0.115936 -0.154139
v -0.001173 -0.014118 -0.192134
v -0.005366 -0.096727 -0.161875
v -0.074087 -0.144670 -0.125387
v -0.053635 -0.128159 -0.145928
v 0.053064 -0.150897 -0.177475
v 0.072809 -0.146695 -0.156055
v 0.058211 -0.157331 -0.169871
v 0.051938 -0.159511 -0.173439
v 0.044257 -0.161860 -0.176124
v 0.053172 -0.159131 -0.172920
v 0.059048 -0.157313 -0.169248
v 0.063937 -0.155886 -0.165083
v 0.045764 -0.161407 -0.175851
v 0.054030 -0.158867 -0.172559
v 0.046535 -0.161176 -0.175711
v 0.059828 -0.157071 -0.168734
v 0.037384 -0.163922 -0.177367
v 0.066859 -0.153875 -0.161488
v 0.036330 -0.164232 -0.177375
v 0.026846 -0.167002 -0.177354
v 0.025675 -0.167322 -0.177230
v 0.013278 -0.170210 -0.176081
v 0.070532 -0.147471 -0.159583
v 0.069702 -0.151321 -0.159379
v 0.074202 -0.148292 -0.147015
v 0.073617 -0.147517 -0.151238
v 0.074203 -0.148619 -0.145682
v 0.074015 -0.150868 -0.137457
v 0.073866 -0.151329 -0.136312
v 0.073154 -0.153019 -0.126858
v 0.074205 -0.149007 -0.144099
v 0.073859 -0.147764 -0.149790
v 0.074206 -0.149407 -0.142466
v 0.073156 -0.152992 -0.126708
v 0.070907 -0.157238 -0.112137
v 0.012745 -0.170301 -0.176039
v -0.000217 -0.171409 -0.176263
v -0.068626 -0.148097 -0.161589
v -0.046048 -0.152054 -0.178501
v -0.072378 -0.148041 -0.154262
v -0.073216 -0.149589 -0.144661
v -0.073084 -0.148822 -0.148402
v -0.072363 -0.152032 -0.120689
v -0.066011 -0.163607 -0.099250
v -0.069996 -0.157645 -0.111851
v -0.071623 -0.153906 -0.123033
v -0.067718 -0.161459 -0.105693
v -0.065297 -0.165280 -0.100294
v -0.065995 -0.076200 -0.100194
v -0.060299 -0.009074 -0.162649
v -0.053317 0.061072 -0.161184
v -0.071673 0.060709 -0.048062
v -0.080280 -0.002755 -0.092732
v -0.081215 0.005069 -0.112237
v -0.074199 -0.027443 -0.101415
v -0.053174 -0.094675 -0.064621
v -0.053033 -0.100796 -0.069942
v -0.012949 -0.132211 -0.032396
v -0.048712 -0.111470 -0.066266
v -0.004239 -0.152899 -0.039070
v 0.000397 -0.177592 -0.062811
v -0.003893 -0.178261 -0.064984
v -0.010378 -0.176698 -0.064650
v -0.011940 -0.177522 -0.067182
v -0.012035 -0.177599 -0.067339
v -0.016883 -0.177008 -0.068946
v -0.020485 -0.176323 -0.069496
v -0.004125 -0.172136 -0.053886
v -0.031204 -0.175487 -0.074552
v -0.031544 -0.175398 -0.075023
v -0.037008 -0.173435 -0.076550
v -0.043923 -0.171345 -0.079988
v -0.047000 -0.170538 -0.081872
v -0.041512 -0.172209 -0.078772
v -0.050712 -0.164145 -0.074958
v -0.052697 -0.169682 -0.087875
v -0.051984 -0.169801 -0.087212
v -0.049354 -0.169983 -0.083803
v -0.058112 -0.168602 -0.093016
v -0.057974 -0.168796 -0.093167
v -0.058172 -0.168677 -0.093228
v -0.060633 -0.168490 -0.096541
v -0.060949 -0.168278 -0.096811
v 0.066511 -0.164440 -0.101338
v 0.081033 -0.004181 -0.094338
v 0.064433 -0.077318 -0.058227
v 0.070256 -0.051559 -0.064912
v 0.072494 -0.011999 -0.036417
v 0.079572 0.025360 -0.072049
v 0.044669 0.066041 -0.009778
v -0.006748 0.087306 -0.014995
v -0.020566 0.063835 0.006540
v -0.045747 0.057602 -0.004101
v -0.076730 0.003492 -0.060727
v -0.061404 -0.012695 -0.008637
v -0.059759 -0.086556 -0.030633
v -0.062695 -0.068444 -0.059211
v -0.030182 -0.116425 -0.036330
v -0.011562 -0.127914 -0.023368
v -0.032645 -0.023433 0.008538
v -0.002735 -0.039581 0.035859
v -0.004070 -0.045548 0.031971
v 0.007425 -0.035974 0.030983
v 0.016606 -0.038293 0.031101
v 0.020213 -0.051357 0.025142
v -0.016605 -0.007380 0.005817
v -0.031707 -0.011181 0.009631
v -0.037228 -0.011354 0.008722
v -0.047570 -0.005798 0.000709
v -0.033361 0.000700 0.011643
v -0.045778 -0.001582 0.006793
v -0.019057 -0.002037 0.008057
v 0.002663 0.005487 0.018935
v -0.041043 0.006528 0.017385
v 0.029042 0.064350 -0.000811
v 0.016113 -0.125011 -0.025700
v 0.053908 -0.090731 -0.012318
v 0.007957 -0.120435 0.022401
v -0.017806 -0.111738 0.018300
v 0.029704 -0.077426 0.014590
v 0.027018 -0.076547 0.015709
v 0.057141 -0.010936 -0.005206
v 0.051391 -0.007491 -0.005759
v 0.030658 -0.016558 0.008000
v 0.013776 0.000239 0.006490
v 0.033679 -0.012062 0.008244
v 0.016721 -0.008803 0.005814
v 0.022950 0.001657 0.007567
v 0.036228 0.001195 0.009784
v 0.040980 0.012945 0.015037
v 0.042348 -0.008549 0.004739
v 0.046160 -0.002488 0.001831
v 0.046198 -0.001841 0.002270
v 0.035109 0.001851 0.010342
v 0.074998 -0.057490 -0.083090
v 0.083717 -0.036746 -0.098649
v 0.093869 -0.006083 -0.100192
v 0.087874 -0.020782 -0.102891
v 0.083679 -0.003805 -0.089706
v 0.076101 -0.031423 -0.085426
v 0.088192 -0.045410 -0.096048
v 0.081846 -0.012378 -0.081157
v -0.002147 -0.073603 0.025800
v 0.000053 -0.064650 0.032000
v 0.026720 -0.075829 0.015646
v 0.025357 -0.076434 0.016628
v 0.010045 -0.073419 0.024328
v 0.003413 -0.080225 0.030541
v -0.009653 -0.073477 0.025238
v -0.024362 -0.075023 0.017660
v -0.023633 -0.075617 0.016273
v -0.027275 -0.000533 0.008961
v -0.040621 -0.009843 0.006841
v -0.018875 -0.006803 0.004376
v -0.085497 -0.016057 -0.101165
v -0.084437 -0.002943 -0.092481
v -0.081545 -0.002683 -0.084876
v -0.074234 -0.046192 -0.089459
v -0.092501 -0.009882 -0.102519
v -0.090171 -0.002931 -0.087003
v -0.071713 -0.049679 -0.075044
v -0.081678 -0.043390 -0.092233
v 0.019263 -0.006539 0.002967
v 0.021540 -0.006166 0.002903
v 0.022465 -0.007169 0.002277
v 0.021949 -0.004855 0.002390
v 0.046875 -0.004664 -0.000923
v 0.038333 0.000050 0.008278
v 0.073280 -0.144804 -0.147069
v 0.071302 -0.156564 -0.113327
v 0.072492 -0.153346 -0.117992
v 0.068978 -0.136828 -0.090568
v 0.060640 -0.166715 -0.093340
v 0.058514 -0.164150 -0.087288
v 0.048902 -0.169470 -0.083164
v 0.060381 -0.167516 -0.094206
v 0.055625 -0.168325 -0.089038
v 0.049747 -0.169365 -0.083803
v 0.055081 -0.168580 -0.088846
v 0.059846 -0.168656 -0.095242
v 0.054444 -0.168676 -0.088293
v 0.053968 -0.168719 -0.087833
v 0.044322 -0.170094 -0.078535
v 0.048214 -0.169574 -0.082499
v 0.049542 -0.169385 -0.083577
v 0.044087 -0.170122 -0.078237
v 0.019129 -0.175966 -0.067695
v 0.042500 -0.170914 -0.077663
v 0.035652 -0.174402 -0.076379
v 0.040354 -0.166593 -0.067551
v 0.013431 -0.177314 -0.066536
v 0.008546 -0.176200 -0.062118
v 0.007074 -0.176501 -0.062161
v 0.004864 -0.176869 -0.062060
v 0.004875 -0.176764 -0.061828
v 0.014811 -0.175210 -0.062987
v 0.003706 -0.177415 -0.063018
v 0.014770 -0.168625 -0.052707
v 0.016811 -0.128759 -0.034286
v 0.020078 -0.143331 -0.047461
v 0.041946 -0.112421 -0.058221
v 0.067523 -0.162545 -0.100267
v 0.068295 -0.161635 -0.104938
v 0.067733 -0.162540 -0.103729
v 0.071198 -0.156739 -0.113017
v 0.067403 -0.163131 -0.102330
v 0.066048 -0.165022 -0.101636
v 0.078169 -0.025625 -0.104298
v 0.065007 -0.064891 -0.120088
v 0.080791 -0.009200 -0.099052
v -0.023293 0.081951 -0.162810
v -0.073325 0.066873 -0.079223
v -0.044138 0.094003 -0.079549
v -0.010722 0.097685 -0.044320
v 0.063388 0.077472 -0.060317
v 0.051541 0.091960 -0.103665
v 0.065410 0.046560 -0.164370
v 0.081747 0.039834 -0.103166
v -0.067401 -0.161960 -0.104982
v -0.066976 -0.162631 -0.104031
v -0.071875 -0.149158 -0.154262
v -0.072513 -0.148617 -0.152078
v -0.073079 -0.150562 -0.133965
v -0.071589 -0.154023 -0.123616
v -0.069926 -0.157758 -0.111654
v -0.071152 -0.150765 -0.154261
v -0.073383 -0.149151 -0.145925
v -0.072916 -0.150909 -0.134900
v -0.071609 -0.153953 -0.123265
v -0.069653 -0.158217 -0.110915
v -0.066467 -0.163434 -0.102890
v -0.065987 -0.164190 -0.101817
v -0.007170 -0.064488 0.023374
v 0.017018 -0.069219 0.011974
v -0.026252 -0.084140 -0.009974
v -0.028499 -0.069300 -0.006587
v 0.001462 -0.053045 0.018757
v 0.023272 -0.075762 0.009534
v 0.028528 -0.076508 -0.015485
v 0.027038 -0.064000 -0.029882
v 0.008786 -0.111626 -0.041327
v 0.009738 -0.101673 -0.050106
v -0.017172 -0.097676 -0.051756
v -0.012298 -0.071492 -0.056621
v -0.005808 -0.093945 0.012360
v 0.016926 -0.091818 0.010899
v -0.006951 -0.074392 0.022915
v 0.002632 -0.099473 -0.035940
v -0.024093 -0.090303 -0.000592
vn -0.7676 0.0268 0.6403
vn -0.9985 -0.0474 -0.0285
vn -0.7478 -0.0280 0.6633
vn 0.9329 -0.2616 -0.2477
vn 0.7889 -0.4568 -0.4110
vn 0.9326 -0.3482 -0.0947
vn 0.2413 -0.2962 -0.9241
vn 0.2249 -0.3263 -0.9181
vn 0.2257 -0.3069 -0.9246
vn 0.9984 0.0238 -0.0520
vn 0.9981 0.0045 -0.0610
vn 0.9776 0.1644 0.1315
vn 0.7901 -0.0560 0.6104
vn 0.7446 0.1045 0.6593
vn 0.6402 0.1347 0.7563
vn 0.5809 0.1253 0.8043
vn 0.4327 0.3254 0.8408
vn 0.2582 0.2335 0.9374
vn 0.1715 0.3781 0.9097
vn 0.2709 -0.1448 -0.9516
vn 0.9613 -0.1977 0.1921
vn 0.6749 -0.1868 -0.7138
vn 0.7074 -0.4032 -0.5806
vn -0.3340 -0.6553 -0.6775
vn -0.3221 -0.3693 -0.8717
vn -0.7924 -0.0073 -0.6099
vn -0.9145 -0.3705 -0.1624
vn 0.8243 -0.1527 -0.5452
vn -0.1411 -0.1176 -0.9830
vn 0.2255 0.4242 -0.8770
vn 0.9003 0.3771 0.2173
vn 0.3650 0.4159 0.8330
vn 0.8057 0.5264 -0.2716
vn 0.1440 0.9510 -0.2737
vn -0.0847 0.9129 0.3994
vn -0.5804 0.5244 0.6230
vn -0.2767 0.5650 -0.7773
vn -0.5502 0.7773 -0.3052
vn -0.7315 0.6792 0.0599
vn -0.9789 0.0131 0.2038
vn -0.9100 -0.0216 -0.4141
vn -0.5068 -0.6245 0.5943
vn -0.9630 -0.2249 0.1484
vn 0.0643 -0.7219 0.6890
vn -0.9010 -0.3264 0.2857
vn 0.5295 0.7991 -0.2848
vn 0.0956 0.9420 -0.3217
vn 0.1600 0.9857 0.0534
vn 0.9794 -0.1746 0.1018
vn 0.4469 0.8199 -0.3578
vn -0.5732 0.6590 -0.4869
vn -0.4660 0.8682 -0.1703
vn 0.9791 0.1809 0.0924
vn 0.0635 0.9965 0.0548
vn 0.2896 0.7144 -0.6370
vn -0.6027 0.2652 0.7526
vn -0.1512 0.5688 0.8085
vn 0.4799 0.7895 -0.3827
vn 0.0618 0.7661 0.6397
vn 0.2985 0.9050 -0.3029
vn -0.3017 0.7523 -0.5857
vn -0.3234 0.4534 -0.8306
vn -0.1296 0.9639 0.2325
vn 0.7194 -0.4480 0.5308
vn 0.0636 0.9965 0.0547
vn -0.1294 0.9639 0.2326
vn -0.7988 0.0907 -0.5948
vn -0.2512 0.8126 -0.5259
vn 0.0676 0.3110 0.9480
vn 0.7844 0.2556 0.5651
vn -0.5432 0.3538 0.7614
vn -0.9000 -0.1299 0.4161
vn 0.1173 -0.9824 -0.1451
vn -0.9018 0.0801 -0.4246
vn -0.1113 -0.9339 -0.3396
vn -0.0190 -0.8398 -0.5426
vn 0.8046 0.1306 -0.5793
vn 0.9157 -0.3966 -0.0645
vn 0.2727 -0.9602 0.0612
vn -0.1482 -0.5556 0.8181
vn -0.2598 -0.5524 0.7921
vn 0.7289 0.6199 0.2906
vn -0.1402 0.9879 0.0660
vn -0.7357 -0.4732 0.4845
vn 0.6272 0.7181 -0.3016
vn 0.3888 -0.5334 -0.7512
vn -0.3428 0.7713 -0.5362
vn -0.9695 0.1522 0.1923
vn -0.6100 -0.7880 0.0838
vn -0.3923 0.1018 0.9142
vn -0.5107 0.0825 0.8558
vn -0.0045 -0.4297 0.9030
vn 0.3789 0.7390 0.5571
vn 0.1494 0.7519 0.6421
vn 0.4483 0.7144 0.5373
vn 0.1826 0.8283 0.5297
vn -0.2523 0.7679 0.5888
vn -0.3013 0.7563 0.5808
vn -0.4556 0.6029 0.6549
vn -0.1546 0.7534 0.6392
vn -0.2692 0.7541 0.5990
vn -0.2278 0.8144 0.5337
vn 0.2353 -0.6660 0.7079
vn 0.1626 -0.8467 0.5067
vn 0.0160 -0.8656 0.5005
vn 0.1265 -0.6587 0.7417
vn -0.0230 -0.8651 0.5010
vn -0.0683 -0.4263 0.9020
vn 0.0860 -0.3596 0.9291
vn -0.1079 -0.3337 0.9365
vn 0.5741 0.3505 0.7400
vn 0.2355 -0.6658 0.7080
vn 0.1068 0.2954 0.9494
vn 0.0861 -0.3597 0.9291
vn -0.0715 0.6024 0.7950
vn 0.0861 -0.3596 0.9291
vn -0.0809 -0.0982 0.9919
vn 0.2602 -0.0098 0.9655
vn 0.0279 0.0654 0.9975
vn -0.1037 0.1866 0.9769
vn -0.0083 0.8298 0.5580
vn -0.2190 -0.0738 0.9729
vn -0.1238 0.6163 0.7777
vn 0.0175 0.7960 0.6050
vn -0.0109 -0.2084 0.9780
vn 0.0287 -0.7930 0.6085
vn 0.0129 -0.4546 0.8906
vn -0.2584 -0.9108 0.3221
vn -0.0099 -0.1858 0.9825
vn 0.4370 0.2533 -0.8631
vn 0.0586 0.4314 -0.9002
vn 0.4438 -0.4840 -0.7542
vn 0.3414 0.2734 -0.8993
vn -0.5445 -0.3123 -0.7785
vn -0.1630 0.3678 -0.9155
vn 0.3424 -0.8283 -0.4435
vn -0.5641 -0.5494 -0.6164
vn 0.3534 -0.7998 -0.4852
vn 0.8485 -0.5218 0.0880
vn 0.3441 0.6912 -0.6355
vn -0.4054 -0.6257 -0.6664
vn -0.5612 0.7657 -0.3143
vn -0.8721 0.4846 -0.0682
vn -0.4716 -0.7079 -0.5258
vn 0.5337 -0.6278 -0.5665
vn 0.9728 -0.0695 -0.2210
vn -0.1079 -0.1574 0.9816
vn 0.0286 0.1596 0.9868
vn -0.8638 0.3481 0.3642
vn -0.3662 0.9304 -0.0166
vn -0.2220 -0.9235 -0.3129
vn -0.3993 0.7802 -0.4816
vn -0.8532 -0.3156 -0.4152
vn -0.7277 -0.6610 -0.1831
vn 0.7444 -0.6652 0.0576
vn 0.8618 -0.4138 -0.2935
vn 0.0761 0.3299 -0.9410
vn -1.0000 -0.0001 -0.0002
vn -0.3007 0.1298 -0.9449
vn 0.8943 0.4474 0.0001
vn -0.3088 0.9413 0.1362
vn 0.3825 -0.5448 -0.7463
vn 0.4929 0.1275 -0.8607
vn 0.2516 0.2935 -0.9223
vn -0.3900 0.8594 0.3305
vn -0.6101 0.4904 -0.6223
vn 0.0628 -0.3801 0.9228
vn 0.8309 -0.4916 0.2605
vn 0.1311 0.0600 0.9896
vn 0.8206 -0.3229 -0.4716
vn 0.8604 -0.5071 0.0504
vn -0.0333 -0.7246 -0.6884
vn 0.3836 -0.8108 -0.4422
vn 0.6350 -0.7725 0.0034
vn 0.4030 -0.9111 -0.0868
vn 0.9009 -0.4278 0.0737
vn -0.4435 0.3488 -0.8256
vn 0.2120 0.8410 0.4978
vn 0.5932 -0.7959 0.1208
vn -0.0796 -0.7431 0.6644
vn -0.1555 -0.9473 -0.2801
vn 0.3797 0.2440 -0.8924
vn 0.3463 -0.4401 0.8285
vn 0.2184 0.7832 0.5821
vn 0.1787 0.7905 -0.5858
vn 0.1913 0.4187 -0.8878
vn -0.4408 -0.8975 -0.0126
vn -0.3949 -0.6925 -0.6038
vn 0.0762 0.6462 -0.7594
vn 0.2391 0.5226 -0.8184
vn -0.3001 0.6573 0.6913
vn 0.2743 0.9612 0.0286
vn -0.4329 -0.8716 0.2299
vn -0.6665 -0.6549 0.3561
vn -0.0544 0.5890 -0.8063
vn 0.2616 -0.9124 -0.3146
vn -0.1833 0.6753 0.7144
vn 0.8012 -0.5744 0.1676
vn -0.1826 0.4145 0.8915
vn 0.5302 -0.4342 0.7282
vn 0.6311 -0.6827 0.3683
vn 0.4561 -0.4893 0.7434
vn 0.2813 -0.8246 0.4908
vn 0.6299 0.5154 0.5811
vn 0.6638 -0.3506 0.6606
vn 0.0047 0.8844 0.4667
vn 0.7685 -0.5509 0.3254
vn 0.7585 -0.4443 0.4767
vn 0.6688 -0.6834 0.2927
vn 0.9603 0.0668 0.2710
vn 0.7482 -0.2171 -0.6269
vn 0.9649 -0.1251 0.2308
vn 0.7002 0.0295 -0.7133
vn -0.1376 -0.2244 -0.9647
vn 0.2501 0.6153 -0.7476
vn 0.1673 -0.0952 -0.9813
vn -0.7302 -0.2199 -0.6469
vn -0.4885 0.4202 -0.7647
vn -0.9552 -0.0872 -0.2827
vn -0.9674 0.2529 0.0148
vn -0.1983 0.6042 -0.7718
vn 0.0712 0.2528 -0.9649
vn 0.5697 0.6326 -0.5247
vn 0.6325 0.7680 -0.1006
vn -0.3102 0.2240 -0.9239
vn 0.4792 -0.4054 -0.7785
vn 0.5539 -0.3973 -0.7317
vn 0.3300 -0.3640 -0.8710
vn 0.2186 0.8508 -0.4779
vn 0.7233 0.2002 -0.6609
vn 0.7219 -0.1877 -0.6660
vn -0.2405 0.9533 -0.1826
vn -0.2929 0.9561 -0.0035
vn -0.2815 0.9590 -0.0334
vn -0.4925 -0.4956 0.7154
vn -0.2813 0.9592 -0.0287
vn 0.6248 -0.7808 0.0037
vn 0.0920 -0.1111 -0.9895
vn -0.2215 0.9261 0.3054
vn 0.8467 -0.4280 -0.3162
vn -0.0926 0.1434 -0.9853
vn -0.0679 0.7071 0.7038
vn 0.6572 -0.7517 -0.0555
vn 0.9367 -0.3323 -0.1100
vn 0.8897 -0.4106 -0.1997
vn -0.9275 0.3726 0.0298
vn 0.9938 0.0744 0.0832
vn -0.9951 0.0984 -0.0130
vn 0.8933 -0.4363 -0.1079
vn 0.9715 0.2310 -0.0538
vn 0.9823 0.1800 0.0522
vn 0.9960 0.0396 0.0800
vn 0.9357 -0.3477 0.0597
vn -0.1167 -0.0792 -0.9900
vn -0.1109 0.2275 -0.9674
vn -0.0258 0.4792 -0.8774
vn -0.7107 0.6919 -0.1271
vn -0.8584 -0.4170 -0.2987
vn -0.9927 -0.1195 -0.0135
vn -0.8689 0.0892 0.4869
vn -0.9762 -0.1176 0.1823
vn -0.5184 -0.7943 -0.3168
vn -0.9434 -0.3304 -0.0283
vn -0.7393 -0.6664 -0.0968
vn 0.4763 0.4575 0.7508
vn -0.7931 -0.1773 0.5827
vn -0.8146 -0.0754 0.5751
vn -0.9703 0.0918 -0.2240
vn -0.7285 0.2961 -0.6177
vn -0.8133 0.5753 -0.0870
vn -0.9913 0.0468 0.1233
vn -0.9958 0.0698 0.0588
vn -0.9371 -0.2400 -0.2534
vn -0.9320 -0.2670 0.2450
vn -0.8386 -0.5433 0.0405
vn -0.6026 -0.3550 0.7147
vn -0.3926 -0.5765 0.7166
vn 0.3881 -0.5622 0.7303
vn 0.7379 0.0413 0.6737
vn -0.1696 -0.8598 0.4816
vn -0.2330 -0.8425 0.4856
vn 0.1903 0.8929 -0.4081
vn 0.1855 0.9451 -0.2689
vn -0.2492 -0.8373 0.4866
vn -0.2850 -0.8116 0.5100
vn -0.3937 -0.6951 0.6015
vn -0.1338 -0.9869 -0.0906
vn 0.4622 0.4534 -0.7621
vn -0.4561 -0.7513 0.4769
vn 0.5408 0.5449 -0.6408
vn -0.5041 -0.7611 0.4082
vn -0.5301 -0.7471 0.4010
vn 0.4364 0.8450 -0.3090
vn 0.4302 0.8550 -0.2897
vn -0.6536 -0.6245 0.4275
vn 0.2786 0.9445 -0.1741
vn 0.5588 0.7206 -0.4105
vn -0.5178 0.6630 0.5407
vn -0.7077 -0.5359 0.4604
vn 0.7522 -0.6483 0.1176
vn 0.9893 0.1174 -0.0870
vn 0.6639 -0.4301 0.6118
vn -0.7307 -0.4908 -0.4746
vn -0.0218 0.5422 -0.8400
vn 0.5456 -0.3875 -0.7431
vn 0.7037 -0.1216 0.7000
vn 0.9347 0.0280 0.3544
vn 0.8310 -0.3202 0.4549
vn 0.9930 0.1185 0.0004
vn 0.6096 0.7688 0.1934
vn 0.3113 0.3622 0.8786
vn -0.4040 0.8423 0.3568
vn -0.5358 0.5534 0.6377
vn -0.0749 0.3808 0.9216
vn -0.5181 0.1621 0.8398
vn -0.9501 -0.0142 0.3117
vn -0.9637 -0.2463 0.1029
vn -0.8449 -0.0802 0.5289
vn -0.8658 -0.3942 0.3081
vn -0.6982 -0.3982 0.5950
vn -0.7651 -0.6414 0.0570
vn -0.4671 0.3115 0.8275
vn -0.3538 0.3038 0.8846
vn -0.4889 0.0823 0.8684
vn -0.3801 -0.2082 0.9012
vn 0.4826 0.1565 0.8617
vn -0.3801 -0.2083 0.9012
vn -0.0103 -0.0904 -0.9959
vn 0.4829 0.1564 0.8616
vn -0.3250 -0.1069 0.9397
vn 0.6345 0.0493 0.7713
vn 0.2366 0.1439 0.9609
vn -0.0389 0.1187 0.9922
vn -0.4612 0.3109 0.8310
vn -0.4486 -0.7107 0.5419
vn -0.8736 -0.2525 0.4159
vn -0.0424 -0.7717 0.6346
vn -0.1636 -0.8200 0.5484
vn 0.4684 0.2554 0.8458
vn 0.7519 -0.0144 0.6591
vn 0.4006 -0.7069 0.5830
vn 0.2514 -0.1352 0.9584
vn 0.6339 -0.2342 0.7371
vn 0.4701 0.2581 0.8441
vn 0.2790 0.2896 0.9156
vn 0.4740 -0.2148 0.8539
vn 0.6945 -0.1017 0.7123
vn 0.3306 0.4003 0.8547
vn 0.2704 -0.2965 0.9160
vn 0.1441 -0.1634 0.9760
vn -0.1303 -0.3776 0.9168
vn -0.0172 -0.8785 0.4774
vn -0.1986 -0.2779 0.9398
vn 0.1401 -0.6405 0.7551
vn 0.7842 0.1982 0.5880
vn 0.5889 -0.6754 0.4439
vn 0.7045 -0.3906 0.5925
vn 0.1336 -0.4492 0.8834
vn 0.6806 0.0474 0.7311
vn -0.3124 -0.3638 -0.8775
vn 0.8682 -0.2172 0.4461
vn 0.2205 -0.0521 -0.9740
vn 0.9614 0.0608 0.2683
vn 0.0005 0.9870 -0.1607
vn 0.8281 -0.1127 0.5492
vn 0.8691 -0.1522 0.4707
vn 0.0147 -0.7148 0.6992
vn 0.4721 0.3037 0.8276
vn -0.5415 -0.0516 0.8391
vn -0.1226 -0.2664 0.9560
vn -0.3641 -0.9072 0.2107
vn -0.0633 0.8116 0.5808
vn -0.1485 -0.2453 -0.9580
vn -0.9702 -0.1161 -0.2126
vn -0.8957 -0.0837 0.4368
vn -0.0069 0.9671 -0.2541
vn -0.0133 0.9521 0.3055
vn -0.9181 -0.3870 0.0862
vn -0.8051 -0.2836 0.5210
vn 0.3238 0.3495 0.8792
vn 0.2106 -0.0008 0.9776
vn 0.2550 0.2825 0.9248
vn -0.0349 -0.9161 0.3995
vn 0.9803 -0.0885 0.1768
vn 0.6961 -0.0671 -0.7148
vn 0.9123 -0.2041 0.3549
vn 0.6199 -0.3137 0.7193
vn 0.7458 -0.3144 0.5873
vn 0.6394 -0.5976 0.4838
vn 0.5694 -0.6821 0.4590
vn 0.5950 -0.6572 0.4626
vn 0.5927 -0.6273 0.5051
vn 0.6466 0.2211 0.7300
vn 0.5310 -0.7501 0.3942
vn 0.5541 -0.7113 0.4325
vn 0.4486 -0.7299 0.5157
vn 0.0681 -0.9974 -0.0225
vn -0.4612 0.6155 -0.6391
vn -0.5498 0.2578 -0.7945
vn 0.4371 -0.8412 0.3182
vn 0.5361 -0.7242 0.4337
vn 0.3488 -0.8493 0.3962
vn 0.3107 -0.8614 0.4018
vn 0.4809 -0.7772 0.4058
vn 0.3096 -0.8077 0.5018
vn 0.1913 -0.9265 0.3241
vn -0.0689 -0.9893 0.1288
vn 0.1827 -0.9350 0.3040
vn -0.1814 0.9402 -0.2884
vn -0.0853 0.9041 -0.4188
vn -0.0182 -0.7292 0.6840
vn 0.3352 -0.4974 0.8001
vn 0.6210 -0.2346 0.7479
vn 0.7581 -0.1596 0.6323
vn 0.8002 -0.5961 -0.0652
vn -0.8262 0.5620 0.0403
vn 0.7122 -0.6732 0.1992
vn 0.8322 -0.5532 -0.0374
vn -0.8138 0.5788 0.0524
vn 0.9198 -0.3267 -0.2174
vn 0.9589 -0.0794 -0.2724
vn 0.6563 0.1990 -0.7278
vn 0.9538 0.2840 -0.0977
vn -0.0624 0.8179 -0.5719
vn 0.3773 0.9028 -0.2064
vn -0.4049 0.9110 -0.0778
vn -0.0206 0.9925 0.1204
vn 0.6803 0.6880 0.2526
vn -0.7309 -0.6714 -0.1224
vn -0.7117 -0.6833 -0.1630
vn -0.9330 0.1956 -0.3020
vn -0.8686 -0.3910 -0.3043
vn -0.8998 -0.4050 -0.1625
vn -0.9742 -0.2238 0.0280
vn -0.9645 -0.2594 0.0506
vn -0.8624 -0.5045 -0.0427
vn -0.9345 -0.2977 -0.1952
vn -0.9214 -0.3886 -0.0069
vn -0.8699 -0.4912 -0.0440
vn -0.4171 -0.8784 -0.2334
vn -0.7598 -0.6413 -0.1070
vn -0.7273 -0.6706 -0.1461
vn 0.3773 0.5370 -0.7545
vn 0.8369 -0.5412 0.0821
vn 0.0603 -0.9976 0.0345
vn -0.6607 -0.7465 -0.0788
vn -0.6074 -0.0853 -0.7898
vn -0.5682 -0.7257 0.3879
vn 0.2081 -0.7969 0.5672
vn -0.4420 0.4840 0.7552
vn -0.5001 0.3215 -0.8041
vn 0.8079 0.4613 0.3668
vn 0.1374 0.9190 -0.3694
vn -0.6469 0.6578 -0.3858
vn -0.1588 0.9714 -0.1763
vn 0.6099 0.7600 -0.2246
vn -0.0161 -0.3882 -0.9214
vn -0.4377 0.7318 0.5223
vn 0.3036 0.3284 -0.8944
vn 0.5277 -0.8314 0.1738
vn 0.0764 -0.3557 0.9315
vn 0.0993 -0.3522 0.9306
vn -0.3975 -0.3749 -0.8375
vn 0.8113 0.2160 0.5433
vn 0.7562 0.2307 0.6124
vn 0.7621 0.2411 0.6009
vn 0.4458 0.8763 0.1830
vn 0.4657 0.8651 0.1861
vn -0.9806 0.0021 0.1963
vn -0.9950 -0.0785 0.0623
vn -0.9878 -0.0487 0.1482
vn -0.6527 -0.1420 0.7442
vn -0.7724 0.1161 0.6244
vn -0.7740 0.1398 0.6175
vn -0.5265 0.5572 0.6422
vn -0.3267 -0.0903 -0.9408
vn -0.6470 0.1124 0.7542
vn -0.3069 -0.4571 -0.8348
vn -0.6112 0.0529 0.7897
vn -0.1392 -0.7295 -0.6697
vn -0.7777 -0.0815 0.6233
vn -0.3176 0.3485 -0.8818
vn 0.0206 -0.5868 0.8094
vn 0.8187 -0.2587 0.5126
vn 0.7419 -0.2291 0.6302
vn 0.9187 -0.1199 0.3763
vn 0.9241 -0.1171 0.3637
vn 0.8896 -0.1025 0.4451
vn 0.9474 -0.0857 0.3082
vn 0.9151 -0.1104 0.3878
vn 0.9607 0.0265 0.2762
vn 0.9423 -0.0406 0.3324
vn 0.9607 0.0882 0.2632
vn 0.9570 0.0030 0.2902
vn 0.9632 0.1649 0.2120
vn 0.9675 -0.1716 -0.1857
vn 0.8983 0.1688 0.4057
vn 0.6381 -0.2581 0.7254
vn 0.8578 0.2510 0.4484
vn 0.8984 0.1912 0.3954
vn 0.6721 0.7336 -0.1002
vn 0.5739 0.8144 -0.0864
vn -0.9630 -0.0551 -0.2639
vn -0.9471 -0.0646 -0.3144
vn 0.8256 0.3037 0.4755
vn 0.3810 0.2176 0.8986
vn 0.5304 0.8455 -0.0610
vn 0.8881 0.4129 0.2018
vn 0.6902 0.7173 -0.0954
vn -0.0849 0.9954 -0.0447
vn -0.1098 0.9939 0.0039
vn 0.1282 0.9860 0.1071
vn 0.0302 0.9951 -0.0939
vn 0.2624 0.9561 -0.1307
vn 0.2253 0.9659 -0.1273
vn 0.2287 0.9666 -0.1154
vn -0.0566 0.9737 -0.2209
vn -0.2936 0.9559 -0.0088
vn -0.3035 0.9528 0.0033
vn -0.4006 0.8447 0.3551
vn -0.5301 0.7830 0.3255
vn 0.4480 0.8272 -0.3391
vn 0.2199 0.9751 -0.0298
vn 0.3455 0.9299 -0.1263
vn -0.5652 0.4464 0.6937
vn -0.6685 0.1367 0.7311
vn -0.4658 -0.2499 -0.8488
vn 0.1862 -0.0315 -0.9820
vn 0.9716 0.0462 -0.2320
vn 0.9428 0.1101 -0.3146
vn -0.9590 -0.1106 0.2611
vn -0.7249 0.4534 0.5185
vn -0.9232 0.0886 0.3738
vn -0.9593 0.0425 0.2793
vn -0.0158 -0.7904 0.6124
vn -0.0087 -0.7800 0.6257
vn -0.8170 -0.5616 0.1308
vn -0.6719 -0.4762 -0.5673
vn -0.6443 -0.3975 -0.6534
vn -0.6929 -0.3659 -0.6213
vn -0.6047 -0.4493 -0.6576
vn -0.4132 -0.5025 -0.7595
vn -0.4757 -0.4415 -0.7608
vn -0.4481 -0.4460 -0.7748
vn -0.4242 -0.4511 -0.7852
vn -0.4221 -0.4520 -0.7858
vn -0.4230 -0.4517 -0.7856
vn -0.4219 -0.4521 -0.7859
vn -0.2196 -0.5818 -0.7831
vn 0.0721 -0.8908 -0.4486
vn 0.1915 -0.8238 0.5335
vn -0.9971 0.0671 0.0360
vn -0.9986 0.0482 0.0200
vn 0.9760 -0.2139 0.0417
vn 0.9549 -0.2926 0.0504
vn 0.9535 -0.3003 0.0274
vn 0.9196 -0.1571 0.3601
vn 0.9548 -0.2960 0.0257
vn 0.9755 -0.0098 -0.2196
vn 0.9654 0.0713 0.2508
vn 0.6783 0.6545 -0.3340
vn 0.9670 -0.2222 -0.1243
vn 0.9855 -0.1184 -0.1216
vn 0.9687 -0.1284 -0.2123
vn 0.9668 -0.1897 -0.1710
vn 0.9625 0.0692 0.2623
vn 0.9630 0.1008 0.2500
vn 0.9389 0.2640 0.2207
vn 0.9624 0.1592 0.2203
vn 0.9648 0.1790 0.1927
vn 0.9444 0.0552 0.3240
vn 0.9433 -0.1180 -0.3101
vn 0.7014 -0.2080 -0.6817
vn 0.7153 -0.1296 -0.6867
vn 0.7333 0.0461 -0.6784
vn 0.7971 0.5808 -0.1650
vn -0.3931 -0.4346 -0.8103
vn -0.3639 -0.4487 -0.8162
vn 0.0060 -0.3447 0.9387
vn 0.0279 -0.3541 0.9348
vn 0.7354 -0.3391 -0.5867
vn 0.3053 0.8067 -0.5059
vn 0.1619 0.9293 -0.3319
vn -0.1673 0.9634 -0.2094
vn -0.1991 0.9581 -0.2059
vn -0.2352 0.9492 -0.2091
vn -0.0868 0.9705 -0.2249
vn -0.0282 0.9802 -0.1959
vn -0.0112 0.9822 -0.1872
vn -0.0950 0.9688 -0.2289
vn -0.5291 0.8443 0.0848
vn -0.2418 0.9476 -0.2088
vn -0.2661 0.9400 -0.2136
vn -0.2780 0.8440 -0.4588
vn -0.6348 0.7677 -0.0872
vn -0.6420 0.7616 -0.0884
vn -0.7206 0.6286 -0.2926
vn -0.6482 0.7582 -0.0699
vn -0.7799 0.5860 -0.2200
vn -0.6651 -0.6795 0.3096
vn -0.6526 -0.6882 0.3170
vn -0.6136 0.7861 0.0744
vn -0.5632 0.7949 0.2256
vn -0.8833 0.3774 0.2781
vn -0.9448 0.2512 0.2102
vn -0.9428 0.2522 0.2182
vn -0.9339 0.2558 0.2499
vn -0.8711 -0.4903 0.0290
vn -0.9805 -0.1343 -0.1435
vn -0.9901 0.0782 0.1165
vn -0.9894 0.0604 0.1321
vn -0.9510 0.2480 0.1844
vn 0.6322 0.5628 -0.5326
vn -0.8865 -0.4280 -0.1758
vn -0.8838 -0.3547 -0.3051
vn -0.7213 -0.3694 -0.5858
vn -0.7026 -0.3728 -0.6061
vn -0.3792 -0.6617 -0.6468
vn -0.4765 -0.4151 -0.7750
vn -0.5376 -0.3722 -0.7566
vn -0.5466 -0.4078 -0.7314
vn -0.5086 -0.3793 -0.7730
vn -0.4578 -0.3309 -0.8252
vn -0.5609 -0.3714 -0.7399
vn -0.8013 -0.1910 -0.5669
vn 0.9266 -0.3756 -0.0179
vn 0.9344 -0.3548 0.0332
vn 0.9396 -0.3416 -0.0196
vn -0.4999 -0.3653 -0.7852
vn -0.1732 -0.4858 -0.8567
vn -0.4900 -0.3591 -0.7943
vn 0.0770 0.8199 -0.5673
vn 0.0063 0.2785 -0.9604
vn -0.2190 -0.4499 -0.8658
vn -0.2147 -0.4909 -0.8444
vn -0.2221 -0.4544 -0.8627
vn 0.2025 -0.6642 -0.7196
vn 0.1860 -0.7247 -0.6635
vn 0.2012 -0.7118 -0.6730
vn 0.1931 -0.7358 -0.6491
vn -0.1924 -0.4357 -0.8793
vn 0.0799 -0.4370 -0.8959
vn 0.1856 -0.4683 -0.8639
vn 0.1743 -0.4613 -0.8699
vn 0.2652 -0.6512 -0.7110
vn 0.2713 -0.6390 -0.7197
vn 0.4289 -0.5560 -0.7120
vn 0.5382 -0.4228 -0.7291
vn 0.5621 -0.4097 -0.7185
vn 0.8266 -0.3889 -0.4068
vn 0.9123 -0.3518 -0.2098
vn 0.9341 -0.0404 -0.3547
vn 0.7743 0.3357 0.5365
vn 0.7666 0.3238 0.5545
vn 0.7639 0.3456 0.5450
vn 0.9626 -0.0338 -0.2687
vn 0.9373 -0.0924 -0.3359
vn 0.9732 0.2289 0.0230
vn -0.7995 0.4514 -0.3962
vn -0.9414 -0.3224 -0.0988
vn 0.8838 0.3470 -0.3138
vn -0.6786 0.3808 0.6281
vn -0.6432 0.0325 0.7650
vn -0.5816 0.5093 0.6344
vn 0.9102 0.4141 -0.0000
vn 0.9102 0.4129 -0.0309
vn -0.3417 0.8782 -0.3347
vn 0.1877 0.6219 -0.7602
vn 0.2064 0.9551 0.2125
vn 0.2208 0.9555 0.1956
vn -0.9832 0.1764 -0.0469
vn 0.4547 0.5803 -0.6756
vn -0.4319 0.5475 -0.7168
vn 0.3434 0.8738 -0.3443
vn -0.4527 0.6158 -0.6448
vn -0.5201 0.6652 -0.5358
vn -0.0976 0.9786 0.1812
vn -0.8115 0.3712 0.4513
vn -0.7239 0.5510 -0.4151
vn -0.6429 0.7608 -0.0886
vn -0.9711 0.0904 -0.2210
vn -0.9724 -0.0964 -0.2123
vn -0.9475 -0.1199 -0.2965
vn 0.9400 -0.3388 0.0409
vn 0.9533 -0.3019 0.0021
vn -0.5750 0.2149 -0.7894
vn -0.4845 0.0442 -0.8737
vn -0.5004 -0.3534 -0.7903
vn -0.4493 -0.0261 -0.8930
vn -0.1790 -0.4223 -0.8886
vn -0.4497 0.0651 -0.8908
vn -0.1958 -0.1092 -0.9746
vn -0.1154 -0.0547 -0.9918
vn -0.2765 -0.1642 -0.9469
vn 0.0571 -0.1556 -0.9862
vn -0.7476 0.6629 0.0400
vn -0.8804 0.4634 0.1010
vn -0.0742 -0.0268 -0.9969
vn 0.2398 -0.4725 -0.8481
vn 0.2541 -0.4649 -0.8481
vn -0.4763 0.4109 -0.7773
vn 0.1708 -0.1653 -0.9713
vn 0.2051 -0.3014 -0.9312
vn 0.3196 -0.3439 -0.8829
vn 0.3313 -0.3738 -0.8663
vn 0.3310 -0.3354 -0.8820
vn 0.3569 -0.3358 -0.8717
vn 0.3456 -0.3468 -0.8719
vn 0.3655 -0.3421 -0.8657
vn 0.3689 -0.3274 -0.8699
vn 0.5152 -0.6881 -0.5110
vn -0.9163 0.2363 -0.3233
vn 0.4797 -0.3182 -0.8177
vn 0.4589 -0.1538 -0.8751
vn 0.4997 -0.3431 -0.7953
vn 0.6360 -0.1983 -0.7458
vn 0.2756 -0.6214 0.7334
vn 0.4971 -0.3387 -0.7989
vn 0.5523 -0.2555 -0.7935
vn 0.8709 -0.2869 -0.3990
vn 0.6061 0.2642 -0.7502
vn 0.6404 0.2070 -0.7397
vn 0.6418 0.1653 -0.7488
vn 0.7105 0.2029 -0.6738
vn 0.4257 0.3765 -0.8228
vn 0.4260 -0.6674 -0.6108
vn 0.3673 -0.0971 -0.9250
vn 0.5951 0.7883 0.1567
vn 0.4909 0.8700 -0.0462
vn 0.6111 0.7897 0.0536
vn -0.0947 0.2350 -0.9674
vn -0.0951 0.2340 -0.9676
vn -0.0942 0.2361 -0.9672
vn -0.2010 0.2806 -0.9385
vn -0.2739 0.3215 -0.9064
vn -0.3888 0.4532 -0.8022
vn -0.3880 0.4541 -0.8021
vn -0.3856 0.4570 -0.8015
vn -0.3847 0.4583 -0.8012
vn -0.4378 0.5174 -0.7353
vn -0.3523 0.4463 -0.8226
vn -0.9596 0.0286 -0.2799
vn -0.2699 0.2762 -0.9224
vn -0.4587 0.4108 -0.7879
vn -0.1167 0.1801 -0.9767
vn -0.0773 0.1307 -0.9884
vn -0.0211 0.1343 -0.9907
vn 0.3817 0.7164 -0.5840
vn 0.2901 -0.4483 -0.8455
vn 0.2973 -0.4595 -0.8369
vn 0.2685 -0.2163 -0.9387
vn 0.2836 -0.2154 -0.9344
vn 0.3503 -0.1014 -0.9311
vn 0.3414 -0.6873 -0.6411
vn 0.2006 0.3625 -0.9101
vn -0.0952 0.2339 -0.9676
vn -0.1339 0.2314 -0.9636
vt 0.108272 0.631060
vt 0.000000 0.578026
vt 0.216543 0.741086
vt 0.216543 0.357574
vt 0.054136 0.520839
vt 0.132881 0.329895
vt 0.216543 0.500219
vt 0.108272 0.741086
vt 0.108272 0.552090
vt 0.135591 0.741086
vt 0.135591 0.631429
vt 0.216795 0.629999
vt 0.481540 0.654360
vt 0.410327 0.487251
vt 0.497201 0.411008
vt 0.394759 0.623616
vt 0.335668 0.549383
vt 0.311321 0.461316
vt 0.220950 0.741086
vt 0.000000 0.000000
vt 0.104912 0.382209
vt 0.381682 0.007814
vt 0.373151 0.030947
vt 0.585886 0.007814
vt 0.546673 0.068613
vt 0.688882 0.078664
vt 0.874422 0.371053
vt 0.283761 0.321822
vt 0.549401 0.256880
vt 0.403818 0.396244
vt 0.298055 0.690185
vt 0.391326 0.827952
vt 0.354600 0.457895
vt 0.450806 0.598083
vt 0.502168 0.713801
vt 0.759963 0.762328
vt 0.585506 0.424379
vt 0.603804 0.525727
vt 0.693525 0.626706
vt 0.889224 0.584166
vt 0.746439 0.395245
vt 0.682338 0.604154
vt 0.536866 0.891391
vt 0.686383 0.539393
vt 0.549859 0.705483
vt 0.521061 0.811546
vt 0.673138 0.715161
vt 0.697872 0.916409
vt 0.880903 0.830613
vt 0.668729 0.668106
vt 0.828801 0.864534
vt 0.780572 0.687653
vt 0.866769 0.782637
vt 0.833355 0.708436
vt 0.669050 0.646573
vt 0.666176 0.622539
vt 0.691237 0.634584
vt 0.675731 0.638542
vt 0.723771 0.619247
vt 0.724035 0.644926
vt 0.760897 0.675354
vt 0.746604 0.669659
vt 0.806522 0.682799
vt 0.812096 0.657391
vt 0.823991 0.702211
vt 0.742959 0.640110
vt 0.737098 0.372576
vt 0.839672 0.425468
vt 0.506849 0.414783
vt 0.585989 0.330987
vt 0.672184 0.372122
vt 0.493856 0.052711
vt 0.537488 0.127586
vt 0.778727 0.089092
vt 0.938548 0.112692
vt 0.859768 0.134637
vt 0.813070 0.295006
vt 0.154201 0.930752
vt 0.109250 0.930752
vt 0.088468 0.885826
vt 0.195425 0.889346
vt 0.207841 0.888446
vt 0.090654 0.705192
vt 0.007923 0.626575
vt 0.013201 0.615676
vt 0.162468 0.592538
vt 0.213460 0.686032
vt 0.256438 0.689463
vt 0.303916 0.717282
vt 0.304140 0.625446
vt 0.303909 0.749784
vt 0.303916 0.808890
vt 0.303916 0.907312
vt 0.303777 0.880371
vt 0.200274 0.930752
vt 0.129958 0.966465
vt 0.088738 0.993734
vt 0.047911 0.993734
vt 0.165848 0.993655
vt 0.139593 0.993734
vt 0.258528 0.976614
vt 0.192366 0.993679
vt 0.899100 0.034173
vt 0.878109 0.017136
vt 0.917715 0.044868
vt 0.864497 0.049326
vt 0.861786 0.038398
vt 0.838783 0.032330
vt 0.158872 0.068029
vt 0.121497 0.056021
vt 0.154550 0.078694
vt 0.174722 0.101243
vt 0.051226 0.049090
vt 0.023823 0.103673
vt 0.037897 0.235018
vt 0.087856 0.235488
vt 0.270567 0.765886
vt 0.399059 0.879593
vt 0.216315 0.370284
vt 0.577494 0.933175
vt 0.324689 0.118769
vt 0.268455 0.201657
vt 0.538143 0.285902
vt 0.617555 0.398236
vt 0.898853 0.968589
vt 0.947365 0.980569
vt 0.855231 0.713019
vt 0.553190 0.504817
vt 0.666138 0.539420
vt 0.695369 0.515867
vt 0.122465 0.217811
vt 0.294021 0.161014
vt 0.083619 0.138527
vt 0.055638 0.366207
vt 0.806137 0.816572
vt 0.270783 0.766159
vt 0.420643 0.883608
vt 0.086517 0.923554
vt 0.008195 0.905010
vt 0.001066 0.862910
vt 0.101877 0.861603
vt 0.137536 0.861455
vt 0.137684 0.897114
vt 0.885214 0.860858
vt 0.938696 0.901198
vt 0.861460 0.860933
vt 0.861609 0.896591
vt 0.909703 0.988657
vt 0.862916 0.997402
vt 0.857988 0.085992
vt 0.859144 0.055035
vt 0.881723 0.109221
vt 0.989143 0.095522
vt 0.996273 0.137622
vt 0.884222 0.139018
vt 0.859803 0.139078
vt 0.101877 0.139227
vt 0.089278 0.082613
vt 0.137536 0.139078
vt 0.136080 0.002609
vt 0.093308 0.010138
vt 0.137173 0.079440
vt 0.136877 0.055035
vt 0.001185 0.863730
vt 0.028220 0.862482
vt 0.056547 0.925834
vt 0.883789 0.996622
vt 0.862295 0.957461
vt 0.906686 0.928246
vt 0.972722 0.939970
vt 0.991700 0.901720
vt 0.957654 0.860116
vt 0.996158 0.136783
vt 0.956331 0.138243
vt 0.945868 0.073815
vt 0.968818 0.057131
vt 0.899814 0.008701
vt 0.861774 0.037123
vt 0.132144 0.004968
vt 0.136509 0.029763
vt 0.035167 0.105861
vt 0.056144 0.029528
vt 0.025991 0.060646
vt 0.007296 0.098291
vt 0.028220 0.140105
vt 0.449051 0.543327
vt 0.903329 0.204999
vt 0.975151 0.344739
vt 0.205391 0.096135
vt 0.095067 0.206881
vt 0.024701 0.655042
vt 0.000137 0.500677
vt 0.551175 0.482084
vt 0.346041 0.975746
vt 0.206538 0.904901
vt 0.904822 0.793270
vt 0.975630 0.653768
vt 0.653626 0.024220
vt 0.793125 0.095019
vt 0.024361 0.346289
vt 0.138037 0.933223
vt 0.062832 0.897402
vt 0.137673 0.908449
vt 0.861961 0.932701
vt 0.861705 0.908545
vt 0.922914 0.940765
vt 0.942853 0.970483
vt 0.905016 0.990273
vt 0.999372 0.886567
vt 0.957658 0.860084
vt 0.996011 0.136741
vt 0.911356 0.089953
vt 0.968782 0.057140
vt 0.898845 0.008489
vt 0.858968 0.042550
vt 0.113782 0.139154
vt 0.089924 0.139322
vt 0.096206 0.103738
vt 0.136701 0.042550
vt 0.093980 0.009738
vt 0.091987 0.138927
vt 0.053492 0.139737
vt 0.084502 0.079892
vt 0.931993 0.138575
vt 0.907415 0.138834
vt 0.900123 0.076004
vt 0.053492 0.862114
vt 0.089924 0.861699
vt 0.084693 0.944829
vt 0.097561 0.991826
vt 0.138563 0.970771
vt 0.909072 0.860689
vt 0.933228 0.860432
vt 0.944240 0.899694
vt 0.905824 0.989931
vt 0.862487 0.970248
vt 0.999863 0.499214
vt 0.460820 0.543048
vt 0.024307 0.347063
vt 0.495312 0.498449
vt 0.095780 0.794373
vt 0.939928 0.021615
vt 0.918722 0.039023
vt 0.914730 0.006878
vt 0.896430 0.003298
vt 0.878018 0.004360
vt 0.875828 0.215378
vt 0.878638 0.223618
vt 0.808728 0.200883
vt 0.958750 0.193618
vt 0.972319 0.194070
vt 0.941934 0.211259
vt 0.613114 0.044015
vt 0.643329 0.036589
vt 0.710169 0.070550
vt 0.520780 0.220468
vt 0.538200 0.219108
vt 0.568237 0.219507
vt 0.526291 0.214185
vt 0.538218 0.217289
vt 0.515370 0.217289
vt 0.101000 0.003969
vt 0.119570 0.004579
vt 0.070201 0.045464
vt 0.063169 0.212369
vt 0.030560 0.195394
vt 0.044470 0.194638
vt 0.087520 0.212698
vt 0.073018 0.206598
vt 0.501739 0.010928
vt 0.427022 0.031663
vt 0.471260 0.012140
vt 0.437020 0.216120
vt 0.438068 0.216560
vt 0.433664 0.215155
vt 0.473809 0.217289
vt 0.457940 0.217289
vt 0.466903 0.213973
vt 0.913188 0.321826
vt 0.915300 0.322012
vt 0.914390 0.325105
vt 0.933045 0.340824
vt 0.920454 0.323711
vt 0.944586 0.343374
vt 0.961389 0.296828
vt 0.980154 0.305631
vt 0.973341 0.314180
vt 0.067970 0.908649
vt 0.076898 0.914120
vt 0.068659 0.915728
vt 0.121886 0.900019
vt 0.241121 0.871503
vt 0.250306 0.899420
vt 0.150309 0.864798
vt 0.174777 0.781873
vt 0.140452 0.821962
vt 0.303021 0.792366
vt 0.326377 0.743308
vt 0.126942 0.728164
vt 0.226684 0.693436
vt 0.103896 0.697446
vt 0.062225 0.748240
vt 0.066504 0.829062
vt 0.048784 0.853017
vt 0.078432 0.858752
vt 0.074528 0.851700
vt 0.038538 0.827588
vt 0.039859 0.834860
vt 0.037650 0.819199
vt 0.023338 0.829460
vt 0.024660 0.836830
vt 0.026410 0.843460
vt 0.022590 0.820670
vt 0.010660 0.831399
vt 0.009828 0.821780
vt 0.012020 0.838530
vt 0.010568 0.812179
vt 0.013694 0.845032
vt 0.022709 0.811389
vt 0.011168 0.802708
vt 0.035860 0.862002
vt 0.022988 0.801930
vt 0.011370 0.792370
vt 0.031050 0.869189
vt 0.049780 0.860939
vt 0.060940 0.853060
vt 0.040860 0.868619
vt 0.036129 0.876240
vt 0.044989 0.876450
vt 0.037739 0.886150
vt 0.053300 0.868030
vt 0.063299 0.859950
vt 0.065820 0.867380
vt 0.046378 0.885838
vt 0.037349 0.896148
vt 0.056034 0.720851
vt 0.022980 0.792078
vt 0.022690 0.782158
vt 0.055601 0.707468
vt 0.079620 0.718069
vt 0.059738 0.700658
vt 0.094755 0.678955
vt 0.085868 0.686909
vt 0.075038 0.676989
vt 0.064158 0.683990
vt 0.064360 0.675239
vt 0.084468 0.670638
vt 0.083930 0.663268
vt 0.083597 0.639809
vt 0.188284 0.657701
vt 0.380370 0.703129
vt 0.410608 0.761745
vt 0.509827 0.732288
vt 0.424818 0.681242
vt 0.390145 0.686470
vt 0.412348 0.685549
vt 0.399731 0.682553
vt 0.369860 0.683944
vt 0.314233 0.689877
vt 0.213121 0.671334
vt 0.299035 0.685769
vt 0.246399 0.675670
vt 0.250429 0.675740
vt 0.200429 0.616419
vt 0.209220 0.642889
vt 0.118000 0.592283
vt 0.196834 0.602325
vt 0.203592 0.602596
vt 0.209748 0.602900
vt 0.115800 0.586768
vt 0.125070 0.589800
vt 0.084290 0.583516
vt 0.105659 0.583350
vt 0.085996 0.594279
vt 0.080219 0.591610
vt 0.078418 0.596130
vt 0.083489 0.598640
vt 0.076600 0.601000
vt 0.087771 0.607192
vt 0.073458 0.609408
vt 0.067409 0.619530
vt 0.084218 0.630849
vt 0.062940 0.626730
vt 0.068400 0.629390
vt 0.071970 0.639069
vt 0.064158 0.636138
vt 0.057489 0.633870
vt 0.069140 0.645569
vt 0.060270 0.643158
vt 0.052609 0.641480
vt 0.056889 0.650399
vt 0.066890 0.652440
vt 0.075120 0.661539
vt 0.065350 0.659600
vt 0.058129 0.910179
vt 0.244168 0.906808
vt 0.240810 0.906250
vt 0.249708 0.903828
vt 0.266234 0.900905
vt 0.255710 0.902019
vt 0.236919 0.906040
vt 0.379260 0.905119
vt 0.376454 0.907914
vt 0.358945 0.906480
vt 0.205280 0.945658
vt 0.202590 0.954410
vt 0.193936 0.963994
vt 0.259750 0.678300
vt 0.253690 0.675650
vt 0.388299 0.683954
vt 0.209020 0.607168
vt 0.915678 0.955209
vt 0.924734 0.920353
vt 0.931230 0.948230
vt 0.688288 0.850929
vt 0.740768 0.846939
vt 0.707970 0.858439
vt 0.870793 0.939149
vt 0.824778 0.929068
vt 0.820438 0.926060
vt 0.758889 0.844668
vt 0.747290 0.852078
vt 0.868200 0.233850
vt 0.863510 0.243478
vt 0.774306 0.406442
vt 0.853129 0.284949
vt 0.676862 0.180717
vt 0.880431 0.414753
vt 0.892158 0.428820
vt 0.911870 0.459699
vt 0.914448 0.441020
vt 0.802726 0.562398
vt 0.759010 0.590560
vt 0.751195 0.606518
vt 0.584840 0.611327
vt 0.607286 0.650798
vt 0.539630 0.686449
vt 0.413500 0.679880
vt 0.356756 0.586983
vt 0.433693 0.603540
vt 0.374045 0.667475
vt 0.365064 0.456729
vt 0.228302 0.579920
vt 0.144998 0.450865
vt 0.085170 0.435849
vt 0.086879 0.454180
vt 0.094750 0.429100
vt 0.146320 0.333710
vt 0.184704 0.216683
vt 0.294791 0.388382
vt 0.135848 0.243009
vt 0.143170 0.258264
vt 0.123423 0.218531
vt 0.126598 0.209950
vt 0.262564 0.184466
vt 0.421382 0.130458
vt 0.294039 0.067529
vt 0.255580 0.085050
vt 0.360980 0.034480
vt 0.387452 0.369658
vt 0.482880 0.317269
vt 0.426153 0.420970
vt 0.491805 0.297425
vt 0.539374 0.322254
vt 0.520679 0.312607
vt 0.490948 0.237845
vt 0.549465 0.282034
vt 0.503089 0.436212
vt 0.410160 0.405570
vt 0.392030 0.402399
vt 0.423923 0.409320
vt 0.382160 0.400469
vt 0.363640 0.401039
vt 0.372856 0.400649
vt 0.343196 0.408885
vt 0.335308 0.419351
vt 0.358269 0.411049
vt 0.350474 0.410688
vt 0.396377 0.409778
vt 0.404621 0.410450
vt 0.412759 0.410959
vt 0.617302 0.458846
vt 0.683443 0.395151
vt 0.528697 0.099356
vt 0.532296 0.195386
vt 0.585398 0.210620
vt 0.575030 0.212108
vt 0.639839 0.385906
vt 0.676959 0.397133
vt 0.533911 0.418109
vt 0.576630 0.408255
vt 0.620079 0.388429
vt 0.606378 0.401354
vt 0.615530 0.401850
vt 0.580949 0.408114
vt 0.597320 0.403337
vt 0.575480 0.411576
vt 0.577340 0.410225
vt 0.575416 0.413078
vt 0.585769 0.413726
vt 0.592741 0.417126
vt 0.594403 0.413581
vt 0.602923 0.412650
vt 0.611940 0.411989
vt 0.646438 0.414920
vt 0.661808 0.409958
vt 0.657706 0.406235
vt 0.642620 0.401286
vt 0.634554 0.400348
vt 0.625230 0.401100
vt 0.654047 0.414294
vt 0.617669 0.430326
vt 0.647140 0.412952
vt 0.654821 0.412382
vt 0.639524 0.412778
vt 0.970489 0.077710
vt 0.973435 0.060090
vt 0.910297 0.061281
vt 0.975443 0.164414
vt 0.993639 0.108474
vt 0.942578 0.161160
vt 0.918055 0.205676
vt 0.886615 0.180034
vt 0.883936 0.115645
vt 0.842580 0.145318
vt 0.889509 0.194600
vt 0.871420 0.182199
vt 0.901068 0.203020
vt 0.861338 0.016380
vt 0.864189 0.007980
vt 0.491996 0.226399
vt 0.504090 0.220770
vt 0.568418 0.214478
vt 0.570159 0.209389
vt 0.488380 0.217289
vt 0.442612 0.206895
vt 0.930493 0.278129
vt 0.934125 0.293743
vt 0.915614 0.308044
vt 0.926414 0.264113
vt 0.885883 0.256240
vt 0.906614 0.252983
vt 0.915716 0.310930
vt 0.925104 0.302647
vt 0.866906 0.295625
vt 0.862893 0.286535
vt 0.863774 0.273189
vt 0.876598 0.259381
vt 0.885637 0.254584
vt 0.895966 0.252531
vt 0.024615 0.153554
vt 0.049168 0.170373
vt 0.099977 0.194725
vt 0.057000 0.203198
vt 0.087678 0.207210
vt 0.074552 0.091684
vt 0.005710 0.113304
vt 0.103050 0.202910
vt 0.119442 0.038953
vt 0.160469 0.140828
vt 0.154670 0.035700
vt 0.140478 0.021758
vt 0.137130 0.014418
vt 0.929847 0.320980
vt 0.927338 0.323805
vt 0.919726 0.319339
vt 0.929503 0.326797
vt 0.918447 0.316219
vt 0.931829 0.305860
vt 0.951470 0.296965
vt 0.995000 0.322970
vt 0.993411 0.317179
vt 0.989947 0.339161
vt 0.983090 0.347205
vt 0.977831 0.340342
vt 0.988821 0.338203
vt 0.994174 0.330224
vt 0.952505 0.356919
vt 0.941942 0.349811
vt 0.918762 0.325837
vt 0.916395 0.324030
vt 0.088276 0.891029
vt 0.057339 0.894079
vt 0.077898 0.900438
vt 0.068098 0.892880
vt 0.098554 0.951042
vt 0.080056 0.925991
vt 0.076999 0.907298
vt 0.077480 0.920360
vt 0.080957 0.931855
vt 0.070018 0.922360
vt 0.072048 0.928578
vt 0.074478 0.934480
vt 0.064668 0.931200
vt 0.052600 0.926568
vt 0.056710 0.933780
vt 0.049929 0.935769
vt 0.055259 0.943158
vt 0.060988 0.940800
vt 0.067869 0.937650
vt 0.077030 0.940100
vt 0.067269 0.953759
vt 0.060117 0.952084
vt 0.070710 0.943870
vt 0.091792 0.981303
vt 0.077583 0.977920
vt 0.079998 0.982400
vt 0.074368 0.984610
vt 0.082730 0.986379
vt 0.076480 0.988420
vt 0.104919 0.983340
vt 0.089079 0.992708
vt 0.117480 0.984399
vt 0.108488 0.987020
vt 0.137187 0.963595
vt 0.164356 0.958513
vt 0.189419 0.974749
vt 0.195778 0.974609
vt 0.200650 0.965578
vt 0.185828 0.928489
vt 0.200230 0.934560
vt 0.193858 0.923600
vt 0.057470 0.902440
vt 0.046390 0.903819
vt 0.037691 0.912670
vt 0.049339 0.919160
vt 0.046339 0.895308
vt 0.036910 0.904770
vt 0.317475 0.897015
vt 0.360965 0.902174
vt 0.388751 0.836051
vt 0.440461 0.879549
vt 0.425972 0.780611
vt 0.494523 0.837608
vt 0.531031 0.763044
vt 0.584422 0.793397
vt 0.591629 0.733349
vt 0.620194 0.760445
vt 0.629208 0.774460
vt 0.633609 0.820295
vt 0.626820 0.835020
vt 0.507408 0.867194
vt 0.616625 0.848243
vt 0.537295 0.892075
vt 0.554920 0.886919
vt 0.438336 0.905088
vt 0.401679 0.907480
vt 0.388550 0.909349
vt 0.508584 0.897874
vt 0.074900 0.668980
vt 0.064548 0.667128
vt 0.041710 0.705479
vt 0.034183 0.716715
vt 0.030841 0.703150
vt 0.066248 0.715860
vt 0.052239 0.691919
vt 0.053320 0.682690
vt 0.053399 0.673529
vt 0.037918 0.698180
vt 0.043639 0.691748
vt 0.044550 0.681980
vt 0.044500 0.672339
vt 0.053330 0.665269
vt 0.043600 0.663918
vt 0.054480 0.657679
vt 0.213770 0.631690
vt 0.210690 0.622650
vt 0.843490 0.945218
vt 0.819608 0.920300
vt 0.818660 0.924978
vt 0.822761 0.865372
vt 0.813642 0.911236
vt 0.891592 0.919565
vt 0.964178 0.923340
vt 0.961418 0.919640
vt 0.963030 0.918770
vt 0.946693 0.816795
vt 0.982437 0.818646
vt 0.859922 0.763375
vt 0.907170 0.704816
vt 0.973828 0.781449
vt 0.945500 0.707830
vt 0.936070 0.689540
vt 0.882155 0.662159
vt 0.864119 0.669960
vt 0.862280 0.717229
vt 0.843770 0.690069
vt 0.807120 0.782459
vt 0.739234 0.805840
vt 0.692161 0.807120
vt 0.662338 0.825568
vt 0.659650 0.829890
vt 0.711281 0.699447
vt 0.646855 0.777874
vt 0.680394 0.684004
vt 0.690755 0.674495
vt 0.727595 0.666694
vt 0.739989 0.665405
vt 0.783012 0.696614
vt 0.769292 0.788020
vt 0.779860 0.827269
vt 0.779358 0.831210
vt 0.300396 0.337853
vt 0.216543 0.526154
vt 0.220950 0.549179
vt 0.235354 0.482142
vt 0.216543 0.474283
vt 0.118159 0.318950
vt 0.135339 0.524025
vt 0.506430 0.741086
vt 0.416058 0.622897
vt 0.538873 0.521206
vt 0.596802 0.565058
vt 0.596802 0.600237
vt 0.317318 0.638336
vt 0.216543 0.629896
vt 0.109652 0.526978
vt 0.483837 0.741086
vt 0.517051 0.387884
vt 0.220950 0.474285
vt 0.316393 0.356483
vt 0.156160 0.424979
vt 0.216543 0.553345
vt 0.128411 0.329659
vt 0.000000 0.474283
vt 0.216543 0.526155
vt 0.000000 0.741086
vt 0.343330 0.194165
vt 0.418466 0.626826
vt 0.401693 0.260317
vt 0.401693 0.692980
vt 0.137187 0.280193
vt 0.000000 0.448348
vt 0.162407 0.693837
vt 0.108272 0.422413
vt 0.400131 0.603961
vt 0.505760 0.741086
s 1
f 11/1/1 10/2/2 12/3/3
f 20/4/4 21/5/5 22/6/6
f 46/7/7 45/8/8 44/9/9
f 65/10/10 64/11/11 66/12/12
f 81/13/13 79/14/14 80/15/15
f 87/16/16 85/17/17 84/18/18
f 86/19/19 84/18/18 85/17/17
f 85/17/17 87/16/16 86/19/19
f 48/20/20 47/20/20 3/20/20 58/20/20
f 119/21/21 120/22/22 127/23/23
f 122/24/24 127/23/23 120/22/22
f 127/23/23 122/24/24 121/25/25
f 123/26/26 121/25/25 122/24/24
f 122/24/24 139/27/27 123/26/26
f 121/25/25 123/26/26 139/27/27
f 121/25/25 125/28/28 127/23/23
f 125/28/28 121/25/25 124/29/29
f 119/21/21 127/23/23 125/28/28
f 126/30/30 125/28/28 124/29/29
f 125/28/28 130/31/31 119/21/21
f 119/21/21 130/31/31 129/32/32
f 128/33/33 130/31/31 125/28/28
f 128/33/33 125/28/28 126/30/30
f 131/34/34 130/31/31 128/33/33
f 130/31/31 133/35/35 129/32/32
f 128/33/33 126/30/30 131/34/34
f 131/34/34 133/35/35 130/31/31
f 133/35/35 132/36/36 129/32/32
f 134/37/37 131/34/34 126/30/30
f 135/38/38 131/34/34 134/37/37
f 134/37/37 126/30/30 124/29/29
f 135/38/38 136/39/39 131/34/34
f 133/35/35 131/34/34 136/39/39
f 133/35/35 136/39/39 132/36/36
f 138/40/40 132/36/36 136/39/39
f 135/38/38 134/37/37 137/41/41
f 137/41/41 136/39/39 135/38/38
f 134/37/37 124/29/29 137/41/41
f 137/41/41 124/29/29 121/25/25
f 121/25/25 139/27/27 137/41/41
f 138/40/40 137/41/41 139/27/27
f 138/40/40 136/39/39 137/41/41
f 138/40/40 139/27/27 132/36/36
f 164/42/42 144/43/43 145/44/44
f 146/45/45 144/43/43 164/42/42
f 146/45/45 147/46/46 144/43/43
f 144/43/43 147/46/46 149/47/47
f 148/48/48 144/43/43 149/47/47
f 144/43/43 148/48/48 141/49/49
f 149/47/47 141/49/49 148/48/48
f 149/47/47 147/46/46 155/50/50
f 141/49/49 149/47/47 150/51/51
f 150/51/51 152/52/52 163/53/53
f 163/53/53 152/52/52 151/54/54
f 150/51/51 149/47/47 152/52/52
f 146/45/45 153/55/55 155/50/50
f 156/56/56 146/45/45 164/42/42
f 164/42/42 143/57/57 156/56/56
f 156/56/56 143/57/57 154/58/58
f 146/45/45 156/56/56 153/55/55
f 153/55/55 156/56/56 154/58/58
f 155/50/50 153/55/55 143/57/57
f 154/58/58 143/57/57 153/55/55
f 140/59/59 155/50/50 143/57/57
f 157/60/60 155/50/50 140/59/59
f 157/60/60 149/47/47 155/50/50
f 157/60/60 159/61/61 149/47/47
f 158/62/62 159/61/61 157/60/60
f 149/47/47 159/61/61 152/52/52
f 162/63/63 152/52/52 161/64/64
f 162/63/63 151/54/54 152/52/52
f 151/54/65 162/63/66 160/65/67
f 165/66/68 152/52/52 159/61/61
f 165/66/68 159/61/61 158/62/62
f 162/63/63 161/64/64 151/54/54
f 165/66/68 161/64/64 152/52/52
f 141/49/49 163/53/53 161/64/64
f 145/44/44 141/49/49 161/64/64
f 145/44/44 161/64/64 164/42/42
f 141/49/49 150/51/51 163/53/53
f 163/53/53 151/54/54 161/64/64
f 155/50/50 147/46/46 146/45/45
f 143/57/57 164/42/42 140/59/59
f 157/60/60 140/59/59 164/42/42
f 164/42/42 161/64/64 157/60/60
f 157/60/60 161/64/64 165/66/68
f 157/60/60 165/66/68 158/62/62
f 142/67/69 166/68/70 168/69/71
f 167/70/72 173/71/73 142/67/69
f 168/69/71 167/70/72 142/67/69
f 168/69/71 169/72/74 167/70/72
f 169/72/74 172/73/75 167/70/72
f 169/72/74 187/74/76 172/73/75
f 169/72/74 170/75/77 187/74/76
f 170/75/77 188/76/78 187/74/76
f 170/75/77 166/68/70 188/76/78
f 171/77/79 188/76/78 166/68/70
f 142/67/69 171/77/79 166/68/70
f 142/67/69 173/71/73 171/77/79
f 187/74/76 171/77/79 173/71/73
f 172/73/75 187/74/76 173/71/73
f 171/77/79 187/74/76 188/76/78
f 167/70/72 172/73/75 173/71/73
f 176/78/80 175/79/81 174/80/82
f 176/78/80 174/80/82 184/81/83
f 184/81/83 181/82/84 176/78/80
f 184/81/83 174/80/82 177/83/85
f 175/84/81 177/83/85 174/80/82
f 177/83/85 175/85/81 179/86/86
f 179/86/86 178/87/87 177/83/85
f 177/83/85 178/87/87 184/81/83
f 178/87/87 180/88/88 184/81/83
f 180/88/88 182/89/89 181/82/84
f 178/87/87 182/90/89 180/88/88
f 178/87/87 179/86/86 182/90/89
f 181/82/84 182/91/89 183/92/90
f 184/81/83 180/88/88 181/82/84
f 175/93/81 181/82/84 183/94/90
f 175/95/81 176/78/80 181/82/84
f 185/96/91 183/97/90 182/98/89
f 175/99/81 183/100/90 185/96/91
f 186/101/92 175/102/81 185/96/91
f 190/103/93 191/104/94 189/105/95
f 193/106/96 190/103/93 189/105/95
f 193/106/96 191/104/94 190/103/93
f 192/107/97 191/104/94 193/106/96
f 194/108/98 192/107/97 193/106/96
f 191/104/94 192/107/97 194/108/98
f 197/109/99 195/110/100 196/111/101
f 198/112/102 196/111/101 195/110/100
f 198/112/102 197/109/99 196/111/101
f 206/113/103 200/114/104 199/115/105
f 199/115/105 201/116/106 206/113/103
f 201/116/106 199/115/105 202/117/107
f 203/118/108 201/116/106 202/117/107
f 204/119/109 206/113/103 201/116/106
f 201/116/106 203/118/108 204/119/109
f 204/119/109 203/118/108 205/120/110
f 208/121/111 206/113/112 207/122/113
f 208/121/111 207/122/113 204/119/114
f 210/123/115 204/119/116 209/124/115
f 205/125/110 211/126/117 204/119/109
f 214/127/118 213/128/119 212/129/120
f 212/129/120 215/130/121 214/127/118
f 219/131/122 212/129/120 213/128/119
f 217/132/123 212/129/120 219/131/122
f 215/130/121 212/129/120 217/132/123
f 217/132/123 216/121/124 215/130/121
f 216/121/124 217/132/123 219/131/122
f 218/133/125 219/131/122 213/128/119
f 220/134/126 219/131/122 218/133/125
f 213/128/119 223/135/127 218/133/125
f 218/133/125 223/135/127 220/134/126
f 220/134/126 223/135/127 221/136/128
f 221/136/128 223/135/127 222/137/129
f 222/137/129 223/135/127 213/128/119
f 214/127/118 222/137/129 213/128/119
f 224/138/130 225/139/131 226/140/132
f 226/141/132 227/142/133 224/138/130
f 227/142/133 225/143/131 224/138/130
f 229/144/134 228/145/135 227/146/133
f 227/146/133 228/145/135 225/147/131
f 228/145/135 229/148/134 225/149/131
f 227/150/133 230/151/136 231/152/137
f 231/152/137 230/153/136 229/154/134
f 231/152/137 229/155/134 227/156/133
f 226/157/132 232/158/138 227/159/133
f 230/160/136 232/158/138 226/161/132
f 227/162/133 232/158/138 230/163/136
f 234/164/139 233/165/139 235/166/139
f 234/167/140 233/168/141 236/169/142
f 234/170/140 236/169/142 237/171/143
f 237/171/143 236/169/142 233/172/141
f 237/173/143 233/174/141 238/175/144
f 237/153/143 238/175/144 239/176/145
f 239/177/145 238/175/144 233/178/141
f 239/179/145 233/180/141 240/181/146
f 239/182/145 240/181/146 234/183/140
f 234/184/140 240/181/146 233/185/141
f 241/186/147 239/187/145 234/188/140
f 239/189/145 241/186/147 237/190/143
f 241/186/147 234/191/140 237/192/143
f 242/193/148 225/194/131 229/195/134
f 225/196/131 242/193/148 226/197/132
f 230/198/136 226/199/132 242/193/148
f 230/190/136 242/193/148 229/200/134
f 244/201/149 245/202/149 243/203/149
f 244/204/150 243/205/151 246/206/152
f 246/206/152 247/207/153 244/208/150
f 247/209/153 246/206/152 243/210/151
f 247/211/153 243/174/151 248/212/154
f 248/212/154 249/213/155 247/153/153
f 249/214/155 248/212/154 243/215/151
f 243/216/151 244/217/150 250/218/156
f 249/160/155 243/219/151 250/218/156
f 250/218/156 244/220/150 249/160/155
f 251/221/157 252/222/157 253/223/158
f 255/224/159 251/225/159 254/226/160
f 252/227/161 251/228/162 256/229/163
f 257/143/164 256/229/163 251/142/162
f 252/230/161 256/229/163 257/231/164
f 251/232/162 255/233/165 258/234/166
f 251/146/162 258/234/166 257/147/164
f 258/234/166 255/235/165 252/149/161
f 252/149/161 257/236/164 258/234/166
f 252/237/161 259/238/167 251/188/168
f 255/195/165 259/238/167 252/194/161
f 259/238/167 255/239/165 251/190/168
f 249/198/155 244/199/150 260/240/169
f 260/240/169 247/190/153 249/189/155
f 247/241/153 260/240/169 244/195/150
f 262/242/170 422/243/171 261/244/172
f 261/245/172 422/243/171 263/246/173
f 265/247/174 264/248/175 373/249/176
f 267/250/177 262/251/170 266/252/178
f 403/253/179 268/254/180 265/255/174
f 270/256/181 269/257/182 432/258/183
f 434/259/184 269/260/182 271/261/185
f 273/262/186 272/263/187 445/264/188
f 275/265/189 273/266/186 274/267/190
f 277/268/191 275/265/189 276/269/192
f 268/270/180 386/271/193 278/272/194
f 279/273/195 270/274/181 438/275/196
f 271/276/185 279/277/195 436/278/197
f 280/279/198 211/280/199 205/281/200
f 205/282/201 450/283/202 281/284/203
f 210/285/204 208/286/205 454/287/206
f 284/288/207 283/289/208 282/290/209
f 459/291/210 496/292/211 285/293/212
f 459/291/210 286/294/213 496/292/211
f 286/294/213 289/295/214 496/292/211
f 286/294/213 287/296/215 289/295/214
f 288/297/216 289/295/214 337/298/217
f 289/295/214 287/296/215 291/299/218
f 336/300/219 289/295/214 291/299/218
f 290/301/220 291/299/218 326/302/221
f 326/302/221 291/299/218 287/296/215
f 287/296/215 292/303/222 326/302/221
f 292/303/222 287/296/215 310/304/223
f 310/304/223 287/296/215 456/305/224
f 293/306/225 310/304/223 456/305/224
f 295/307/226 292/303/222 294/308/227
f 296/309/228 292/303/222 295/307/226
f 297/310/229 295/307/226 294/308/227
f 294/308/227 292/303/222 298/311/230
f 297/310/229 294/308/227 298/311/230
f 292/303/222 310/304/223 299/312/231
f 292/303/222 299/312/231 298/311/230
f 296/309/228 295/307/226 300/313/232
f 300/313/232 295/307/226 297/310/229
f 297/310/229 298/311/230 301/314/233
f 302/315/234 297/310/229 301/314/233
f 300/313/232 297/310/229 302/315/234
f 303/316/235 301/314/233 298/311/230
f 303/316/235 298/311/230 299/312/231
f 304/317/236 300/313/232 302/315/234
f 303/316/235 299/312/231 305/318/237
f 306/319/238 300/313/232 304/317/236
f 306/319/238 296/309/228 300/313/232
f 307/320/239 306/319/238 304/317/236
f 311/321/240 305/318/237 299/312/231
f 299/312/231 310/304/223 311/321/240
f 292/303/222 296/309/228 306/319/238
f 308/322/241 306/319/238 307/320/239
f 308/322/241 292/303/222 306/319/238
f 308/322/241 307/320/239 309/323/242
f 305/318/237 311/321/240 312/324/243
f 310/304/223 313/325/244 311/321/240
f 293/326/225 313/325/244 310/304/223
f 311/321/240 314/327/245 312/324/243
f 311/321/240 313/325/244 314/327/245
f 312/324/243 314/327/245 315/328/246
f 316/329/247 315/328/246 314/327/245
f 315/328/246 316/329/247 317/330/248
f 313/325/244 318/331/249 314/327/245
f 314/327/245 318/331/249 316/329/247
f 313/325/244 319/332/250 318/331/249
f 293/326/225 319/332/250 313/325/244
f 319/332/250 320/333/251 318/331/249
f 318/331/249 320/333/251 316/329/247
f 321/334/252 317/330/248 316/329/247
f 317/330/248 321/334/252 322/335/253
f 326/302/221 292/303/222 325/336/254
f 325/336/254 292/303/222 323/337/255
f 323/337/255 292/303/222 308/322/241
f 309/323/242 323/337/255 308/322/241
f 324/338/256 323/337/255 309/323/242
f 325/336/254 323/337/255 324/338/256
f 326/302/221 325/336/254 290/301/220
f 325/336/254 329/339/257 290/301/220
f 329/339/257 325/336/254 327/340/258
f 291/299/218 290/301/220 336/300/219
f 328/341/259 290/301/220 329/339/257
f 331/342/260 290/301/220 330/343/261
f 332/344/262 331/342/260 330/343/261
f 330/343/261 290/301/220 333/345/263
f 330/343/261 333/345/263 332/346/262
f 331/342/260 332/344/262 334/347/264
f 335/348/265 331/342/260 334/347/264
f 290/301/220 362/349/266 336/300/219
f 336/300/219 362/349/266 346/350/267
f 289/295/214 336/300/219 337/298/217
f 341/351/268 338/352/269 337/298/217
f 338/352/269 288/297/216 337/298/217
f 338/352/269 341/351/268 499/353/270
f 339/354/271 499/353/270 341/351/268
f 341/351/268 340/355/272 339/356/271
f 340/355/272 275/357/189 339/356/271
f 341/351/268 273/358/186 340/355/272
f 273/358/186 341/351/268 342/359/273
f 342/359/273 341/351/268 337/298/217
f 336/300/219 342/359/273 337/298/217
f 336/300/219 344/360/274 342/359/273
f 344/360/274 273/361/186 342/359/273
f 344/360/274 343/362/275 272/363/187
f 346/350/267 344/360/274 336/300/219
f 344/360/274 346/350/267 345/364/276
f 345/364/276 343/365/275 344/360/274
f 362/349/266 345/364/276 346/350/267
f 362/349/266 355/366/277 345/364/276
f 345/364/276 355/366/277 347/367/278
f 345/364/276 347/368/278 268/369/180
f 355/366/277 348/370/279 347/371/278
f 355/366/277 349/372/280 348/373/279
f 349/372/280 351/374/281 350/375/282
f 351/374/281 349/372/280 355/366/277
f 350/375/282 351/374/281 352/376/283
f 353/377/284 352/376/283 351/374/281
f 352/376/283 353/377/284 354/378/285
f 353/377/284 351/374/281 355/366/277
f 353/377/284 355/366/277 354/378/285
f 356/379/286 354/378/285 355/366/277
f 356/379/286 357/380/287 354/378/285
f 362/349/266 356/379/286 355/366/277
f 357/380/287 356/379/286 358/381/288
f 361/382/289 358/381/288 356/379/286
f 359/383/290 358/381/288 361/382/289
f 361/382/289 356/379/286 362/349/266
f 360/384/291 359/383/290 361/382/289
f 360/384/291 361/382/289 362/349/266
f 363/385/292 360/384/291 362/349/266
f 363/385/292 364/386/293 360/384/291
f 359/383/290 360/384/291 364/386/293
f 364/386/293 365/387/294 359/383/290
f 362/349/266 290/301/220 331/342/260
f 362/349/266 366/388/295 363/385/292
f 364/386/293 363/385/292 366/388/295
f 366/388/295 362/349/266 331/342/260
f 365/387/294 364/386/293 367/389/296
f 366/388/295 367/389/296 364/386/293
f 367/389/296 368/390/297 365/387/294
f 368/390/297 367/389/296 369/391/298
f 331/342/260 370/392/299 366/388/295
f 367/389/296 366/388/295 370/392/299
f 370/392/299 369/391/298 367/389/296
f 370/392/299 331/342/260 335/393/265
f 369/391/298 370/392/299 335/394/265
f 284/288/207 282/290/209 371/395/300
f 263/396/173 264/397/175 285/293/212
f 285/293/212 261/398/172 263/396/173
f 262/399/170 261/400/172 285/293/212
f 285/293/212 264/397/175 265/401/174
f 372/402/301 266/403/178 262/404/170
f 265/405/174 268/406/180 486/407/302
f 273/408/186 344/360/274 272/409/187
f 275/410/189 340/355/272 273/358/186
f 268/369/180 278/411/194 345/364/276
f 270/412/181 521/413/303 269/414/182
f 269/415/182 534/416/304 271/417/185
f 520/418/305 270/419/181 279/420/195
f 534/416/304 279/421/195 271/422/185
f 264/423/175 374/424/306 373/249/176
f 375/425/307 373/249/176 374/426/306
f 373/249/176 375/425/307 404/427/308
f 375/425/307 374/428/306 266/429/178
f 376/430/309 375/425/307 266/431/178
f 375/425/307 376/432/309 377/433/310
f 377/434/310 402/435/311 375/425/307
f 377/436/310 378/437/312 402/435/311
f 378/438/312 380/439/313 402/435/311
f 379/440/314 402/435/311 380/439/313
f 378/438/312 339/441/271 380/439/313
f 401/442/315 380/439/313 339/443/271
f 381/444/316 401/442/315 339/443/271
f 275/445/189 381/444/316 339/446/271
f 275/445/189 277/447/191 381/444/316
f 381/444/316 277/448/191 384/449/317
f 381/444/316 384/449/317 382/450/318
f 272/451/187 384/449/317 277/452/191
f 384/449/317 272/453/187 343/454/275
f 384/449/317 383/455/319 382/450/318
f 406/456/320 382/450/318 383/455/319
f 383/455/319 384/449/317 385/457/321
f 385/457/321 384/449/317 343/458/275
f 385/457/321 386/271/193 383/455/319
f 385/457/321 278/459/194 386/271/193
f 386/271/193 406/456/320 383/455/319
f 387/460/322 382/450/318 388/461/323
f 399/462/324 387/460/322 388/461/323
f 389/463/325 388/461/323 382/450/318
f 391/464/326 389/463/327 390/465/328
f 389/463/325 391/464/329 388/461/323
f 431/466/330 392/467/331 389/463/325
f 389/463/325 392/467/331 391/464/329
f 388/461/323 391/464/329 400/468/332
f 400/468/332 391/464/329 392/467/331
f 399/462/324 388/461/323 400/468/332
f 387/460/322 393/469/333 394/470/334
f 399/462/324 393/471/333 387/460/322
f 387/460/322 394/470/334 395/472/335
f 396/473/336 387/460/322 395/474/335
f 387/460/322 396/475/336 382/450/318
f 382/450/318 396/475/336 398/476/337
f 397/477/338 398/476/337 396/478/336
f 398/476/337 397/479/338 399/462/324
f 399/462/324 397/480/338 393/481/333
f 399/462/324 401/442/315 398/476/337
f 400/468/332 401/442/315 399/462/324
f 398/476/337 401/442/315 382/450/318
f 381/444/316 382/450/318 401/442/315
f 380/439/313 401/442/315 379/440/314
f 402/435/311 379/440/314 401/442/315
f 401/442/315 417/482/339 402/435/311
f 375/425/307 402/435/311 417/482/339
f 375/425/307 417/482/339 409/483/340
f 409/483/340 404/427/308 375/425/307
f 373/249/176 404/427/308 403/253/179
f 373/249/176 403/253/179 265/255/174
f 405/484/341 403/253/179 404/427/308
f 386/271/193 403/253/179 405/484/341
f 386/271/193 268/270/180 403/253/179
f 406/456/320 386/271/193 405/484/341
f 404/427/308 435/485/342 405/484/341
f 405/484/341 435/485/342 406/456/320
f 407/486/343 435/485/342 404/427/308
f 392/467/331 407/486/343 404/427/308
f 392/467/331 404/427/308 409/483/340
f 392/467/331 432/258/183 407/486/343
f 407/486/343 432/258/183 408/487/344
f 409/483/340 411/488/345 392/467/331
f 410/489/346 411/488/345 409/483/340
f 392/467/331 412/490/347 400/468/332
f 392/467/331 414/491/348 412/490/347
f 411/488/345 413/492/349 209/493/350
f 209/493/350 413/492/349 210/494/204
f 211/495/199 411/488/345 209/496/350
f 414/491/348 411/488/345 211/495/199
f 414/491/348 392/467/331 411/488/345
f 280/497/198 414/491/348 211/498/199
f 205/499/200 414/491/348 280/497/198
f 205/499/200 412/490/347 414/491/348
f 412/490/347 205/500/200 415/501/351
f 415/501/351 205/500/200 203/502/352
f 415/501/351 203/503/352 416/504/353
f 400/468/332 417/482/339 401/442/315
f 400/468/332 412/490/347 417/482/339
f 420/505/354 410/489/346 409/483/340
f 409/483/340 417/482/339 420/505/354
f 410/489/346 420/505/354 200/506/355
f 200/506/355 208/507/205 410/489/346
f 208/507/205 418/508/356 410/489/346
f 410/489/346 418/508/356 411/488/345
f 208/509/205 411/488/345 418/508/356
f 411/488/345 208/509/205 413/492/349
f 210/510/204 413/492/349 208/509/205
f 200/506/355 420/505/354 419/511/357
f 421/512/358 420/505/354 417/482/339
f 420/505/354 199/513/359 419/511/357
f 200/514/355 419/511/357 199/513/359
f 416/515/353 199/513/359 420/505/354
f 421/512/358 416/515/353 420/505/354
f 416/504/353 421/512/358 415/501/351
f 412/490/347 415/501/351 417/482/339
f 415/501/351 421/512/358 417/482/339
f 423/516/360 422/243/171 262/517/170
f 428/518/361 422/243/171 423/516/360
f 428/518/361 423/516/360 425/519/362
f 262/520/170 425/519/362 423/516/360
f 424/521/363 428/518/361 425/519/362
f 424/521/363 425/519/362 267/250/177
f 425/519/362 262/251/170 267/250/177
f 267/250/177 426/522/364 424/521/363
f 266/252/178 426/522/364 267/250/177
f 424/521/363 429/523/365 428/518/361
f 428/518/361 429/523/365 427/524/366
f 374/525/306 422/243/171 427/524/366
f 374/525/306 427/524/366 429/523/365
f 429/523/365 266/526/178 374/527/306
f 266/528/178 429/523/365 424/521/363
f 424/521/363 426/522/364 266/528/178
f 427/524/366 422/243/171 428/518/361
f 422/243/171 374/529/306 264/530/175
f 263/246/173 422/243/171 264/530/175
f 430/531/367 432/258/183 431/466/330
f 430/531/367 270/532/181 432/258/183
f 431/466/330 432/258/183 392/467/331
f 434/259/184 432/258/183 269/533/182
f 434/259/184 433/534/368 432/258/183
f 433/534/368 408/487/344 432/258/183
f 434/259/184 435/485/342 433/534/368
f 435/485/342 407/486/343 433/534/368
f 433/534/368 407/486/343 408/487/344
f 435/485/342 434/259/184 436/278/197
f 434/259/184 271/535/185 436/278/197
f 436/278/197 437/536/369 435/485/342
f 437/536/369 406/456/320 435/485/342
f 437/536/369 436/278/197 438/275/196
f 438/275/196 436/278/197 279/277/195
f 382/450/318 406/456/320 437/536/369
f 430/531/367 437/536/369 438/275/196
f 430/531/367 438/275/196 270/274/181
f 382/450/318 437/536/369 431/466/330
f 431/466/330 389/463/325 382/450/318
f 431/466/330 437/536/369 430/531/367
f 441/537/370 393/538/333 439/539/371
f 393/540/333 441/537/370 440/541/372
f 394/542/334 393/540/333 440/541/372
f 397/543/338 439/539/371 393/544/333
f 397/545/338 441/537/370 439/539/371
f 441/537/370 397/545/338 396/546/336
f 440/541/372 441/537/370 396/547/336
f 440/541/372 396/548/336 395/549/335
f 394/542/334 440/541/372 395/550/335
f 442/551/373 446/552/374 274/267/190
f 273/266/186 442/551/373 274/267/190
f 446/552/374 447/553/375 274/267/190
f 443/554/376 274/267/190 447/553/375
f 274/267/190 443/554/376 275/265/189
f 447/553/375 276/269/192 443/554/376
f 275/265/189 443/554/376 276/269/192
f 447/553/375 444/555/377 276/269/192
f 276/269/192 444/555/377 277/268/191
f 449/556/378 446/552/374 442/551/373
f 442/551/373 445/264/188 449/556/378
f 442/551/373 273/557/186 445/264/188
f 449/556/378 447/553/375 446/552/374
f 277/558/191 444/555/377 447/553/375
f 448/559/379 277/560/191 447/553/375
f 277/561/191 448/559/379 272/562/187
f 272/563/187 448/559/379 445/264/188
f 448/559/379 449/556/378 445/264/188
f 447/553/375 449/556/378 448/559/379
f 450/283/202 452/564/380 451/565/381
f 450/283/202 211/566/199 452/564/380
f 453/567/382 451/565/381 452/564/380
f 450/283/202 451/565/381 453/567/382
f 211/568/199 209/569/350 454/287/206
f 454/287/206 452/564/380 211/566/199
f 209/570/350 210/285/204 454/287/206
f 200/571/355 454/287/206 208/572/205
f 199/573/359 416/574/353 455/575/383
f 455/575/383 454/287/206 199/576/359
f 200/577/355 199/576/359 454/287/206
f 455/575/383 416/578/353 203/579/352
f 455/575/383 203/579/352 281/284/203
f 205/282/201 281/284/203 203/579/352
f 205/580/201 211/581/199 450/283/202
f 293/306/225 456/305/224 319/332/250
f 319/332/250 456/305/224 320/333/251
f 456/305/224 459/291/210 320/333/251
f 320/333/251 459/291/210 316/329/247
f 321/334/252 316/329/247 459/291/210
f 459/291/210 456/305/224 287/296/215
f 287/296/215 286/294/213 459/291/210
f 459/291/210 458/582/384 321/334/252
f 457/583/385 321/334/252 458/582/384
f 459/291/210 489/584/386 458/582/384
f 457/585/385 458/582/384 489/584/386
f 459/291/210 477/586/387 461/587/388
f 489/584/386 459/291/210 461/587/388
f 489/584/386 461/587/388 283/289/208
f 284/588/207 489/584/386 283/289/208
f 283/289/208 461/587/388 460/589/389
f 282/290/209 283/289/208 460/589/389
f 477/586/387 462/590/390 461/587/388
f 463/591/391 460/589/389 461/587/388
f 282/290/209 460/589/389 463/591/391
f 464/592/392 461/587/388 462/590/390
f 463/591/391 461/587/388 464/592/392
f 464/592/392 462/590/390 465/593/393
f 463/591/391 464/592/392 466/594/394
f 466/594/394 464/592/392 465/593/393
f 466/594/394 467/595/395 463/591/391
f 282/290/209 463/591/391 467/595/395
f 468/596/396 467/595/395 466/594/394
f 467/595/395 468/596/396 469/597/397
f 470/598/398 469/597/397 468/596/396
f 471/599/399 468/596/396 466/594/394
f 468/596/396 471/599/399 470/598/398
f 465/593/393 472/600/400 466/594/394
f 466/594/394 472/600/400 471/599/399
f 462/590/390 473/601/401 465/593/393
f 472/600/400 465/593/393 473/601/401
f 470/598/398 471/599/399 476/602/402
f 470/598/398 476/602/402 474/603/403
f 471/599/399 472/600/400 475/604/404
f 472/600/400 473/601/401 475/604/404
f 475/604/404 476/602/402 471/599/399
f 477/586/387 473/601/401 462/590/390
f 475/604/404 473/601/401 477/586/387
f 477/586/387 476/602/402 475/604/404
f 476/602/402 477/586/387 474/603/403
f 474/603/403 477/586/387 483/605/405
f 474/603/403 483/605/405 478/606/406
f 474/603/403 478/606/406 479/607/407
f 479/607/407 480/608/408 474/603/403
f 479/607/407 478/606/406 483/605/405
f 480/608/408 479/607/407 481/609/409
f 481/609/409 482/610/410 480/608/408
f 481/609/409 479/607/407 483/605/405
f 482/610/410 481/609/409 484/611/411
f 348/612/279 482/610/410 484/611/411
f 481/609/409 483/605/405 484/611/411
f 347/613/278 348/614/279 484/611/411
f 484/611/411 485/615/412 347/613/278
f 485/615/412 484/611/411 483/605/405
f 485/615/412 483/605/405 477/586/387
f 477/586/387 487/616/413 485/615/412
f 347/617/278 485/615/412 487/616/413
f 487/616/413 486/407/302 347/617/278
f 347/618/278 486/407/302 268/619/180
f 487/616/413 477/586/387 459/291/210
f 487/616/413 488/620/414 486/407/302
f 459/291/210 488/620/414 487/616/413
f 459/291/210 285/293/212 488/620/414
f 265/621/174 486/407/302 488/620/414
f 285/293/212 265/622/174 488/620/414
f 371/395/300 490/623/415 284/288/207
f 491/624/416 490/623/415 371/395/300
f 371/395/300 494/625/417 491/624/416
f 282/626/209 494/625/417 371/395/300
f 492/627/418 490/623/415 491/624/416
f 457/583/385 490/623/415 492/627/418
f 491/624/416 494/625/417 493/628/419
f 322/335/253 491/624/416 493/628/419
f 492/627/418 491/624/416 322/335/253
f 492/627/418 322/335/253 321/334/252
f 321/334/252 457/583/385 492/627/418
f 489/584/386 284/288/207 490/623/415
f 489/584/386 490/623/415 457/583/385
f 496/292/211 495/629/420 285/293/212
f 285/293/212 495/629/420 262/399/170
f 497/630/421 495/629/420 496/292/211
f 495/629/420 497/630/421 262/404/170
f 496/292/211 289/295/214 288/297/216
f 288/297/216 504/631/422 496/292/211
f 504/631/422 497/630/421 496/292/211
f 372/402/301 262/404/170 497/630/421
f 505/632/423 497/630/421 504/631/422
f 288/297/216 498/633/424 504/631/422
f 338/352/269 498/633/424 288/297/216
f 504/631/422 498/633/424 503/634/425
f 338/352/269 499/353/270 498/633/424
f 498/633/424 500/635/426 501/636/427
f 498/633/424 501/636/427 503/634/425
f 500/635/426 498/633/424 499/353/270
f 501/636/427 499/353/270 339/637/271
f 501/636/427 500/635/426 499/353/270
f 501/636/427 339/638/271 378/639/312
f 501/636/427 378/640/312 377/641/310
f 502/642/428 501/636/427 377/643/310
f 501/636/427 502/642/428 503/634/425
f 376/644/309 502/642/428 377/645/310
f 503/634/425 505/632/423 504/631/422
f 497/630/421 505/632/423 376/646/309
f 372/402/301 497/630/421 376/647/309
f 376/647/309 266/648/178 372/402/301
f 502/642/428 376/649/309 505/632/423
f 502/642/428 505/632/423 503/634/425
f 334/347/264 506/650/429 335/348/265
f 506/650/429 334/347/264 332/344/262
f 335/393/265 506/650/429 507/651/430
f 507/651/430 506/650/429 332/346/262
f 509/652/431 508/653/432 513/654/433
f 329/339/257 508/653/432 509/652/431
f 329/339/257 327/655/258 508/653/432
f 329/339/257 509/652/431 328/341/259
f 290/301/220 328/341/259 510/656/434
f 510/656/434 511/657/435 290/301/220
f 290/301/220 511/657/435 333/345/263
f 333/345/263 511/657/435 512/658/436
f 512/658/436 332/346/262 333/345/263
f 514/659/437 509/652/431 513/654/433
f 509/652/431 514/659/437 328/341/259
f 515/660/438 328/341/259 514/659/437
f 328/341/259 515/660/438 510/656/434
f 510/656/434 515/660/438 516/661/439
f 516/661/439 511/657/435 510/656/434
f 511/657/435 516/661/439 517/662/440
f 517/662/440 512/658/436 511/657/435
f 518/663/441 512/658/436 517/662/440
f 507/651/430 332/346/262 512/658/436
f 512/658/436 518/663/441 507/651/430
f 507/651/430 518/663/441 335/394/265
f 517/662/440 519/664/442 518/663/441
f 335/665/265 518/663/441 519/664/442
f 508/653/432 327/655/258 325/336/254
f 345/364/276 385/666/321 343/365/275
f 345/364/276 278/667/194 385/666/321
f 520/418/305 521/413/303 270/668/181
f 522/669/443 520/418/305 279/670/195
f 523/671/444 520/418/305 522/672/443
f 523/671/444 524/673/445 520/418/305
f 521/413/303 520/418/305 524/673/445
f 269/674/182 521/413/303 525/675/446
f 526/676/447 525/675/446 521/413/303
f 269/674/182 525/675/446 526/676/447
f 521/413/303 527/677/448 526/678/447
f 527/677/448 521/413/303 524/673/445
f 531/679/449 527/677/448 524/673/445
f 527/677/448 529/680/450 526/681/447
f 531/679/449 529/680/450 527/677/448
f 526/682/447 529/680/450 528/683/451
f 528/684/451 529/680/450 522/685/443
f 529/680/450 530/686/452 522/687/443
f 522/688/443 530/686/452 523/671/444
f 523/671/444 530/686/452 531/679/449
f 523/671/444 531/679/449 524/673/445
f 530/686/452 529/680/450 531/679/449
f 532/689/453 534/416/304 533/690/454
f 534/416/304 526/691/447 533/690/454
f 526/691/447 534/416/304 269/692/182
f 535/693/455 533/690/454 526/694/447
f 526/695/447 528/696/451 535/693/455
f 528/697/451 522/698/443 535/693/455
f 533/690/454 535/693/455 532/689/453
f 522/699/443 536/700/456 535/693/455
f 535/693/455 536/700/456 532/689/453
f 532/689/453 536/700/456 534/416/304
f 522/701/443 534/416/304 536/700/456
f 279/702/195 534/416/304 522/701/443
f 80/20/15 87/16/16 84/18/18
f 47/20/457 45/20/457 37/20/457 118/20/457
f 88/20/458 83/703/459 82/20/460 90/20/458
f 72/20/461 81/20/461 84/18/462
f 81/13/13 80/15/15 84/18/18
f 79/14/14 87/16/16 80/20/15
f 118/20/463 36/20/463 42/20/463 59/20/463
f 79/14/464 113/20/465 87/16/466
f 112/20/467 92/20/467 86/19/468
f 5/20/469 14/704/470 15/20/471 10/2/472
f 10/2/2 11/1/1 13/20/473 7/20/474
f 88/20/475 1/20/475 83/703/476
f 1/20/477 13/20/477 83/703/478
f 13/20/479 12/20/479 83/703/480
f 13/20/473 11/1/1 12/3/3
f 10/2/2 16/20/481 12/3/3
f 61/20/482 57/20/482 105/20/482 56/20/482
f 116/20/483 72/20/483 12/20/483
f 116/20/484 69/20/484 72/20/484
f 69/20/485 81/20/485 72/20/485
f 69/20/486 79/14/14 81/13/13
f 69/20/487 71/20/487 79/14/488
f 71/20/489 65/20/489 79/14/490
f 65/20/491 53/20/491 79/14/492
f 53/20/493 103/20/493 79/14/494
f 103/705/495 102/706/496 79/14/497
f 102/706/498 113/20/499 79/14/500
f 55/20/501 75/20/501 112/20/501
f 75/20/502 114/20/502 112/20/502
f 17/707/503 60/20/504 50/708/504 51/709/504
f 113/20/505 102/706/506 112/20/505
f 102/706/507 52/20/508 112/20/508
f 52/20/509 55/20/509 112/20/509
f 91/710/510 90/711/511 92/20/512
f 115/712/513 73/20/514 92/20/514
f 73/20/515 91/710/516 92/20/515
f 91/710/510 93/20/517 90/711/511
f 93/20/518 89/20/518 90/711/519
f 89/20/520 88/20/520 90/20/520
f 89/20/521 78/20/521 88/20/521
f 115/712/522 114/713/523 75/20/524 73/20/524
f 77/714/525 13/20/526 1/20/526
f 107/715/527 58/20/528 3/20/528 62/20/528
f 63/20/529 67/20/529 64/11/530 68/20/529
f 15/20/531 16/20/531 10/2/532
f 7/20/533 8/20/533 10/20/533
f 8/20/534 5/20/534 10/20/534
f 30/20/535 116/20/535 12/3/536 29/20/535
f 15/20/537 19/20/537 16/20/537
f 19/20/538 41/20/538 29/20/538
f 41/3/539 40/1/540 29/20/541
f 40/1/542 42/20/543 29/20/543
f 42/20/544 33/20/544 29/20/544
f 33/20/545 43/20/546 29/20/547
f 43/20/546 34/20/548 29/20/547
f 34/20/549 32/20/549 29/20/549
f 32/20/550 30/20/550 29/20/550
f 30/20/551 27/20/551 116/20/551
f 17/20/552 14/704/553 8/20/552 4/20/552
f 70/1/554 71/716/555 116/20/556
f 71/20/557 69/20/557 116/20/557
f 70/1/554 65/20/558 71/20/555
f 68/20/559 64/11/11 65/10/10
f 66/12/12 53/20/560 65/20/10
f 54/20/561 111/20/561 75/20/561 55/20/561
f 21/5/5 20/4/4 65/20/562
f 20/4/563 68/20/564 65/10/565
f 66/12/566 103/20/567 53/20/567
f 52/20/568 102/706/496 103/705/495
f 66/12/569 52/20/570 103/705/571
f 48/9/572 109/20/573 20/4/574 22/6/575
f 67/20/576 54/20/576 55/20/576
f 43/20/577 33/20/577 42/717/578 36/20/577
f 12/20/579 72/20/579 84/18/580 83/703/581
f 111/20/582 96/20/582 75/20/582
f 96/20/583 73/20/583 75/20/583
f 74/20/584 96/20/584 91/20/584
f 96/20/585 94/20/585 91/20/585
f 94/718/586 93/719/517 91/710/510
f 73/720/587 74/721/588 91/20/589
f 96/20/590 74/20/588 73/720/587
f 76/20/591 89/20/591 93/20/591
f 94/20/586 96/20/592 93/719/517
f 96/20/593 97/20/593 93/719/594
f 97/20/595 2/20/596 93/719/597
f 2/20/598 4/20/598 93/719/599
f 19/20/600 29/20/600 12/3/601 16/20/600
f 78/20/602 76/20/602 93/20/602
f 76/20/603 78/20/603 89/20/603
f 9/20/604 7/20/604 78/20/604
f 9/722/605 8/723/606 7/20/607
f 18/20/608 19/20/608 15/20/608
f 14/704/470 18/20/609 15/20/471
f 14/704/610 5/20/611 8/20/611
f 9/20/605 4/20/612 8/723/606
f 63/20/613 110/20/613 111/20/613 54/20/613
f 18/20/614 41/20/614 19/20/614
f 18/20/615 51/20/615 41/20/615
f 51/709/616 50/708/617 41/20/539
f 50/708/617 40/1/540 41/3/539
f 38/724/618 39/725/619 40/20/620
f 39/725/621 42/20/622 40/1/623
f 50/708/624 38/724/625 40/20/624
f 26/726/626 70/20/627 116/20/627 27/8/628
f 39/725/619 38/724/618 42/20/629
f 38/724/630 59/20/631 42/20/631
f 107/715/632 62/20/633 108/20/633 106/20/633
f 36/20/634 32/20/634 43/727/635
f 32/20/636 34/20/636 43/20/636
f 35/20/637 31/727/638 32/3/639
f 31/727/638 30/20/640 32/20/639
f 36/20/641 37/20/641 32/20/641
f 37/20/642 45/20/642 32/20/642
f 45/20/643 35/20/643 32/3/644
f 31/727/645 28/20/646 30/20/646
f 28/20/647 27/20/647 30/20/647
f 28/20/648 24/20/648 27/20/648
f 24/20/649 22/20/649 27/20/649
f 22/6/6 21/5/5 27/20/650
f 21/20/5 26/726/651 27/8/650
f 109/20/652 63/20/652 68/20/652
f 113/20/653 112/20/653 86/19/654 87/16/655
f 20/4/656 109/20/657 68/20/657
f 67/20/658 66/12/12 64/11/11
f 60/20/659 6/20/659 4/20/659 100/728/660
f 63/20/661 54/20/661 67/20/661
f 78/729/662 77/714/663 1/20/664 88/20/664
f 66/12/665 67/20/666 55/20/666 52/20/666
f 101/20/667 97/20/667 96/20/667
f 106/20/668 108/20/668 96/20/668
f 92/20/669 90/20/669 82/20/669 86/19/670
f 98/730/671 100/728/672 96/20/673
f 100/728/674 101/20/675 96/20/675
f 101/20/676 100/728/677 97/20/676
f 100/728/678 4/20/679 97/20/679
f 4/20/680 2/20/596 97/20/595
f 82/731/460 83/703/459 84/18/18 86/19/19
f 6/20/681 17/20/681 4/20/681
f 14/704/470 17/20/682 18/3/609
f 17/707/682 51/20/683 18/20/609
f 26/726/684 21/20/685 65/20/685 70/20/685
f 60/20/686 61/20/686 50/708/686
f 61/20/687 59/20/687 50/708/687
f 59/20/688 38/724/689 50/708/688
f 118/20/690 37/20/690 36/20/690
f 61/20/691 117/20/691 59/20/691
f 117/732/692 118/733/693 59/20/694
f 3/20/695 47/20/695 118/20/695
f 4/20/696 9/20/696 78/20/696 93/719/697
f 117/732/692 3/20/698 118/20/693
f 45/20/699 31/727/700 35/20/699
f 95/20/701 61/20/701 60/20/701 100/728/702
f 47/20/703 44/9/9 45/8/8
f 46/7/7 25/20/704 45/8/8
f 25/20/705 24/20/705 45/8/706
f 25/20/707 46/7/708 24/20/707
f 46/7/709 48/20/710 24/20/710
f 48/9/711 49/734/712 24/20/713
f 49/734/712 23/735/714 24/2/713
f 23/735/714 22/20/715 24/20/713
f 23/735/716 49/734/717 22/20/718
f 49/734/712 48/9/711 22/20/719
f 107/715/720 106/736/721 109/20/722
f 106/20/721 110/20/723 109/737/722
f 110/20/723 63/20/724 109/20/722
f 48/9/725 107/715/726 109/20/727
f 115/712/728 92/20/729 112/20/729 114/713/730
f 62/20/731 99/20/732 108/20/733
f 99/20/734 56/20/734 108/20/734
f 56/20/735 105/20/735 108/20/735
f 57/20/736 95/20/737 105/20/738
f 95/20/737 98/20/739 105/20/738
f 77/714/663 78/729/662 7/20/474 13/20/473
f 95/20/740 100/728/672 98/730/671
f 105/20/741 98/20/741 96/20/741 108/20/741
f 17/20/742 6/20/742 60/20/742
f 56/20/743 117/20/743 61/20/743
f 95/20/744 57/20/744 61/20/744
f 56/20/745 104/20/745 117/20/745
f 104/20/746 3/20/746 117/732/746
f 104/20/747 62/20/747 3/20/747
f 106/20/748 96/20/748 111/20/748 110/20/748
f 24/20/749 28/20/749 31/727/750 45/20/749
f 48/20/751 46/7/752 47/20/751
f 46/7/7 44/9/9 47/20/703
f 58/20/753 107/715/754 48/9/755
f 104/20/756 99/20/732 62/20/731
f 104/20/757 56/20/757 99/20/757
