# Blender 5.1.1
# www.blender.org
o Head
v -0.034193 -0.027296 -0.110141
v -0.059290 -0.114396 -0.111328
v -0.003727 -0.222704 -0.022106
v -0.095351 -0.128991 -0.079152
v -0.093404 -0.088189 -0.045025
v -0.090647 -0.163723 -0.044768
v -0.085518 -0.072447 -0.070239
v -0.092333 -0.086676 -0.059261
v -0.088655 -0.089573 -0.075517
v -0.088241 -0.065535 -0.012687
v -0.080172 -0.056340 -0.007973
v -0.073220 -0.048604 0.001180
v -0.072012 -0.051352 -0.053843
v -0.098732 -0.118062 -0.023066
v -0.094397 -0.092688 -0.001970
v -0.086295 -0.065211 0.003414
v -0.096692 -0.144946 -0.025746
v -0.094478 -0.141298 0.000766
v -0.054718 -0.166219 0.072880
v 0.070823 -0.177022 0.013772
v 0.064977 -0.173339 0.041273
v 0.066828 -0.184785 0.021175
v 0.047264 -0.190244 0.037015
v 0.038924 -0.188962 0.052134
v 0.023975 -0.198446 0.043403
v 0.058696 -0.162745 0.061999
v 0.047014 -0.161434 0.089308
v 0.033349 -0.176876 0.080074
v -0.037323 -0.166248 0.097386
v 0.039253 -0.163603 0.092517
v 0.013580 -0.180644 0.084224
v -0.004039 -0.184360 0.085571
v -0.038092 -0.180311 0.072184
v -0.027941 -0.179542 0.083033
v 0.003851 -0.183413 0.084191
v -0.029397 -0.196587 0.049700
v -0.004401 -0.191431 0.071142
v -0.059413 -0.192823 0.022254
v -0.053356 -0.188873 0.039033
v -0.053056 -0.182485 0.052452
v -0.061610 -0.172053 0.056208
v -0.042086 -0.191674 0.048435
v -0.030484 -0.186588 0.068413
v 0.011604 -0.206892 0.030946
v 0.011545 -0.200588 0.049456
v 0.022304 -0.206280 0.024845
v -0.005224 -0.218056 0.007905
v 0.048016 -0.204529 0.000522
v 0.052881 -0.197744 0.011078
v -0.078030 -0.200022 -0.020205
v -0.081013 -0.186472 -0.004541
v 0.077361 -0.084823 -0.104282
v 0.086507 -0.092673 -0.058100
v 0.073116 -0.160896 -0.092153
v 0.067833 -0.134876 -0.106795
v -0.027547 -0.217711 -0.041900
v -0.040161 -0.198693 -0.078521
v 0.038697 -0.211468 -0.030987
v -0.047957 -0.216941 -0.015457
v -0.083298 -0.188562 -0.048207
v -0.057429 -0.210632 -0.036346
v 0.011318 -0.217647 -0.061754
v 0.076779 -0.178113 -0.067249
v 0.091729 -0.117931 -0.055080
v 0.092723 -0.113100 -0.045792
v 0.090839 -0.109317 -0.057997
v 0.085974 -0.136549 -0.081423
v 0.081442 -0.163109 -0.043365
v 0.068327 -0.056401 0.003958
v 0.075836 -0.086408 0.006369
v 0.076615 -0.077170 0.003054
v 0.067351 -0.056308 0.006863
v 0.018997 -0.136801 -0.133664
v 0.011697 -0.122942 -0.136223
v 0.047382 -0.152451 -0.123131
v -0.034676 -0.064839 -0.134637
v -0.059394 -0.049839 -0.107465
v -0.061826 -0.054494 -0.112464
v 0.070659 -0.038662 -0.069566
v 0.061757 -0.031580 -0.077414
v 0.066376 -0.034080 -0.051134
v 0.008607 -0.019645 -0.136933
v -0.017827 -0.013126 -0.109273
v 0.027005 -0.009543 -0.106934
v 0.038250 -0.017079 -0.113780
v 0.037007 -0.023437 -0.129535
v 0.041953 -0.019410 -0.112557
v -0.029598 -0.038824 -0.127770
v -0.029050 -0.062329 -0.137911
v -0.005326 -0.053100 -0.145282
v 0.003085 -0.070648 -0.146094
v 0.028113 -0.059898 -0.141673
v -0.034206 -0.077360 -0.136189
v -0.014544 -0.117035 -0.132464
v -0.046110 -0.188275 -0.091859
v -0.005809 -0.192698 -0.118021
v -0.051847 -0.161003 -0.112188
v -0.043434 -0.188220 -0.094203
v -0.006149 -0.214115 -0.069255
v -0.053986 -0.182827 -0.092938
v -0.032703 -0.178721 -0.112884
v 0.071128 -0.059594 -0.105356
v 0.074039 -0.059507 -0.094930
v -0.005339 -0.218933 -0.049658
v -0.026936 -0.204579 -0.079448
v 0.039173 -0.211888 -0.080988
v 0.035014 -0.216808 -0.067283
v 0.005710 -0.209113 -0.094479
v 0.066739 -0.200200 -0.029053
v 0.046459 -0.206587 -0.078853
v 0.043523 -0.165923 -0.116143
v 0.061511 -0.054524 -0.123561
v 0.064809 -0.039600 -0.091233
v 0.048822 -0.096610 -0.128039
v 0.040680 -0.098112 -0.133000
v 0.069762 -0.068833 0.024054
v -0.041295 -0.219884 -0.021209
v -0.026437 -0.220397 0.000855
v 0.067267 -0.097185 0.030177
v 0.029467 -0.165305 0.092823
v -0.019210 -0.183149 0.079374
v -0.028544 -0.170837 0.095065
v -0.049991 -0.154877 0.069402
v -0.026337 -0.210080 0.005546
v 0.070911 -0.172008 -0.002156
v 0.037491 -0.195222 -0.054474
v 0.031060 -0.165729 0.085448
v 0.057929 -0.169699 -0.068296
v 0.021278 -0.031720 -0.074300
v 0.065163 -0.070871 -0.076244
v 0.017529 -0.121325 -0.110012
v -0.064079 -0.045982 -0.057512
v -0.006307 -0.073103 -0.111062
v -0.040446 -0.187432 -0.068942
v -0.047231 -0.146744 -0.093551
v -0.072309 -0.095608 -0.082437
v -0.086588 -0.152032 -0.024244
v -0.082908 -0.085321 -0.016917
v -0.076573 -0.109293 0.023022
v -0.002332 -0.001620 0.068949
v 0.022448 -0.045924 0.089513
v 0.002134 -0.000386 0.064650
v -0.006888 -0.001949 0.069025
v -0.024679 -0.058726 0.081167
v -0.006247 -0.009468 0.097146
v -0.031219 -0.019393 0.074596
v -0.030477 -0.048917 0.067676
v -0.003069 -0.053977 0.082288
v -0.012363 -0.015034 0.085534
v 0.022712 -0.054294 0.074742
v 0.021244 -0.022143 0.068579
v 0.014154 -0.012316 0.071902
v -0.007933 -0.003429 0.069151
v -0.009889 -0.003283 0.068737
v -0.009046 -0.007375 0.073225
v -0.011598 -0.003604 0.068903
v 0.002840 -0.003036 0.068901
v 0.007380 -0.007500 0.073203
v 0.006709 -0.008578 0.075119
v 0.019684 -0.020004 0.068283
v 0.017023 -0.009264 0.072252
v 0.017204 -0.016945 0.070068
v 0.024896 -0.037128 0.069450
v -0.008304 0.000057 0.079493
v 0.011070 -0.006475 0.068140
v 0.015104 -0.017342 0.038627
v -0.026129 -0.012604 0.065945
v -0.019650 -0.013686 0.038551
v -0.034525 -0.058542 0.041094
v 0.028932 -0.058542 0.041094
v 0.020720 -0.013980 0.067306
v -0.028408 -0.055792 0.066066
v -0.010347 -0.001428 0.064741
v 0.011237 -0.013935 0.074336
v 0.011842 -0.025380 0.089258
v -0.002557 -0.009500 0.073634
v 0.020594 -0.074149 0.070555
v -0.024103 -0.075253 0.072577
v -0.000620 -0.078067 0.101300
v -0.027427 -0.066171 0.079872
v -0.012531 -0.014255 0.075971
v -0.024130 -0.056174 0.092268
v -0.014702 -0.033348 0.085286
v -0.011505 -0.011520 0.068302
v -0.012650 -0.028026 0.094563
v 0.011120 -0.028705 0.096238
v 0.006354 -0.063469 0.051322
v 0.026730 -0.055962 0.065515
v 0.039012 -0.009269 -0.001004
v 0.035228 -0.008127 -0.002519
v 0.029603 -0.003556 -0.001520
v 0.027570 -0.006705 -0.003574
v 0.029527 -0.008456 -0.005252
v 0.023187 -0.005843 -0.001165
v -0.045388 -0.010975 0.006703
v -0.049112 -0.012764 0.005949
v -0.052255 -0.014791 0.006123
v -0.050923 -0.018531 0.002676
v 0.040835 -0.013860 -0.000521
v 0.043527 -0.018587 0.001791
v 0.030858 -0.009392 -0.003184
v 0.031273 -0.008314 -0.003797
v 0.022198 -0.009564 -0.003508
v 0.023619 -0.011854 0.002452
v 0.016004 -0.012376 0.001455
v 0.041195 -0.017010 0.001295
v 0.037672 -0.012988 0.003439
v 0.038178 -0.012402 0.005505
v 0.024795 -0.008746 0.006414
v 0.029169 -0.008029 0.006841
v 0.013764 -0.012884 0.004740
v -0.034608 -0.009226 0.006973
v -0.032907 -0.009477 0.001901
v -0.026256 -0.011358 0.005777
v -0.035596 -0.008924 0.007310
v -0.045542 -0.011590 0.006188
v -0.043613 -0.011593 0.006228
v -0.041029 -0.009689 -0.001435
v -0.045114 -0.013150 0.003890
v -0.041844 -0.008755 -0.001953
v -0.034569 -0.007186 -0.003223
v -0.022571 -0.012705 0.004914
v -0.026522 -0.012299 0.000869
v 0.035525 -0.031258 -0.010052
v 0.033613 -0.029619 -0.014303
v 0.044156 -0.029983 0.005137
v 0.030279 -0.037474 0.006722
v 0.017391 -0.031487 -0.004680
v 0.012950 -0.030419 -0.003158
v 0.025680 -0.024373 0.016699
v 0.022255 -0.031474 0.012586
v 0.040371 -0.031080 0.007570
v -0.036398 -0.036478 0.002986
v -0.030863 -0.016015 -0.009465
v -0.029025 -0.029844 -0.010122
v -0.047471 -0.030119 -0.005271
v -0.049521 -0.020559 0.006069
v -0.042794 -0.029536 0.012969
v -0.033746 -0.020515 0.016610
v -0.024106 -0.029906 0.007317
v -0.037004 -0.008232 0.001711
v 0.029557 -0.008688 0.002712
v -0.040513 -0.037769 0.008187
v -0.027804 -0.022719 -0.007607
v -0.029695 -0.029816 -0.010340
v -0.047230 -0.030278 -0.005500
v -0.050873 -0.019087 0.001952
v -0.042809 -0.029224 0.012992
v -0.038093 -0.019942 0.015788
v -0.024539 -0.030130 0.007822
v 0.028991 -0.033663 0.011736
v 0.038913 -0.024420 -0.012341
v 0.040236 -0.031305 0.007605
v 0.022214 -0.031605 0.012453
v 0.013383 -0.026743 -0.002487
v 0.034736 -0.031614 -0.010058
v 0.025345 -0.032531 -0.010024
v 0.017175 -0.030891 -0.005252
v 0.028046 -0.010003 0.000798
v -0.036426 -0.008287 0.000184
v 0.065332 -0.101199 0.053810
v 0.079305 -0.119981 0.022503
v 0.062959 -0.095981 0.057193
v 0.061367 -0.092703 0.057826
v 0.042505 -0.074508 0.099723
v 0.077433 -0.102584 0.000572
v 0.082935 -0.114879 0.002576
v 0.008803 -0.046717 0.124878
v 0.020190 -0.004095 0.072529
v -0.008990 0.006341 0.070057
v -0.007147 0.007330 0.069428
v -0.067677 -0.091620 0.057102
v -0.084109 -0.120667 0.024529
v -0.089320 -0.113704 0.001220
v -0.084476 -0.104946 -0.000066
v -0.086845 -0.106220 -0.000765
v -0.080242 -0.086700 0.005409
v -0.015793 -0.046416 0.126526
v -0.026197 -0.003409 0.072751
v 0.013722 -0.012215 0.004543
v 0.024136 -0.012006 -0.002884
v 0.058700 -0.114161 0.164393
v 0.059243 -0.114266 0.163659
v 0.063095 -0.118565 0.160867
v 0.062491 -0.102867 0.055998
v 0.053780 -0.140783 0.111059
v 0.028641 -0.171635 0.112891
v -0.005009 -0.209630 0.011073
v -0.009202 -0.179371 0.093682
v -0.077923 -0.142883 0.141625
v -0.057471 -0.163424 0.125114
v 0.049228 -0.194971 0.147852
v 0.068973 -0.173551 0.143650
v 0.054375 -0.187367 0.154286
v 0.048102 -0.190935 0.156466
v 0.040421 -0.193620 0.158815
v 0.049336 -0.190416 0.156086
v 0.055212 -0.186744 0.154268
v 0.060101 -0.182580 0.152841
v 0.041928 -0.193347 0.158362
v 0.050194 -0.190055 0.155822
v 0.042699 -0.193207 0.158131
v 0.055992 -0.186230 0.154026
v 0.033548 -0.194863 0.160877
v 0.063023 -0.178984 0.150830
v 0.032494 -0.194871 0.161187
v 0.023010 -0.194850 0.163957
v 0.021839 -0.194726 0.164277
v 0.009442 -0.193577 0.167165
v 0.066696 -0.177079 0.144426
v 0.065866 -0.176876 0.148276
v 0.070366 -0.164511 0.145247
v 0.069781 -0.168734 0.144472
v 0.070367 -0.163178 0.145574
v 0.070179 -0.154953 0.147823
v 0.070030 -0.153808 0.148284
v 0.069318 -0.144354 0.149974
v 0.070369 -0.161595 0.145962
v 0.070023 -0.167287 0.144719
v 0.070370 -0.159962 0.146362
v 0.069320 -0.144204 0.149947
v 0.067071 -0.129633 0.154193
v 0.008909 -0.193535 0.167256
v -0.004053 -0.193759 0.168364
v -0.072462 -0.179085 0.145052
v -0.049884 -0.195997 0.149009
v -0.076214 -0.171759 0.144996
v -0.077052 -0.162157 0.146544
v -0.076920 -0.165899 0.145777
v -0.076199 -0.138185 0.148987
v -0.069847 -0.116746 0.160562
v -0.073832 -0.129347 0.154600
v -0.075459 -0.140530 0.150861
v -0.071554 -0.123189 0.158414
v -0.069133 -0.117790 0.162235
v -0.069831 -0.117690 0.073155
v -0.064135 -0.180145 0.006029
v -0.057153 -0.178680 -0.064117
v -0.075509 -0.065559 -0.063754
v -0.084116 -0.110228 -0.000290
v -0.085051 -0.129734 -0.008114
v -0.078035 -0.118911 0.024398
v -0.057010 -0.082117 0.091630
v -0.056869 -0.087438 0.097751
v -0.016785 -0.049892 0.129166
v -0.052548 -0.083762 0.108425
v -0.008075 -0.056566 0.149854
v -0.003439 -0.080307 0.174547
v -0.007729 -0.082481 0.175216
v -0.014214 -0.082146 0.173653
v -0.015776 -0.084679 0.174477
v -0.015871 -0.084835 0.174554
v -0.020719 -0.086442 0.173963
v -0.024321 -0.086992 0.173278
v -0.007961 -0.071382 0.169091
v -0.035040 -0.092048 0.172442
v -0.035380 -0.092519 0.172353
v -0.040844 -0.094046 0.170390
v -0.047759 -0.097484 0.168300
v -0.050836 -0.099368 0.167493
v -0.045348 -0.096268 0.169164
v -0.054548 -0.092454 0.161100
v -0.056533 -0.105371 0.166637
v -0.055820 -0.104709 0.166756
v -0.053190 -0.101299 0.166938
v -0.061948 -0.110512 0.165557
v -0.061810 -0.110663 0.165751
v -0.062008 -0.110724 0.165632
v -0.064469 -0.114037 0.165445
v -0.064785 -0.114307 0.165233
v 0.062675 -0.118835 0.161395
v 0.077197 -0.111834 0.001136
v 0.060597 -0.075723 0.074273
v 0.066420 -0.082409 0.048514
v 0.068658 -0.053913 0.008954
v 0.075736 -0.089545 -0.028405
v 0.040833 -0.027274 -0.069086
v -0.010584 -0.032491 -0.090351
v -0.024402 -0.010956 -0.066880
v -0.049583 -0.021598 -0.060647
v -0.080566 -0.078224 -0.006537
v -0.065240 -0.026133 0.009650
v -0.063595 -0.048129 0.083511
v -0.066531 -0.076707 0.065399
v -0.034018 -0.053826 0.113380
v -0.015398 -0.040864 0.124869
v -0.036481 -0.008958 0.020388
v -0.006571 0.018363 0.036536
v -0.007906 0.014475 0.042503
v 0.003589 0.013487 0.032929
v 0.012770 0.013604 0.035248
v 0.016377 0.007646 0.048312
v -0.020441 -0.011679 0.004335
v -0.035543 -0.007865 0.008136
v -0.041064 -0.008774 0.008309
v -0.051406 -0.016787 0.002753
v -0.037197 -0.005854 -0.003745
v -0.049614 -0.010703 -0.001463
v -0.022893 -0.009439 -0.001008
v -0.001173 0.001439 -0.008532
v -0.044879 -0.000111 -0.009573
v 0.025206 -0.018307 -0.067395
v 0.012277 -0.043196 0.121966
v 0.050072 -0.029814 0.087686
v 0.004121 0.004905 0.117390
v -0.021642 0.000803 0.108693
v 0.025868 -0.002906 0.074381
v 0.023182 -0.001787 0.073502
v 0.053305 -0.022702 0.007891
v 0.047555 -0.023255 0.004446
v 0.026822 -0.009496 0.013513
v 0.009940 -0.011006 -0.003284
v 0.029843 -0.009252 0.009017
v 0.012885 -0.011682 0.005758
v 0.019114 -0.009929 -0.004702
v 0.032392 -0.007712 -0.004240
v 0.037144 -0.002459 -0.015990
v 0.038512 -0.012758 0.005504
v 0.042324 -0.015665 -0.000557
v 0.042362 -0.015226 -0.001204
v 0.031273 -0.007154 -0.004896
v 0.071162 -0.100586 0.054445
v 0.079881 -0.116146 0.033701
v 0.090033 -0.117688 0.003038
v 0.084038 -0.120387 0.017737
v 0.079843 -0.107202 0.000760
v 0.072265 -0.102923 0.028378
v 0.084356 -0.113544 0.042365
v 0.078010 -0.098654 0.009333
v -0.005983 0.008304 0.070558
v -0.003783 0.014503 0.061605
v 0.022884 -0.001851 0.072784
v 0.021521 -0.000868 0.073389
v 0.006209 0.006832 0.070374
v -0.000423 0.013045 0.077180
v -0.013489 0.007742 0.070432
v -0.028198 0.000164 0.071978
v -0.027469 -0.001223 0.072572
v -0.031111 -0.008535 -0.002512
v -0.044457 -0.010655 0.006798
v -0.022711 -0.013121 0.003758
v -0.089333 -0.118661 0.013012
v -0.088273 -0.109977 -0.000102
v -0.085381 -0.102372 -0.000362
v -0.078070 -0.106955 0.043147
v -0.096337 -0.120015 0.006837
v -0.094007 -0.104499 -0.000114
v -0.075549 -0.092540 0.046634
v -0.085514 -0.109729 0.040345
v 0.015427 -0.014529 0.003494
v 0.017704 -0.014593 0.003121
v 0.018629 -0.015220 0.004124
v 0.018113 -0.015106 0.001810
v 0.043039 -0.018419 0.001619
v 0.034497 -0.009218 -0.003095
v 0.069444 -0.164565 0.141759
v 0.067466 -0.130823 0.153519
v 0.068656 -0.135488 0.150301
v 0.065142 -0.108064 0.133783
v 0.056804 -0.110836 0.163670
v 0.054678 -0.104784 0.161105
v 0.045066 -0.100660 0.166425
v 0.056545 -0.111702 0.164471
v 0.051789 -0.106534 0.165280
v 0.045911 -0.101299 0.166320
v 0.051245 -0.106342 0.165535
v 0.056010 -0.112738 0.165611
v 0.050608 -0.105789 0.165631
v 0.050132 -0.105329 0.165674
v 0.040486 -0.096032 0.167049
v 0.044378 -0.099996 0.166529
v 0.045706 -0.101073 0.166340
v 0.040251 -0.095733 0.167077
v 0.015293 -0.085191 0.172921
v 0.038664 -0.095159 0.167869
v 0.031816 -0.093875 0.171357
v 0.036518 -0.085048 0.163548
v 0.009595 -0.084032 0.174269
v 0.004710 -0.079614 0.173155
v 0.003238 -0.079657 0.173456
v 0.001028 -0.079556 0.173824
v 0.001039 -0.079324 0.173719
v 0.010975 -0.080483 0.172165
v -0.000130 -0.080514 0.174370
v 0.010934 -0.070203 0.165580
v 0.012975 -0.051782 0.125714
v 0.016242 -0.064957 0.140286
v 0.038110 -0.075717 0.109376
v 0.063687 -0.117763 0.159500
v 0.064459 -0.122434 0.158590
v 0.063897 -0.121225 0.159495
v 0.067362 -0.130514 0.153694
v 0.063567 -0.119826 0.160086
v 0.062212 -0.119132 0.161977
v 0.074333 -0.121794 0.022580
v 0.061171 -0.137584 0.061846
v 0.076955 -0.116548 0.006155
v -0.027129 -0.180306 -0.084996
v -0.077161 -0.096719 -0.069918
v -0.047974 -0.097045 -0.097048
v -0.014558 -0.061816 -0.100730
v 0.059552 -0.077813 -0.080517
v 0.047705 -0.121161 -0.095005
v 0.061574 -0.181866 -0.049605
v 0.077911 -0.120662 -0.042879
v -0.071237 -0.122478 0.158915
v -0.070812 -0.121527 0.159586
v -0.075711 -0.171758 0.146113
v -0.076349 -0.169574 0.145572
v -0.076915 -0.151461 0.147517
v -0.075425 -0.141112 0.150978
v -0.073762 -0.129151 0.154713
v -0.074988 -0.171757 0.147720
v -0.077219 -0.163421 0.146106
v -0.076752 -0.152396 0.147864
v -0.075445 -0.140761 0.150908
v -0.073489 -0.128412 0.155172
v -0.070303 -0.120386 0.160389
v -0.069823 -0.119313 0.161145
v -0.011006 0.005878 0.061443
v 0.013182 -0.005522 0.066174
v -0.030088 -0.027470 0.081095
v -0.032335 -0.024083 0.066255
v -0.002374 0.001261 0.050000
v 0.019436 -0.007963 0.072717
v 0.024692 -0.032981 0.073463
v 0.023202 -0.047379 0.060955
v 0.004950 -0.058823 0.108581
v 0.005902 -0.067602 0.098628
v -0.021008 -0.069252 0.094631
v -0.016134 -0.074117 0.068447
v -0.009644 -0.005137 0.090900
v 0.013090 -0.006597 0.088773
v -0.010787 0.005419 0.071347
v -0.001204 -0.053436 0.096428
v -0.027929 -0.018088 0.087258
vn -0.7676 0.6404 -0.0268
vn -0.9985 -0.0285 0.0474
vn -0.7478 0.6633 0.0280
vn 0.9329 -0.2477 0.2616
vn 0.7889 -0.4110 0.4568
vn 0.9326 -0.0947 0.3482
vn 0.2413 -0.9242 0.2962
vn 0.2249 -0.9181 0.3263
vn 0.2257 -0.9246 0.3069
vn 0.9984 -0.0520 -0.0238
vn 0.9981 -0.0610 -0.0044
vn 0.9776 0.1315 -0.1644
vn 0.7901 0.6104 0.0560
vn 0.7446 0.6593 -0.1045
vn 0.6402 0.7563 -0.1347
vn 0.5809 0.8043 -0.1253
vn 0.4327 0.8408 -0.3254
vn 0.2582 0.9374 -0.2335
vn 0.1715 0.9098 -0.3781
vn 0.2709 -0.9516 0.1448
vn 0.9613 0.1921 0.1977
vn 0.6750 -0.7138 0.1868
vn 0.7074 -0.5806 0.4032
vn -0.3340 -0.6775 0.6553
vn -0.3221 -0.8717 0.3693
vn -0.7924 -0.6099 0.0073
vn -0.9145 -0.1624 0.3705
vn 0.8243 -0.5452 0.1527
vn -0.1411 -0.9830 0.1176
vn 0.2255 -0.8770 -0.4242
vn 0.9003 0.2173 -0.3771
vn 0.3650 0.8330 -0.4159
vn 0.8057 -0.2716 -0.5264
vn 0.1440 -0.2737 -0.9510
vn -0.0847 0.3994 -0.9128
vn -0.5804 0.6230 -0.5244
vn -0.2767 -0.7773 -0.5650
vn -0.5502 -0.3052 -0.7772
vn -0.7315 0.0599 -0.6792
vn -0.9789 0.2038 -0.0131
vn -0.9100 -0.4141 0.0216
vn -0.5067 0.5943 0.6245
vn -0.9630 0.1484 0.2250
vn 0.0643 0.6890 0.7219
vn -0.9010 0.2857 0.3264
vn 0.5294 -0.2848 -0.7991
vn 0.0956 -0.3217 -0.9420
vn 0.1600 0.0534 -0.9857
vn 0.9794 0.1018 0.1746
vn 0.4470 -0.3578 -0.8199
vn -0.5732 -0.4869 -0.6590
vn -0.4660 -0.1703 -0.8682
vn 0.9791 0.0924 -0.1810
vn 0.0635 0.0548 -0.9965
vn 0.2896 -0.6370 -0.7144
vn -0.6027 0.7526 -0.2653
vn -0.1512 0.8085 -0.5688
vn 0.4799 -0.3827 -0.7895
vn 0.0618 0.6397 -0.7661
vn 0.2986 -0.3029 -0.9050
vn -0.3017 -0.5857 -0.7523
vn -0.3233 -0.8306 -0.4534
vn -0.1296 0.2325 -0.9639
vn 0.7194 0.5308 0.4479
vn 0.0636 0.0547 -0.9965
vn -0.1294 0.2325 -0.9639
vn -0.7988 -0.5948 -0.0907
vn -0.2512 -0.5258 -0.8126
vn 0.0676 0.9480 -0.3109
vn 0.7844 0.5651 -0.2556
vn -0.5432 0.7614 -0.3538
vn -0.9000 0.4161 0.1299
vn 0.1173 -0.1451 0.9824
vn -0.9018 -0.4246 -0.0801
vn -0.1113 -0.3396 0.9340
vn -0.0190 -0.5426 0.8398
vn 0.8046 -0.5793 -0.1307
vn 0.9157 -0.0645 0.3966
vn 0.2727 0.0612 0.9601
vn -0.1483 0.8181 0.5556
vn -0.2598 0.7921 0.5524
vn 0.7289 0.2906 -0.6199
vn -0.1402 0.0660 -0.9879
vn -0.7357 0.4845 0.4732
vn 0.6272 -0.3015 -0.7181
vn 0.3888 -0.7512 0.5334
vn -0.3428 -0.5362 -0.7713
vn -0.9695 0.1923 -0.1522
vn -0.6100 0.0838 0.7880
vn -0.3923 0.9142 -0.1017
vn -0.5107 0.8558 -0.0824
vn -0.0045 0.9029 0.4297
vn 0.3789 0.5571 -0.7390
vn 0.1494 0.6421 -0.7519
vn 0.4483 0.5373 -0.7144
vn 0.1826 0.5297 -0.8283
vn -0.2523 0.5888 -0.7679
vn -0.3013 0.5808 -0.7563
vn -0.4556 0.6549 -0.6029
vn -0.1546 0.6392 -0.7534
vn -0.2692 0.5991 -0.7541
vn -0.2278 0.5337 -0.8144
vn 0.2353 0.7079 0.6660
vn 0.1625 0.5067 0.8467
vn 0.0159 0.5004 0.8657
vn 0.1265 0.7418 0.6586
vn -0.0231 0.5010 0.8651
vn -0.0683 0.9020 0.4263
vn 0.0860 0.9291 0.3596
vn -0.1079 0.9365 0.3337
vn 0.5741 0.7400 -0.3505
vn 0.2355 0.7080 0.6658
vn 0.1068 0.9494 -0.2954
vn 0.0861 0.9291 0.3597
vn -0.0713 0.7949 -0.6025
vn 0.0861 0.9291 0.3596
vn -0.0808 0.9919 0.0982
vn 0.2602 0.9655 0.0098
vn 0.0279 0.9975 -0.0654
vn -0.1038 0.9769 -0.1866
vn -0.0083 0.5580 -0.8298
vn -0.2190 0.9729 0.0738
vn -0.1238 0.7777 -0.6163
vn 0.0175 0.6050 -0.7960
vn -0.0109 0.9780 0.2084
vn 0.0287 0.6085 0.7930
vn 0.0129 0.8906 0.4546
vn -0.2584 0.3221 0.9108
vn -0.0099 0.9825 0.1858
vn 0.4370 -0.8631 -0.2533
vn 0.0587 -0.9002 -0.4314
vn 0.4438 -0.7542 0.4840
vn 0.3415 -0.8993 -0.2734
vn -0.5445 -0.7785 0.3123
vn -0.1630 -0.9155 -0.3678
vn 0.3424 -0.4435 0.8283
vn -0.5641 -0.6164 0.5494
vn 0.3533 -0.4852 0.7998
vn 0.8485 0.0880 0.5218
vn 0.3441 -0.6355 -0.6912
vn -0.4054 -0.6664 0.6257
vn -0.5612 -0.3143 -0.7657
vn -0.8721 -0.0681 -0.4846
vn -0.4716 -0.5258 0.7079
vn 0.5337 -0.5665 0.6278
vn 0.9728 -0.2209 0.0695
vn -0.1079 0.9816 0.1574
vn 0.0286 0.9868 -0.1596
vn -0.8638 0.3643 -0.3480
vn -0.3662 -0.0166 -0.9304
vn -0.2220 -0.3129 0.9235
vn -0.3992 -0.4816 -0.7801
vn -0.8532 -0.4152 0.3156
vn -0.7277 -0.1831 0.6610
vn 0.7444 0.0577 0.6652
vn 0.8618 -0.2935 0.4138
vn 0.0761 -0.9410 -0.3299
vn -1.0000 -0.0001 0.0001
vn -0.3007 -0.9449 -0.1297
vn 0.8944 0.0001 -0.4474
vn -0.3089 0.1362 -0.9413
vn 0.3824 -0.7463 0.5448
vn 0.4929 -0.8607 -0.1275
vn 0.2516 -0.9222 -0.2935
vn -0.3900 0.3305 -0.8595
vn -0.6101 -0.6223 -0.4904
vn 0.0628 0.9228 0.3801
vn 0.8309 0.2606 0.4916
vn 0.1311 0.9896 -0.0599
vn 0.8206 -0.4716 0.3229
vn 0.8604 0.0504 0.5071
vn -0.0333 -0.6884 0.7246
vn 0.3836 -0.4422 0.8107
vn 0.6350 0.0034 0.7725
vn 0.4030 -0.0868 0.9111
vn 0.9009 0.0737 0.4278
vn -0.4435 -0.8256 -0.3488
vn 0.2120 0.4978 -0.8410
vn 0.5932 0.1208 0.7959
vn -0.0796 0.6645 0.7431
vn -0.1555 -0.2802 0.9473
vn 0.3797 -0.8924 -0.2440
vn 0.3463 0.8285 0.4401
vn 0.2184 0.5821 -0.7832
vn 0.1787 -0.5858 -0.7905
vn 0.1913 -0.8878 -0.4187
vn -0.4409 -0.0126 0.8975
vn -0.3949 -0.6038 0.6925
vn 0.0763 -0.7593 -0.6462
vn 0.2391 -0.8184 -0.5225
vn -0.3001 0.6913 -0.6573
vn 0.2743 0.0286 -0.9612
vn -0.4329 0.2299 0.8716
vn -0.6665 0.3561 0.6549
vn -0.0545 -0.8063 -0.5890
vn 0.2616 -0.3147 0.9124
vn -0.1832 0.7144 -0.6753
vn 0.8012 0.1676 0.5744
vn -0.1826 0.8915 -0.4146
vn 0.5302 0.7282 0.4342
vn 0.6311 0.3683 0.6827
vn 0.4561 0.7434 0.4893
vn 0.2813 0.4908 0.8246
vn 0.6298 0.5811 -0.5154
vn 0.6638 0.6606 0.3506
vn 0.0047 0.4667 -0.8844
vn 0.7685 0.3253 0.5509
vn 0.7585 0.4767 0.4443
vn 0.6688 0.2926 0.6834
vn 0.9603 0.2710 -0.0668
vn 0.7482 -0.6269 0.2171
vn 0.9649 0.2308 0.1251
vn 0.7002 -0.7133 -0.0295
vn -0.1376 -0.9647 0.2244
vn 0.2500 -0.7476 -0.6152
vn 0.1673 -0.9813 0.0952
vn -0.7302 -0.6469 0.2199
vn -0.4885 -0.7648 -0.4202
vn -0.9552 -0.2827 0.0872
vn -0.9674 0.0148 -0.2529
vn -0.1983 -0.7718 -0.6042
vn 0.0712 -0.9649 -0.2528
vn 0.5697 -0.5247 -0.6326
vn 0.6324 -0.1006 -0.7680
vn -0.3102 -0.9239 -0.2240
vn 0.4790 -0.7788 0.4051
vn 0.5539 -0.7317 0.3973
vn 0.3299 -0.8710 0.3639
vn 0.2378 -0.5543 -0.7977
vn 0.6942 -0.6798 -0.2363
vn 0.7220 -0.6660 0.1876
vn -0.2177 -0.1789 -0.9595
vn -0.2929 -0.0035 -0.9561
vn -0.2816 -0.0329 -0.9590
vn -0.4925 0.7154 0.4956
vn -0.2814 -0.0287 -0.9592
vn 0.6248 0.0037 0.7808
vn 0.0916 -0.9895 0.1115
vn -0.2215 0.3054 -0.9261
vn 0.8467 -0.3162 0.4280
vn -0.0928 -0.9853 -0.1433
vn -0.0680 0.7044 -0.7065
vn 0.6572 -0.0555 0.7517
vn 0.9630 -0.0808 0.2569
vn 0.8895 -0.1999 0.4109
vn -0.9276 0.0297 -0.3725
vn 0.9938 0.0831 -0.0745
vn -0.9951 -0.0130 -0.0981
vn 0.8934 -0.1080 0.4362
vn 0.9715 -0.0538 -0.2311
vn 0.9823 0.0522 -0.1801
vn 0.9960 0.0800 -0.0395
vn 0.9356 0.0597 0.3481
vn -0.1167 -0.9900 0.0792
vn -0.1110 -0.9674 -0.2274
vn -0.0258 -0.8774 -0.4791
vn -0.7107 -0.1271 -0.6919
vn -0.8584 -0.2987 0.4171
vn -0.9927 -0.0136 0.1195
vn -0.8689 0.4869 -0.0892
vn -0.9762 0.1823 0.1176
vn -0.5185 -0.3168 0.7942
vn -0.9434 -0.0283 0.3304
vn -0.7393 -0.0967 0.6664
vn 0.4762 0.7509 -0.4575
vn -0.7931 0.5827 0.1772
vn -0.8146 0.5751 0.0754
vn -0.9702 -0.2240 -0.0918
vn -0.7286 -0.6177 -0.2961
vn -0.8133 -0.0870 -0.5753
vn -0.9913 0.1233 -0.0468
vn -0.9958 0.0588 -0.0698
vn -0.9371 -0.2534 0.2400
vn -0.9320 0.2450 0.2670
vn -0.8386 0.0404 0.5433
vn -0.6026 0.7147 0.3550
vn -0.3926 0.7166 0.5765
vn 0.3881 0.7303 0.5622
vn 0.7379 0.6737 -0.0413
vn -0.1696 0.4816 0.8598
vn -0.2331 0.4856 0.8425
vn 0.1903 -0.4081 -0.8929
vn 0.1855 -0.2689 -0.9451
vn -0.2492 0.4867 0.8373
vn -0.2850 0.5100 0.8116
vn -0.3937 0.6015 0.6951
vn -0.1338 -0.0907 0.9869
vn 0.4622 -0.7621 -0.4534
vn -0.4561 0.4769 0.7514
vn 0.5408 -0.6407 -0.5450
vn -0.5041 0.4082 0.7611
vn -0.5297 0.4010 0.7474
vn 0.4364 -0.3089 -0.8451
vn 0.4302 -0.2897 -0.8550
vn -0.6537 0.4275 0.6245
vn 0.2782 -0.1708 -0.9452
vn 0.5587 -0.4105 -0.7207
vn -0.5176 0.5408 -0.6630
vn -0.7083 0.4597 0.5356
vn 0.7522 0.1176 0.6483
vn 0.9893 -0.0870 -0.1174
vn 0.6639 0.6118 0.4301
vn -0.7307 -0.4746 0.4908
vn -0.0218 -0.8400 -0.5422
vn 0.5456 -0.7430 0.3875
vn 0.7037 0.7000 0.1216
vn 0.9347 0.3544 -0.0280
vn 0.8310 0.4549 0.3202
vn 0.9930 0.0003 -0.1185
vn 0.6096 0.1934 -0.7687
vn 0.3113 0.8786 -0.3622
vn -0.4040 0.3568 -0.8423
vn -0.5358 0.6377 -0.5534
vn -0.0749 0.9216 -0.3808
vn -0.5181 0.8398 -0.1621
vn -0.9501 0.3118 0.0142
vn -0.9637 0.1029 0.2463
vn -0.8449 0.5289 0.0802
vn -0.8658 0.3081 0.3942
vn -0.6982 0.5950 0.3982
vn -0.7651 0.0570 0.6414
vn -0.4671 0.8275 -0.3115
vn -0.3539 0.8846 -0.3038
vn -0.4890 0.8684 -0.0823
vn -0.3801 0.9012 0.2082
vn 0.4827 0.8617 -0.1565
vn -0.3802 0.9012 0.2083
vn -0.0102 -0.9958 0.0905
vn 0.4828 0.8616 -0.1564
vn -0.3250 0.9396 0.1069
vn 0.6345 0.7713 -0.0493
vn 0.2366 0.9609 -0.1439
vn -0.0390 0.9922 -0.1187
vn -0.4612 0.8311 -0.3109
vn -0.4486 0.5419 0.7107
vn -0.8736 0.4159 0.2526
vn -0.0424 0.6346 0.7717
vn -0.1637 0.5484 0.8200
vn 0.4684 0.8458 -0.2554
vn 0.7519 0.6591 0.0144
vn 0.4006 0.5830 0.7069
vn 0.2514 0.9584 0.1352
vn 0.6339 0.7371 0.2342
vn 0.4701 0.8441 -0.2581
vn 0.2790 0.9156 -0.2897
vn 0.4740 0.8539 0.2148
vn 0.6945 0.7123 0.1016
vn 0.3306 0.8547 -0.4003
vn 0.2704 0.9160 0.2965
vn 0.1441 0.9760 0.1634
vn -0.1303 0.9168 0.3776
vn -0.0172 0.4774 0.8785
vn -0.1986 0.9399 0.2779
vn 0.1401 0.7551 0.6405
vn 0.7842 0.5880 -0.1982
vn 0.5889 0.4439 0.6754
vn 0.7045 0.5925 0.3906
vn 0.1336 0.8834 0.4492
vn 0.6806 0.7311 -0.0474
vn -0.3124 -0.8775 0.3638
vn 0.8682 0.4461 0.2172
vn 0.2205 -0.9740 0.0521
vn 0.9614 0.2683 -0.0609
vn 0.0005 -0.1607 -0.9870
vn 0.8280 0.5492 0.1127
vn 0.8691 0.4707 0.1522
vn 0.0147 0.6992 0.7147
vn 0.4721 0.8276 -0.3037
vn -0.5414 0.8391 0.0516
vn -0.1226 0.9560 0.2664
vn -0.3641 0.2107 0.9072
vn -0.0632 0.5808 -0.8116
vn -0.1485 -0.9580 0.2453
vn -0.9702 -0.2126 0.1161
vn -0.8957 0.4368 0.0836
vn -0.0069 -0.2541 -0.9671
vn -0.0133 0.3055 -0.9521
vn -0.9181 0.0862 0.3870
vn -0.8051 0.5210 0.2835
vn 0.3238 0.8792 -0.3495
vn 0.2106 0.9776 0.0008
vn 0.2550 0.9248 -0.2825
vn -0.0350 0.3994 0.9161
vn 0.9803 0.1768 0.0885
vn 0.6961 -0.7148 0.0671
vn 0.9123 0.3549 0.2041
vn 0.6199 0.7193 0.3137
vn 0.7458 0.5873 0.3144
vn 0.6394 0.4838 0.5976
vn 0.5693 0.4590 0.6821
vn 0.5950 0.4626 0.6572
vn 0.5928 0.5051 0.6273
vn 0.6466 0.7300 -0.2212
vn 0.5310 0.3942 0.7501
vn 0.5541 0.4325 0.7113
vn 0.4486 0.5157 0.7300
vn 0.0683 -0.0223 0.9974
vn -0.4612 -0.6391 -0.6155
vn -0.5495 -0.7947 -0.2578
vn 0.4368 0.3181 0.8414
vn 0.5361 0.4337 0.7242
vn 0.3487 0.3963 0.8493
vn 0.3107 0.4018 0.8614
vn 0.4809 0.4058 0.7772
vn 0.3096 0.5018 0.8077
vn 0.1913 0.3241 0.9265
vn -0.0689 0.1287 0.9893
vn 0.1827 0.3039 0.9350
vn -0.1813 -0.2884 -0.9402
vn -0.0853 -0.4188 -0.9041
vn -0.0181 0.6840 0.7292
vn 0.3352 0.8001 0.4974
vn 0.6210 0.7479 0.2346
vn 0.7581 0.6324 0.1596
vn 0.8002 -0.0652 0.5962
vn -0.8263 0.0401 -0.5618
vn 0.7122 0.1992 0.6732
vn 0.8328 -0.0369 0.5524
vn -0.8138 0.0524 -0.5788
vn 0.9198 -0.2174 0.3267
vn 0.9589 -0.2724 0.0794
vn 0.6563 -0.7278 -0.1990
vn 0.9538 -0.0977 -0.2840
vn -0.0624 -0.5719 -0.8179
vn 0.3773 -0.2064 -0.9028
vn -0.4049 -0.0779 -0.9110
vn -0.0206 0.1204 -0.9925
vn 0.6803 0.2526 -0.6881
vn -0.7293 -0.1294 0.6718
vn -0.7107 -0.1657 0.6837
vn -0.9633 -0.2651 -0.0418
vn -0.8686 -0.3043 0.3910
vn -0.8998 -0.1624 0.4050
vn -0.9742 0.0280 0.2238
vn -0.9645 0.0501 0.2594
vn -0.8621 -0.0429 0.5049
vn -0.9345 -0.1952 0.2977
vn -0.9214 -0.0069 0.3886
vn -0.8699 -0.0440 0.4913
vn -0.4168 -0.2337 0.8784
vn -0.7611 -0.1049 0.6400
vn -0.7265 -0.1456 0.6715
vn 0.3773 -0.7545 -0.5370
vn 0.8369 0.0821 0.5412
vn 0.0602 0.0345 0.9976
vn -0.6607 -0.0788 0.7465
vn -0.6074 -0.7898 0.0853
vn -0.5682 0.3879 0.7257
vn 0.2081 0.5672 0.7969
vn -0.4420 0.7552 -0.4840
vn -0.5001 -0.8041 -0.3215
vn 0.8079 0.3668 -0.4613
vn 0.1374 -0.3694 -0.9190
vn -0.6469 -0.3858 -0.6578
vn -0.1588 -0.1764 -0.9714
vn 0.6099 -0.2246 -0.7600
vn -0.0161 -0.9215 0.3882
vn -0.4377 0.5223 -0.7318
vn 0.3036 -0.8944 -0.3284
vn 0.5277 0.1738 0.8314
vn 0.0763 0.9315 0.3557
vn 0.0993 0.9306 0.3522
vn -0.3975 -0.8375 0.3749
vn 0.8113 0.5433 -0.2160
vn 0.7562 0.6124 -0.2307
vn 0.7621 0.6009 -0.2411
vn 0.4458 0.1830 -0.8763
vn 0.4657 0.1861 -0.8651
vn -0.9806 0.1962 -0.0021
vn -0.9950 0.0623 0.0785
vn -0.9878 0.1482 0.0487
vn -0.6527 0.7442 0.1420
vn -0.7724 0.6244 -0.1161
vn -0.7740 0.6175 -0.1398
vn -0.5265 0.6422 -0.5571
vn -0.3268 -0.9408 0.0903
vn -0.6470 0.7541 -0.1124
vn -0.3069 -0.8348 0.4571
vn -0.6112 0.7897 -0.0529
vn -0.1392 -0.6697 0.7295
vn -0.7777 0.6233 0.0815
vn -0.3176 -0.8818 -0.3486
vn 0.0206 0.8094 0.5868
vn 0.8187 0.5126 0.2587
vn 0.7418 0.6303 0.2291
vn 0.9187 0.3763 0.1199
vn 0.9241 0.3637 0.1171
vn 0.8896 0.4451 0.1025
vn 0.9474 0.3082 0.0857
vn 0.9151 0.3879 0.1104
vn 0.9607 0.2762 -0.0267
vn 0.9423 0.3324 0.0406
vn 0.9607 0.2632 -0.0883
vn 0.9570 0.2902 -0.0030
vn 0.9633 0.2120 -0.1649
vn 0.9675 -0.1857 0.1716
vn 0.8983 0.4057 -0.1688
vn 0.6382 0.7254 0.2581
vn 0.8579 0.4484 -0.2510
vn 0.8984 0.3954 -0.1912
vn 0.6721 -0.1002 -0.7336
vn 0.5739 -0.0864 -0.8144
vn -0.9630 -0.2639 0.0551
vn -0.9471 -0.3144 0.0646
vn 0.8256 0.4754 -0.3037
vn 0.3810 0.8986 -0.2176
vn 0.5304 -0.0610 -0.8455
vn 0.8881 0.2018 -0.4129
vn 0.6902 -0.0954 -0.7173
vn -0.0849 -0.0447 -0.9954
vn -0.1098 0.0039 -0.9939
vn 0.1282 0.1071 -0.9860
vn 0.0301 -0.0939 -0.9951
vn 0.2625 -0.1307 -0.9561
vn 0.2253 -0.1273 -0.9659
vn 0.2287 -0.1154 -0.9666
vn -0.0565 -0.2209 -0.9737
vn -0.2936 -0.0088 -0.9559
vn -0.3035 0.0033 -0.9528
vn -0.4006 0.3551 -0.8447
vn -0.5301 0.3254 -0.7830
vn 0.4480 -0.3391 -0.8272
vn 0.2199 -0.0298 -0.9751
vn 0.3455 -0.1263 -0.9299
vn -0.5652 0.6937 -0.4465
vn -0.6685 0.7311 -0.1367
vn -0.4658 -0.8489 0.2499
vn 0.1862 -0.9820 0.0315
vn 0.9716 -0.2320 -0.0462
vn 0.9428 -0.3146 -0.1101
vn -0.9589 0.2611 0.1107
vn -0.7249 0.5186 -0.4534
vn -0.9233 0.3738 -0.0886
vn -0.9593 0.2793 -0.0425
vn -0.0158 0.6124 0.7904
vn -0.0087 0.6257 0.7800
vn -0.8170 0.1309 0.5616
vn -0.6718 -0.5673 0.4762
vn -0.6443 -0.6534 0.3975
vn -0.6929 -0.6213 0.3659
vn -0.6047 -0.6576 0.4493
vn -0.4131 -0.7594 0.5025
vn -0.4757 -0.7608 0.4415
vn -0.4480 -0.7748 0.4460
vn -0.4242 -0.7852 0.4511
vn -0.4218 -0.7859 0.4522
vn -0.2196 -0.7831 0.5818
vn 0.0721 -0.4486 0.8908
vn 0.1915 0.5335 0.8238
vn -0.9971 0.0360 -0.0671
vn -0.9986 0.0200 -0.0482
vn 0.9760 0.0417 0.2139
vn 0.9549 0.0504 0.2926
vn 0.9534 0.0273 0.3003
vn 0.9196 0.3601 0.1571
vn 0.9548 0.0256 0.2960
vn 0.9755 -0.2196 0.0098
vn 0.9654 0.2508 -0.0713
vn 0.6783 -0.3340 -0.6545
vn 0.9670 -0.1243 0.2222
vn 0.9855 -0.1216 0.1184
vn 0.9687 -0.2123 0.1284
vn 0.9669 -0.1710 0.1897
vn 0.9625 0.2623 -0.0692
vn 0.9630 0.2500 -0.1009
vn 0.9389 0.2207 -0.2640
vn 0.9624 0.2203 -0.1592
vn 0.9648 0.1927 -0.1790
vn 0.9444 0.3240 -0.0552
vn 0.9434 -0.3101 0.1180
vn 0.7014 -0.6817 0.2080
vn 0.7153 -0.6867 0.1296
vn 0.7333 -0.6784 -0.0462
vn 0.7971 -0.1650 -0.5808
vn -0.3931 -0.8103 0.4346
vn -0.3639 -0.8162 0.4487
vn 0.0060 0.9387 0.3447
vn 0.0279 0.9348 0.3541
vn 0.7354 -0.5867 0.3391
vn 0.3053 -0.5059 -0.8067
vn 0.1619 -0.3319 -0.9293
vn -0.1673 -0.2094 -0.9634
vn -0.1991 -0.2059 -0.9581
vn -0.2352 -0.2091 -0.9492
vn -0.0868 -0.2249 -0.9705
vn -0.0282 -0.1959 -0.9802
vn -0.0112 -0.1873 -0.9822
vn -0.0951 -0.2289 -0.9688
vn -0.5291 0.0848 -0.8443
vn -0.2418 -0.2088 -0.9476
vn -0.2661 -0.2136 -0.9400
vn -0.2780 -0.4588 -0.8439
vn -0.6335 -0.0870 -0.7688
vn -0.7206 -0.2926 -0.6286
vn -0.6482 -0.0699 -0.7582
vn -0.7799 -0.2200 -0.5860
vn -0.6651 0.3096 0.6795
vn -0.6526 0.3170 0.6883
vn -0.6137 0.0744 -0.7861
vn -0.5632 0.2257 -0.7949
vn -0.8833 0.2781 -0.3774
vn -0.9448 0.2102 -0.2512
vn -0.9428 0.2182 -0.2522
vn -0.9339 0.2499 -0.2558
vn -0.8711 0.0291 0.4903
vn -0.9805 -0.1435 0.1343
vn -0.9901 0.1165 -0.0782
vn -0.9894 0.1320 -0.0605
vn -0.9510 0.1844 -0.2480
vn 0.6322 -0.5326 -0.5628
vn -0.8865 -0.1759 0.4280
vn -0.8838 -0.3051 0.3547
vn -0.7213 -0.5858 0.3694
vn -0.7026 -0.6061 0.3728
vn -0.3792 -0.6468 0.6617
vn -0.4765 -0.7750 0.4151
vn -0.5376 -0.7566 0.3722
vn -0.5466 -0.7314 0.4078
vn -0.5086 -0.7730 0.3793
vn -0.4578 -0.8252 0.3309
vn -0.5609 -0.7399 0.3714
vn -0.8013 -0.5669 0.1910
vn 0.9266 -0.0179 0.3756
vn 0.9344 0.0332 0.3548
vn 0.9397 -0.0196 0.3416
vn -0.5000 -0.7852 0.3654
vn -0.1732 -0.8567 0.4858
vn -0.4900 -0.7943 0.3592
vn 0.0770 -0.5674 -0.8199
vn 0.0063 -0.9604 -0.2785
vn -0.2190 -0.8658 0.4499
vn -0.2147 -0.8443 0.4909
vn -0.2221 -0.8626 0.4544
vn 0.2025 -0.7195 0.6643
vn 0.1860 -0.6635 0.7247
vn 0.2012 -0.6730 0.7118
vn 0.1932 -0.6491 0.7358
vn -0.1924 -0.8793 0.4357
vn 0.0799 -0.8959 0.4370
vn 0.1856 -0.8639 0.4683
vn 0.1743 -0.8699 0.4613
vn 0.2652 -0.7110 0.6512
vn 0.2713 -0.7198 0.6390
vn 0.4289 -0.7120 0.5560
vn 0.5382 -0.7291 0.4228
vn 0.5621 -0.7185 0.4097
vn 0.8266 -0.4068 0.3889
vn 0.9123 -0.2098 0.3518
vn 0.9341 -0.3547 0.0404
vn 0.7743 0.5365 -0.3357
vn 0.7666 0.5545 -0.3238
vn 0.7639 0.5450 -0.3456
vn 0.9626 -0.2687 0.0338
vn 0.9373 -0.3359 0.0924
vn 0.9732 0.0230 -0.2289
vn -0.7995 -0.3962 -0.4514
vn -0.9414 -0.0988 0.3224
vn 0.8838 -0.3139 -0.3470
vn -0.6786 0.6281 -0.3808
vn -0.6432 0.7650 -0.0325
vn -0.5816 0.6344 -0.5093
vn 0.9102 -0.0000 -0.4141
vn 0.9102 -0.0309 -0.4129
vn -0.3417 -0.3347 -0.8782
vn 0.1877 -0.7602 -0.6219
vn 0.2064 0.2125 -0.9551
vn 0.2208 0.1956 -0.9555
vn -0.9832 -0.0469 -0.1763
vn 0.4547 -0.6756 -0.5803
vn -0.4319 -0.7167 -0.5475
vn 0.3434 -0.3443 -0.8738
vn -0.4527 -0.6448 -0.6159
vn -0.5200 -0.5358 -0.6652
vn -0.0976 0.1812 -0.9786
vn -0.8115 0.4513 -0.3712
vn -0.7239 -0.4151 -0.5511
vn -0.6429 -0.0886 -0.7608
vn -0.9711 -0.2210 -0.0904
vn -0.9724 -0.2123 0.0964
vn -0.9475 -0.2965 0.1199
vn 0.9400 0.0409 0.3388
vn 0.9533 0.0021 0.3019
vn -0.5750 -0.7894 -0.2149
vn -0.4846 -0.8736 -0.0442
vn -0.5005 -0.7903 0.3534
vn -0.4493 -0.8930 0.0261
vn -0.1790 -0.8886 0.4223
vn -0.4497 -0.8908 -0.0651
vn -0.1957 -0.9746 0.1091
vn -0.1154 -0.9918 0.0546
vn -0.2765 -0.9469 0.1641
vn 0.0572 -0.9862 0.1556
vn -0.7476 0.0400 -0.6629
vn -0.8804 0.1010 -0.4633
vn -0.0742 -0.9969 0.0267
vn 0.2398 -0.8481 0.4725
vn 0.2541 -0.8481 0.4649
vn -0.4763 -0.7773 -0.4109
vn 0.1708 -0.9713 0.1653
vn 0.2051 -0.9312 0.3014
vn 0.3196 -0.8829 0.3439
vn 0.3313 -0.8663 0.3738
vn 0.3310 -0.8820 0.3354
vn 0.3569 -0.8717 0.3358
vn 0.3456 -0.8719 0.3468
vn 0.3655 -0.8657 0.3421
vn 0.3689 -0.8699 0.3274
vn 0.5152 -0.5110 0.6881
vn -0.9163 -0.3233 -0.2363
vn 0.4797 -0.8177 0.3182
vn 0.4589 -0.8751 0.1538
vn 0.4997 -0.7954 0.3431
vn 0.6360 -0.7458 0.1983
vn 0.2756 0.7334 0.6214
vn 0.4971 -0.7989 0.3387
vn 0.5523 -0.7935 0.2555
vn 0.8709 -0.3990 0.2869
vn 0.6061 -0.7502 -0.2642
vn 0.6404 -0.7397 -0.2070
vn 0.6419 -0.7488 -0.1653
vn 0.7105 -0.6738 -0.2029
vn 0.4257 -0.8228 -0.3765
vn 0.4260 -0.6108 0.6674
vn 0.3672 -0.9250 0.0971
vn 0.5951 0.1567 -0.7883
vn 0.4909 -0.0462 -0.8700
vn 0.6111 0.0536 -0.7897
vn -0.0942 -0.9672 -0.2361
vn -0.2011 -0.9385 -0.2807
vn -0.2739 -0.9064 -0.3215
vn -0.3888 -0.8022 -0.4531
vn -0.3847 -0.8013 -0.4582
vn -0.4378 -0.7353 -0.5173
vn -0.3522 -0.8226 -0.4463
vn -0.9596 -0.2800 -0.0286
vn -0.2698 -0.9225 -0.2762
vn -0.4586 -0.7880 -0.4108
vn -0.1166 -0.9767 -0.1801
vn -0.0773 -0.9884 -0.1307
vn -0.0211 -0.9907 -0.1344
vn 0.3817 -0.5840 -0.7164
vn 0.2901 -0.8455 0.4483
vn 0.2973 -0.8369 0.4595
vn 0.2685 -0.9387 0.2163
vn 0.2836 -0.9344 0.2154
vn 0.3503 -0.9311 0.1014
vn 0.3414 -0.6411 0.6873
vn 0.2006 -0.9101 -0.3625
vn -0.0952 -0.9676 -0.2339
vn -0.1338 -0.9636 -0.2313
vt 0.108272 0.631060
vt 0.000000 0.578026
vt 0.216543 0.741086
vt 0.216543 0.357574
vt 0.054136 0.520839
vt 0.132881 0.329895
vt 0.216543 0.500219
vt 0.108272 0.741086
vt 0.108272 0.552090
vt 0.135591 0.741086
vt 0.135591 0.631429
vt 0.216795 0.629999
vt 0.481540 0.654360
vt 0.410327 0.487251
vt 0.497201 0.411008
vt 0.394759 0.623616
vt 0.335668 0.549383
vt 0.311321 0.461316
vt 0.220950 0.741086
vt 0.000000 0.000000
vt 0.104912 0.382209
vt 0.381682 0.007814
vt 0.373151 0.030947
vt 0.585886 0.007814
vt 0.546673 0.068613
vt 0.688882 0.078664
vt 0.874422 0.371053
vt 0.283761 0.321822
vt 0.549401 0.256880
vt 0.403818 0.396244
vt 0.298055 0.690185
vt 0.391326 0.827952
vt 0.354600 0.457895
vt 0.450806 0.598083
vt 0.502168 0.713801
vt 0.759963 0.762328
vt 0.585506 0.424379
vt 0.603804 0.525727
vt 0.693525 0.626706
vt 0.889224 0.584166
vt 0.746439 0.395245
vt 0.682338 0.604154
vt 0.536866 0.891391
vt 0.686383 0.539393
vt 0.549859 0.705483
vt 0.521061 0.811546
vt 0.673138 0.715161
vt 0.697872 0.916409
vt 0.880903 0.830613
vt 0.668729 0.668106
vt 0.828801 0.864534
vt 0.780572 0.687653
vt 0.866769 0.782637
vt 0.833355 0.708436
vt 0.669050 0.646573
vt 0.666176 0.622539
vt 0.691237 0.634584
vt 0.675731 0.638542
vt 0.723771 0.619247
vt 0.724035 0.644926
vt 0.760897 0.675354
vt 0.746604 0.669659
vt 0.806522 0.682799
vt 0.812096 0.657391
vt 0.823991 0.702211
vt 0.742959 0.640110
vt 0.737098 0.372576
vt 0.839672 0.425468
vt 0.506849 0.414783
vt 0.585989 0.330987
vt 0.672184 0.372122
vt 0.493856 0.052711
vt 0.537488 0.127586
vt 0.778727 0.089092
vt 0.938548 0.112692
vt 0.859768 0.134637
vt 0.813070 0.295006
vt 0.154201 0.930752
vt 0.109250 0.930752
vt 0.088468 0.885826
vt 0.195425 0.889346
vt 0.207841 0.888446
vt 0.090654 0.705192
vt 0.007923 0.626575
vt 0.013201 0.615676
vt 0.162468 0.592538
vt 0.213460 0.686032
vt 0.256438 0.689463
vt 0.303916 0.717282
vt 0.304140 0.625446
vt 0.303909 0.749784
vt 0.303916 0.808890
vt 0.303916 0.907312
vt 0.303777 0.880371
vt 0.200274 0.930752
vt 0.129958 0.966465
vt 0.088738 0.993734
vt 0.047911 0.993734
vt 0.165848 0.993655
vt 0.139593 0.993734
vt 0.258528 0.976614
vt 0.192366 0.993679
vt 0.899100 0.034173
vt 0.878109 0.017136
vt 0.917715 0.044868
vt 0.864497 0.049326
vt 0.861786 0.038398
vt 0.838783 0.032330
vt 0.158872 0.068029
vt 0.121497 0.056021
vt 0.154550 0.078694
vt 0.174722 0.101243
vt 0.051226 0.049090
vt 0.023823 0.103673
vt 0.037897 0.235018
vt 0.087856 0.235488
vt 0.270567 0.765886
vt 0.399059 0.879593
vt 0.216315 0.370284
vt 0.577494 0.933175
vt 0.324689 0.118769
vt 0.268455 0.201657
vt 0.538143 0.285902
vt 0.617555 0.398236
vt 0.898853 0.968589
vt 0.947365 0.980569
vt 0.855231 0.713019
vt 0.553190 0.504817
vt 0.666138 0.539420
vt 0.695369 0.515867
vt 0.122465 0.217811
vt 0.294021 0.161014
vt 0.083619 0.138527
vt 0.055638 0.366207
vt 0.806137 0.816572
vt 0.270783 0.766159
vt 0.420643 0.883608
vt 0.086517 0.923554
vt 0.008195 0.905010
vt 0.001066 0.862910
vt 0.101877 0.861603
vt 0.137536 0.861455
vt 0.137684 0.897114
vt 0.885214 0.860858
vt 0.938696 0.901198
vt 0.861460 0.860933
vt 0.861609 0.896591
vt 0.909703 0.988657
vt 0.862916 0.997402
vt 0.857988 0.085992
vt 0.859144 0.055035
vt 0.881723 0.109221
vt 0.989143 0.095522
vt 0.996273 0.137622
vt 0.884222 0.139018
vt 0.859803 0.139078
vt 0.101877 0.139227
vt 0.089278 0.082613
vt 0.137536 0.139078
vt 0.136080 0.002609
vt 0.093308 0.010138
vt 0.137173 0.079440
vt 0.136877 0.055035
vt 0.001185 0.863730
vt 0.028220 0.862482
vt 0.056547 0.925834
vt 0.883789 0.996622
vt 0.862295 0.957461
vt 0.906686 0.928246
vt 0.972722 0.939970
vt 0.991700 0.901720
vt 0.957654 0.860116
vt 0.996158 0.136783
vt 0.956331 0.138243
vt 0.945868 0.073815
vt 0.968818 0.057131
vt 0.899814 0.008701
vt 0.861774 0.037123
vt 0.132144 0.004968
vt 0.136509 0.029763
vt 0.035167 0.105861
vt 0.056144 0.029528
vt 0.025991 0.060646
vt 0.007296 0.098291
vt 0.028220 0.140105
vt 0.449051 0.543327
vt 0.903329 0.204999
vt 0.975151 0.344739
vt 0.205391 0.096135
vt 0.095067 0.206881
vt 0.024701 0.655042
vt 0.000137 0.500677
vt 0.551175 0.482084
vt 0.346041 0.975746
vt 0.206538 0.904901
vt 0.904822 0.793270
vt 0.975630 0.653768
vt 0.653626 0.024220
vt 0.793125 0.095019
vt 0.024361 0.346289
vt 0.138037 0.933223
vt 0.062832 0.897402
vt 0.137673 0.908449
vt 0.861961 0.932701
vt 0.861705 0.908545
vt 0.922914 0.940765
vt 0.942853 0.970483
vt 0.905016 0.990273
vt 0.999372 0.886567
vt 0.957658 0.860084
vt 0.996011 0.136741
vt 0.911356 0.089953
vt 0.968782 0.057140
vt 0.898845 0.008489
vt 0.858968 0.042550
vt 0.113782 0.139154
vt 0.089924 0.139322
vt 0.096206 0.103738
vt 0.136701 0.042550
vt 0.093980 0.009738
vt 0.091987 0.138927
vt 0.053492 0.139737
vt 0.084502 0.079892
vt 0.931993 0.138575
vt 0.907415 0.138834
vt 0.900123 0.076004
vt 0.053492 0.862114
vt 0.089924 0.861699
vt 0.084693 0.944829
vt 0.097561 0.991826
vt 0.138563 0.970771
vt 0.909072 0.860689
vt 0.933228 0.860432
vt 0.944240 0.899694
vt 0.905824 0.989931
vt 0.862487 0.970248
vt 0.999863 0.499214
vt 0.460820 0.543048
vt 0.024307 0.347063
vt 0.495312 0.498449
vt 0.095780 0.794373
vt 0.939928 0.021615
vt 0.918722 0.039023
vt 0.914730 0.006878
vt 0.896430 0.003298
vt 0.878018 0.004360
vt 0.875828 0.215378
vt 0.878638 0.223618
vt 0.808728 0.200883
vt 0.958750 0.193618
vt 0.972319 0.194070
vt 0.941934 0.211259
vt 0.613114 0.044015
vt 0.643329 0.036589
vt 0.710169 0.070550
vt 0.520780 0.220468
vt 0.538200 0.219108
vt 0.568237 0.219507
vt 0.526291 0.214185
vt 0.538218 0.217289
vt 0.515370 0.217289
vt 0.101000 0.003969
vt 0.119570 0.004579
vt 0.070201 0.045464
vt 0.063169 0.212369
vt 0.030560 0.195394
vt 0.044470 0.194638
vt 0.087520 0.212698
vt 0.073018 0.206598
vt 0.501739 0.010928
vt 0.427022 0.031663
vt 0.471260 0.012140
vt 0.437020 0.216120
vt 0.438068 0.216560
vt 0.433664 0.215155
vt 0.473809 0.217289
vt 0.457940 0.217289
vt 0.466903 0.213973
vt 0.913188 0.321826
vt 0.915300 0.322012
vt 0.914390 0.325105
vt 0.933045 0.340824
vt 0.920454 0.323711
vt 0.944586 0.343374
vt 0.961389 0.296828
vt 0.980154 0.305631
vt 0.973341 0.314180
vt 0.067970 0.908649
vt 0.076898 0.914120
vt 0.068659 0.915728
vt 0.121886 0.900019
vt 0.241121 0.871503
vt 0.250306 0.899420
vt 0.150309 0.864798
vt 0.174777 0.781873
vt 0.140452 0.821962
vt 0.303021 0.792366
vt 0.326377 0.743308
vt 0.126942 0.728164
vt 0.226684 0.693436
vt 0.103896 0.697446
vt 0.062225 0.748240
vt 0.066504 0.829062
vt 0.048784 0.853017
vt 0.078432 0.858752
vt 0.074528 0.851700
vt 0.038538 0.827588
vt 0.039859 0.834860
vt 0.037650 0.819199
vt 0.023338 0.829460
vt 0.024660 0.836830
vt 0.026410 0.843460
vt 0.022590 0.820670
vt 0.010660 0.831399
vt 0.009828 0.821780
vt 0.012020 0.838530
vt 0.010568 0.812179
vt 0.013694 0.845032
vt 0.022709 0.811389
vt 0.011168 0.802708
vt 0.035860 0.862002
vt 0.022988 0.801930
vt 0.011370 0.792370
vt 0.031050 0.869189
vt 0.049780 0.860939
vt 0.060940 0.853060
vt 0.040860 0.868619
vt 0.036129 0.876240
vt 0.044989 0.876450
vt 0.037739 0.886150
vt 0.053300 0.868030
vt 0.063299 0.859950
vt 0.065820 0.867380
vt 0.046378 0.885838
vt 0.037349 0.896148
vt 0.056034 0.720851
vt 0.022980 0.792078
vt 0.022690 0.782158
vt 0.055601 0.707468
vt 0.079620 0.718069
vt 0.059738 0.700658
vt 0.094755 0.678955
vt 0.085868 0.686909
vt 0.075038 0.676989
vt 0.064158 0.683990
vt 0.064360 0.675239
vt 0.084468 0.670638
vt 0.083930 0.663268
vt 0.083597 0.639809
vt 0.188284 0.657701
vt 0.380370 0.703129
vt 0.410608 0.761745
vt 0.509827 0.732288
vt 0.424818 0.681242
vt 0.390145 0.686470
vt 0.412348 0.685549
vt 0.399731 0.682553
vt 0.369860 0.683944
vt 0.314233 0.689877
vt 0.213121 0.671334
vt 0.299035 0.685769
vt 0.246399 0.675670
vt 0.250429 0.675740
vt 0.200429 0.616419
vt 0.209220 0.642889
vt 0.118000 0.592283
vt 0.196834 0.602325
vt 0.203592 0.602596
vt 0.209748 0.602900
vt 0.115800 0.586768
vt 0.125070 0.589800
vt 0.084290 0.583516
vt 0.105659 0.583350
vt 0.085996 0.594279
vt 0.080219 0.591610
vt 0.078418 0.596130
vt 0.083489 0.598640
vt 0.076600 0.601000
vt 0.087771 0.607192
vt 0.073458 0.609408
vt 0.067409 0.619530
vt 0.084218 0.630849
vt 0.062940 0.626730
vt 0.068400 0.629390
vt 0.071970 0.639069
vt 0.064158 0.636138
vt 0.057489 0.633870
vt 0.069140 0.645569
vt 0.060270 0.643158
vt 0.052609 0.641480
vt 0.056889 0.650399
vt 0.066890 0.652440
vt 0.075120 0.661539
vt 0.065350 0.659600
vt 0.058129 0.910179
vt 0.244168 0.906808
vt 0.240810 0.906250
vt 0.249708 0.903828
vt 0.266234 0.900905
vt 0.255710 0.902019
vt 0.236919 0.906040
vt 0.379260 0.905119
vt 0.376454 0.907914
vt 0.358945 0.906480
vt 0.205280 0.945658
vt 0.202590 0.954410
vt 0.193936 0.963994
vt 0.259750 0.678300
vt 0.253690 0.675650
vt 0.388299 0.683954
vt 0.209020 0.607168
vt 0.915678 0.955209
vt 0.924734 0.920353
vt 0.931230 0.948230
vt 0.688288 0.850929
vt 0.740768 0.846939
vt 0.707970 0.858439
vt 0.870793 0.939149
vt 0.824778 0.929068
vt 0.820438 0.926060
vt 0.758889 0.844668
vt 0.747290 0.852078
vt 0.868200 0.233850
vt 0.863510 0.243478
vt 0.774306 0.406442
vt 0.853129 0.284949
vt 0.676862 0.180717
vt 0.880431 0.414753
vt 0.892158 0.428820
vt 0.911870 0.459699
vt 0.914448 0.441020
vt 0.802726 0.562398
vt 0.759010 0.590560
vt 0.751195 0.606518
vt 0.584840 0.611327
vt 0.607286 0.650798
vt 0.539630 0.686449
vt 0.413500 0.679880
vt 0.356756 0.586983
vt 0.433693 0.603540
vt 0.374045 0.667475
vt 0.365064 0.456729
vt 0.228302 0.579920
vt 0.144998 0.450865
vt 0.085170 0.435849
vt 0.086879 0.454180
vt 0.094750 0.429100
vt 0.146320 0.333710
vt 0.184704 0.216683
vt 0.294791 0.388382
vt 0.135848 0.243009
vt 0.143170 0.258264
vt 0.123423 0.218531
vt 0.126598 0.209950
vt 0.262564 0.184466
vt 0.421382 0.130458
vt 0.294039 0.067529
vt 0.255580 0.085050
vt 0.360980 0.034480
vt 0.387452 0.369658
vt 0.482880 0.317269
vt 0.426153 0.420970
vt 0.491805 0.297425
vt 0.539374 0.322254
vt 0.520679 0.312607
vt 0.490948 0.237845
vt 0.549465 0.282034
vt 0.503089 0.436212
vt 0.410160 0.405570
vt 0.392030 0.402399
vt 0.423923 0.409320
vt 0.382160 0.400469
vt 0.363640 0.401039
vt 0.372856 0.400649
vt 0.343196 0.408885
vt 0.335308 0.419351
vt 0.358269 0.411049
vt 0.350474 0.410688
vt 0.396377 0.409778
vt 0.404621 0.410450
vt 0.412759 0.410959
vt 0.617302 0.458846
vt 0.683443 0.395151
vt 0.528697 0.099356
vt 0.532296 0.195386
vt 0.585398 0.210620
vt 0.575030 0.212108
vt 0.639839 0.385906
vt 0.676959 0.397133
vt 0.533911 0.418109
vt 0.576630 0.408255
vt 0.620079 0.388429
vt 0.606378 0.401354
vt 0.615530 0.401850
vt 0.580949 0.408114
vt 0.597320 0.403337
vt 0.575480 0.411576
vt 0.577340 0.410225
vt 0.575416 0.413078
vt 0.585769 0.413726
vt 0.592741 0.417126
vt 0.594403 0.413581
vt 0.602923 0.412650
vt 0.611940 0.411989
vt 0.646438 0.414920
vt 0.661808 0.409958
vt 0.657706 0.406235
vt 0.642620 0.401286
vt 0.634554 0.400348
vt 0.625230 0.401100
vt 0.654047 0.414294
vt 0.617669 0.430326
vt 0.647140 0.412952
vt 0.654821 0.412382
vt 0.639524 0.412778
vt 0.970489 0.077710
vt 0.973435 0.060090
vt 0.910297 0.061281
vt 0.975443 0.164414
vt 0.993639 0.108474
vt 0.942578 0.161160
vt 0.918055 0.205676
vt 0.886615 0.180034
vt 0.883936 0.115645
vt 0.842580 0.145318
vt 0.889509 0.194600
vt 0.871420 0.182199
vt 0.901068 0.203020
vt 0.861338 0.016380
vt 0.864189 0.007980
vt 0.491996 0.226399
vt 0.504090 0.220770
vt 0.568418 0.214478
vt 0.570159 0.209389
vt 0.488380 0.217289
vt 0.442612 0.206895
vt 0.930493 0.278129
vt 0.934125 0.293743
vt 0.915614 0.308044
vt 0.926414 0.264113
vt 0.885883 0.256240
vt 0.906614 0.252983
vt 0.915716 0.310930
vt 0.925104 0.302647
vt 0.866906 0.295625
vt 0.862893 0.286535
vt 0.863774 0.273189
vt 0.876598 0.259381
vt 0.885637 0.254584
vt 0.895966 0.252531
vt 0.024615 0.153554
vt 0.049168 0.170373
vt 0.099977 0.194725
vt 0.057000 0.203198
vt 0.087678 0.207210
vt 0.074552 0.091684
vt 0.005710 0.113304
vt 0.103050 0.202910
vt 0.119442 0.038953
vt 0.160469 0.140828
vt 0.154670 0.035700
vt 0.140478 0.021758
vt 0.137130 0.014418
vt 0.929847 0.320980
vt 0.927338 0.323805
vt 0.919726 0.319339
vt 0.929503 0.326797
vt 0.918447 0.316219
vt 0.931829 0.305860
vt 0.951470 0.296965
vt 0.995000 0.322970
vt 0.993411 0.317179
vt 0.989947 0.339161
vt 0.983090 0.347205
vt 0.977831 0.340342
vt 0.988821 0.338203
vt 0.994174 0.330224
vt 0.952505 0.356919
vt 0.941942 0.349811
vt 0.918762 0.325837
vt 0.916395 0.324030
vt 0.088276 0.891029
vt 0.057339 0.894079
vt 0.077898 0.900438
vt 0.068098 0.892880
vt 0.098554 0.951042
vt 0.080056 0.925991
vt 0.076999 0.907298
vt 0.077480 0.920360
vt 0.080957 0.931855
vt 0.070018 0.922360
vt 0.072048 0.928578
vt 0.074478 0.934480
vt 0.064668 0.931200
vt 0.052600 0.926568
vt 0.056710 0.933780
vt 0.049929 0.935769
vt 0.055259 0.943158
vt 0.060988 0.940800
vt 0.067869 0.937650
vt 0.077030 0.940100
vt 0.067269 0.953759
vt 0.060117 0.952084
vt 0.070710 0.943870
vt 0.091792 0.981303
vt 0.077583 0.977920
vt 0.079998 0.982400
vt 0.074368 0.984610
vt 0.082730 0.986379
vt 0.076480 0.988420
vt 0.104919 0.983340
vt 0.089079 0.992708
vt 0.117480 0.984399
vt 0.108488 0.987020
vt 0.137187 0.963595
vt 0.164356 0.958513
vt 0.189419 0.974749
vt 0.195778 0.974609
vt 0.200650 0.965578
vt 0.185828 0.928489
vt 0.200230 0.934560
vt 0.193858 0.923600
vt 0.057470 0.902440
vt 0.046390 0.903819
vt 0.037691 0.912670
vt 0.049339 0.919160
vt 0.046339 0.895308
vt 0.036910 0.904770
vt 0.317475 0.897015
vt 0.360965 0.902174
vt 0.388751 0.836051
vt 0.440461 0.879549
vt 0.425972 0.780611
vt 0.494523 0.837608
vt 0.531031 0.763044
vt 0.584422 0.793397
vt 0.591629 0.733349
vt 0.620194 0.760445
vt 0.629208 0.774460
vt 0.633609 0.820295
vt 0.626820 0.835020
vt 0.507408 0.867194
vt 0.616625 0.848243
vt 0.537295 0.892075
vt 0.554920 0.886919
vt 0.438336 0.905088
vt 0.401679 0.907480
vt 0.388550 0.909349
vt 0.508584 0.897874
vt 0.074900 0.668980
vt 0.064548 0.667128
vt 0.041710 0.705479
vt 0.034183 0.716715
vt 0.030841 0.703150
vt 0.066248 0.715860
vt 0.052239 0.691919
vt 0.053320 0.682690
vt 0.053399 0.673529
vt 0.037918 0.698180
vt 0.043639 0.691748
vt 0.044550 0.681980
vt 0.044500 0.672339
vt 0.053330 0.665269
vt 0.043600 0.663918
vt 0.054480 0.657679
vt 0.213770 0.631690
vt 0.210690 0.622650
vt 0.843490 0.945218
vt 0.819608 0.920300
vt 0.818660 0.924978
vt 0.822761 0.865372
vt 0.813642 0.911236
vt 0.891592 0.919565
vt 0.964178 0.923340
vt 0.961418 0.919640
vt 0.963030 0.918770
vt 0.946693 0.816795
vt 0.982437 0.818646
vt 0.859922 0.763375
vt 0.907170 0.704816
vt 0.973828 0.781449
vt 0.945500 0.707830
vt 0.936070 0.689540
vt 0.882155 0.662159
vt 0.864119 0.669960
vt 0.862280 0.717229
vt 0.843770 0.690069
vt 0.807120 0.782459
vt 0.739234 0.805840
vt 0.692161 0.807120
vt 0.662338 0.825568
vt 0.659650 0.829890
vt 0.711281 0.699447
vt 0.646855 0.777874
vt 0.680394 0.684004
vt 0.690755 0.674495
vt 0.727595 0.666694
vt 0.739989 0.665405
vt 0.783012 0.696614
vt 0.769292 0.788020
vt 0.779860 0.827269
vt 0.779358 0.831210
vt 0.300396 0.337853
vt 0.216543 0.526154
vt 0.220950 0.549179
vt 0.235354 0.482142
vt 0.216543 0.474283
vt 0.118159 0.318950
vt 0.135339 0.524025
vt 0.506430 0.741086
vt 0.416058 0.622897
vt 0.538873 0.521206
vt 0.596802 0.565058
vt 0.596802 0.600237
vt 0.317318 0.638336
vt 0.216543 0.629896
vt 0.109652 0.526978
vt 0.483837 0.741086
vt 0.517051 0.387884
vt 0.220950 0.474285
vt 0.316393 0.356483
vt 0.156160 0.424979
vt 0.216543 0.553345
vt 0.128411 0.329659
vt 0.000000 0.474283
vt 0.216543 0.526155
vt 0.000000 0.741086
vt 0.343330 0.194165
vt 0.418466 0.626826
vt 0.401693 0.260317
vt 0.401693 0.692980
vt 0.137187 0.280193
vt 0.000000 0.448348
vt 0.162407 0.693837
vt 0.108272 0.422413
vt 0.400131 0.603961
vt 0.505760 0.741086
s 1
f 11/1/1 10/2/2 12/3/3
f 20/4/4 21/5/5 22/6/6
f 46/7/7 45/8/8 44/9/9
f 65/10/10 64/11/11 66/12/12
f 81/13/13 79/14/14 80/15/15
f 87/16/16 85/17/17 84/18/18
f 86/19/19 84/18/18 85/17/17
f 85/17/17 87/16/16 86/19/19
s 0
f 48/20/20 47/20/20 3/20/20 58/20/20
s 1
f 119/21/21 120/22/22 127/23/23
f 122/24/24 127/23/23 120/22/22
f 127/23/23 122/24/24 121/25/25
f 123/26/26 121/25/25 122/24/24
f 122/24/24 139/27/27 123/26/26
f 121/25/25 123/26/26 139/27/27
f 121/25/25 125/28/28 127/23/23
f 125/28/28 121/25/25 124/29/29
f 119/21/21 127/23/23 125/28/28
f 126/30/30 125/28/28 124/29/29
f 125/28/28 130/31/31 119/21/21
f 119/21/21 130/31/31 129/32/32
f 128/33/33 130/31/31 125/28/28
f 128/33/33 125/28/28 126/30/30
f 131/34/34 130/31/31 128/33/33
f 130/31/31 133/35/35 129/32/32
f 128/33/33 126/30/30 131/34/34
f 131/34/34 133/35/35 130/31/31
f 133/35/35 132/36/36 129/32/32
f 134/37/37 131/34/34 126/30/30
f 135/38/38 131/34/34 134/37/37
f 134/37/37 126/30/30 124/29/29
f 135/38/38 136/39/39 131/34/34
f 133/35/35 131/34/34 136/39/39
f 133/35/35 136/39/39 132/36/36
f 138/40/40 132/36/36 136/39/39
f 135/38/38 134/37/37 137/41/41
f 137/41/41 136/39/39 135/38/38
f 134/37/37 124/29/29 137/41/41
f 137/41/41 124/29/29 121/25/25
f 121/25/25 139/27/27 137/41/41
f 138/40/40 137/41/41 139/27/27
f 138/40/40 136/39/39 137/41/41
f 138/40/40 139/27/27 132/36/36
f 164/42/42 144/43/43 145/44/44
f 146/45/45 144/43/43 164/42/42
f 146/45/45 147/46/46 144/43/43
f 144/43/43 147/46/46 149/47/47
f 148/48/48 144/43/43 149/47/47
f 144/43/43 148/48/48 141/49/49
f 149/47/47 141/49/49 148/48/48
f 149/47/47 147/46/46 155/50/50
f 141/49/49 149/47/47 150/51/51
f 150/51/51 152/52/52 163/53/53
f 163/53/53 152/52/52 151/54/54
f 150/51/51 149/47/47 152/52/52
f 146/45/45 153/55/55 155/50/50
f 156/56/56 146/45/45 164/42/42
f 164/42/42 143/57/57 156/56/56
f 156/56/56 143/57/57 154/58/58
f 146/45/45 156/56/56 153/55/55
f 153/55/55 156/56/56 154/58/58
f 155/50/50 153/55/55 143/57/57
f 154/58/58 143/57/57 153/55/55
f 140/59/59 155/50/50 143/57/57
f 157/60/60 155/50/50 140/59/59
f 157/60/60 149/47/47 155/50/50
f 157/60/60 159/61/61 149/47/47
f 158/62/62 159/61/61 157/60/60
f 149/47/47 159/61/61 152/52/52
f 162/63/63 152/52/52 161/64/64
f 162/63/63 151/54/54 152/52/52
f 151/54/65 162/63/66 160/65/67
f 165/66/68 152/52/52 159/61/61
f 165/66/68 159/61/61 158/62/62
f 162/63/63 161/64/64 151/54/54
f 165/66/68 161/64/64 152/52/52
f 141/49/49 163/53/53 161/64/64
f 145/44/44 141/49/49 161/64/64
f 145/44/44 161/64/64 164/42/42
f 141/49/49 150/51/51 163/53/53
f 163/53/53 151/54/54 161/64/64
f 155/50/50 147/46/46 146/45/45
f 143/57/57 164/42/42 140/59/59
f 157/60/60 140/59/59 164/42/42
f 164/42/42 161/64/64 157/60/60
f 157/60/60 161/64/64 165/66/68
f 157/60/60 165/66/68 158/62/62
f 142/67/69 166/68/70 168/69/71
f 167/70/72 173/71/73 142/67/69
f 168/69/71 167/70/72 142/67/69
f 168/69/71 169/72/74 167/70/72
f 169/72/74 172/73/75 167/70/72
f 169/72/74 187/74/76 172/73/75
f 169/72/74 170/75/77 187/74/76
f 170/75/77 188/76/78 187/74/76
f 170/75/77 166/68/70 188/76/78
f 171/77/79 188/76/78 166/68/70
f 142/67/69 171/77/79 166/68/70
f 142/67/69 173/71/73 171/77/79
f 187/74/76 171/77/79 173/71/73
f 172/73/75 187/74/76 173/71/73
f 171/77/79 187/74/76 188/76/78
f 167/70/72 172/73/75 173/71/73
f 176/78/80 175/79/81 174/80/82
f 176/78/80 174/80/82 184/81/83
f 184/81/83 181/82/84 176/78/80
f 184/81/83 174/80/82 177/83/85
f 175/84/81 177/83/85 174/80/82
f 177/83/85 175/85/81 179/86/86
f 179/86/86 178/87/87 177/83/85
f 177/83/85 178/87/87 184/81/83
f 178/87/87 180/88/88 184/81/83
f 180/88/88 182/89/89 181/82/84
f 178/87/87 182/90/89 180/88/88
f 178/87/87 179/86/86 182/90/89
f 181/82/84 182/91/89 183/92/90
f 184/81/83 180/88/88 181/82/84
f 175/93/81 181/82/84 183/94/90
f 175/95/81 176/78/80 181/82/84
f 185/96/91 183/97/90 182/98/89
f 175/99/81 183/100/90 185/96/91
f 186/101/92 175/102/81 185/96/91
f 190/103/93 191/104/94 189/105/95
f 193/106/96 190/103/93 189/105/95
f 193/106/96 191/104/94 190/103/93
f 192/107/97 191/104/94 193/106/96
f 194/108/98 192/107/97 193/106/96
f 191/104/94 192/107/97 194/108/98
f 197/109/99 195/110/100 196/111/101
f 198/112/102 196/111/101 195/110/100
f 198/112/102 197/109/99 196/111/101
f 206/113/103 200/114/104 199/115/105
f 199/115/105 201/116/106 206/113/103
f 201/116/106 199/115/105 202/117/107
f 203/118/108 201/116/106 202/117/107
f 204/119/109 206/113/103 201/116/106
f 201/116/106 203/118/108 204/119/109
f 204/119/109 203/118/108 205/120/110
f 208/121/111 206/113/112 207/122/113
f 208/121/111 207/122/113 204/119/114
f 210/123/115 204/119/116 209/124/115
f 205/125/110 211/126/117 204/119/109
f 214/127/118 213/128/119 212/129/120
f 212/129/120 215/130/121 214/127/118
f 219/131/122 212/129/120 213/128/119
f 217/132/123 212/129/120 219/131/122
f 215/130/121 212/129/120 217/132/123
f 217/132/123 216/121/124 215/130/121
f 216/121/124 217/132/123 219/131/122
f 218/133/125 219/131/122 213/128/119
f 220/134/126 219/131/122 218/133/125
f 213/128/119 223/135/127 218/133/125
f 218/133/125 223/135/127 220/134/126
f 220/134/126 223/135/127 221/136/128
f 221/136/128 223/135/127 222/137/129
f 222/137/129 223/135/127 213/128/119
f 214/127/118 222/137/129 213/128/119
f 224/138/130 225/139/131 226/140/132
f 226/141/132 227/142/133 224/138/130
f 227/142/133 225/143/131 224/138/130
f 229/144/134 228/145/135 227/146/133
f 227/146/133 228/145/135 225/147/131
f 228/145/135 229/148/134 225/149/131
f 227/150/133 230/151/136 231/152/137
f 231/152/137 230/153/136 229/154/134
f 231/152/137 229/155/134 227/156/133
f 226/157/132 232/158/138 227/159/133
f 230/160/136 232/158/138 226/161/132
f 227/162/133 232/158/138 230/163/136
f 234/164/139 233/165/139 235/166/139
f 234/167/140 233/168/141 236/169/142
f 234/170/140 236/169/142 237/171/143
f 237/171/143 236/169/142 233/172/141
f 237/173/143 233/174/141 238/175/144
f 237/153/143 238/175/144 239/176/145
f 239/177/145 238/175/144 233/178/141
f 239/179/145 233/180/141 240/181/146
f 239/182/145 240/181/146 234/183/140
f 234/184/140 240/181/146 233/185/141
f 241/186/147 239/187/145 234/188/140
f 239/189/145 241/186/147 237/190/143
f 241/186/147 234/191/140 237/192/143
f 242/193/148 225/194/131 229/195/134
f 225/196/131 242/193/148 226/197/132
f 230/198/136 226/199/132 242/193/148
f 230/190/136 242/193/148 229/200/134
f 244/201/149 245/202/149 243/203/149
f 244/204/150 243/205/151 246/206/152
f 246/206/152 247/207/153 244/208/150
f 247/209/153 246/206/152 243/210/151
f 247/211/153 243/174/151 248/212/154
f 248/212/154 249/213/155 247/153/153
f 249/214/155 248/212/154 243/215/151
f 243/216/151 244/217/150 250/218/156
f 249/160/155 243/219/151 250/218/156
f 250/218/156 244/220/150 249/160/155
f 251/221/157 252/222/157 253/223/158
f 255/224/159 251/225/159 254/226/160
f 252/227/161 251/228/162 256/229/163
f 257/143/164 256/229/163 251/142/162
f 252/230/161 256/229/163 257/231/164
f 251/232/162 255/233/165 258/234/166
f 251/146/162 258/234/166 257/147/164
f 258/234/166 255/235/165 252/149/161
f 252/149/161 257/236/164 258/234/166
f 252/237/161 259/238/167 251/188/168
f 255/195/165 259/238/167 252/194/161
f 259/238/167 255/239/165 251/190/168
f 249/198/155 244/199/150 260/240/169
f 260/240/169 247/190/153 249/189/155
f 247/241/153 260/240/169 244/195/150
f 262/242/170 422/243/171 261/244/172
f 261/245/172 422/243/171 263/246/173
f 265/247/174 264/248/175 373/249/176
f 267/250/177 262/251/170 266/252/178
f 403/253/179 268/254/180 265/255/174
f 270/256/181 269/257/182 432/258/183
f 434/259/184 269/260/182 271/261/185
f 273/262/186 272/263/187 445/264/188
f 275/265/189 273/266/186 274/267/190
f 277/268/191 275/265/189 276/269/192
f 268/270/180 386/271/193 278/272/194
f 279/273/195 270/274/181 438/275/196
f 271/276/185 279/277/195 436/278/197
f 280/279/198 211/280/199 205/281/200
f 205/282/201 450/283/202 281/284/203
f 210/285/204 208/286/205 454/287/206
f 284/288/207 283/289/208 282/290/209
f 459/291/210 496/292/211 285/293/212
f 459/291/210 286/294/213 496/292/211
f 286/294/213 289/295/214 496/292/211
f 286/294/213 287/296/215 289/295/214
f 288/297/216 289/295/214 337/298/217
f 289/295/214 287/296/215 291/299/218
f 336/300/219 289/295/214 291/299/218
f 290/301/220 291/299/218 326/302/221
f 326/302/221 291/299/218 287/296/215
f 287/296/215 292/303/222 326/302/221
f 292/303/222 287/296/215 310/304/223
f 310/304/223 287/296/215 456/305/224
f 293/306/225 310/304/223 456/305/224
f 295/307/226 292/303/222 294/308/227
f 296/309/228 292/303/222 295/307/226
f 297/310/229 295/307/226 294/308/227
f 294/308/227 292/303/222 298/311/230
f 297/310/229 294/308/227 298/311/230
f 292/303/222 310/304/223 299/312/231
f 292/303/222 299/312/231 298/311/230
f 296/309/228 295/307/226 300/313/232
f 300/313/232 295/307/226 297/310/229
f 297/310/229 298/311/230 301/314/233
f 302/315/234 297/310/229 301/314/233
f 300/313/232 297/310/229 302/315/234
f 303/316/235 301/314/233 298/311/230
f 303/316/235 298/311/230 299/312/231
f 304/317/236 300/313/232 302/315/234
f 303/316/235 299/312/231 305/318/237
f 306/319/238 300/313/232 304/317/236
f 306/319/238 296/309/228 300/313/232
f 307/320/239 306/319/238 304/317/236
f 311/321/240 305/318/237 299/312/231
f 299/312/231 310/304/223 311/321/240
f 292/303/222 296/309/228 306/319/238
f 308/322/241 306/319/238 307/320/239
f 308/322/241 292/303/222 306/319/238
f 308/322/241 307/320/239 309/323/242
f 305/318/237 311/321/240 312/324/243
f 310/304/223 313/325/244 311/321/240
f 293/326/225 313/325/244 310/304/223
f 311/321/240 314/327/245 312/324/243
f 311/321/240 313/325/244 314/327/245
f 312/324/243 314/327/245 315/328/246
f 316/329/247 315/328/246 314/327/245
f 315/328/246 316/329/247 317/330/248
f 313/325/244 318/331/249 314/327/245
f 314/327/245 318/331/249 316/329/247
f 313/325/244 319/332/250 318/331/249
f 293/326/225 319/332/250 313/325/244
f 319/332/250 320/333/251 318/331/249
f 318/331/249 320/333/251 316/329/247
f 321/334/252 317/330/248 316/329/247
f 317/330/248 321/334/252 322/335/253
f 326/302/221 292/303/222 325/336/254
f 325/336/254 292/303/222 323/337/255
f 323/337/255 292/303/222 308/322/241
f 309/323/242 323/337/255 308/322/241
f 324/338/256 323/337/255 309/323/242
f 325/336/254 323/337/255 324/338/256
f 326/302/221 325/336/254 290/301/220
f 325/336/254 329/339/257 290/301/220
f 329/339/257 325/336/254 327/340/258
f 291/299/218 290/301/220 336/300/219
f 328/341/259 290/301/220 329/339/257
f 331/342/260 290/301/220 330/343/261
f 332/344/262 331/342/260 330/343/261
f 330/343/261 290/301/220 333/345/263
f 330/343/261 333/345/263 332/346/262
f 331/342/260 332/344/262 334/347/264
f 335/348/265 331/342/260 334/347/264
f 290/301/220 362/349/266 336/300/219
f 336/300/219 362/349/266 346/350/267
f 289/295/214 336/300/219 337/298/217
f 341/351/268 338/352/269 337/298/217
f 338/352/269 288/297/216 337/298/217
f 338/352/269 341/351/268 499/353/270
f 339/354/271 499/353/270 341/351/268
f 341/351/268 340/355/272 339/356/271
f 340/355/272 275/357/189 339/356/271
f 341/351/268 273/358/186 340/355/272
f 273/358/186 341/351/268 342/359/273
f 342/359/273 341/351/268 337/298/217
f 336/300/219 342/359/273 337/298/217
f 336/300/219 344/360/274 342/359/273
f 344/360/274 273/361/186 342/359/273
f 344/360/274 343/362/275 272/363/187
f 346/350/267 344/360/274 336/300/219
f 344/360/274 346/350/267 345/364/276
f 345/364/276 343/365/275 344/360/274
f 362/349/266 345/364/276 346/350/267
f 362/349/266 355/366/277 345/364/276
f 345/364/276 355/366/277 347/367/278
f 345/364/276 347/368/278 268/369/180
f 355/366/277 348/370/279 347/371/278
f 355/366/277 349/372/280 348/373/279
f 349/372/280 351/374/281 350/375/282
f 351/374/281 349/372/280 355/366/277
f 350/375/282 351/374/281 352/376/283
f 353/377/284 352/376/283 351/374/281
f 352/376/283 353/377/284 354/378/285
f 353/377/284 351/374/281 355/366/277
f 353/377/284 355/366/277 354/378/285
f 356/379/286 354/378/285 355/366/277
f 356/379/286 357/380/287 354/378/285
f 362/349/266 356/379/286 355/366/277
f 357/380/287 356/379/286 358/381/288
f 361/382/289 358/381/288 356/379/286
f 359/383/290 358/381/288 361/382/289
f 361/382/289 356/379/286 362/349/266
f 360/384/291 359/383/290 361/382/289
f 360/384/291 361/382/289 362/349/266
f 363/385/292 360/384/291 362/349/266
f 363/385/292 364/386/293 360/384/291
f 359/383/290 360/384/291 364/386/293
f 364/386/293 365/387/294 359/383/290
f 362/349/266 290/301/220 331/342/260
f 362/349/266 366/388/295 363/385/292
f 364/386/293 363/385/292 366/388/295
f 366/388/295 362/349/266 331/342/260
f 365/387/294 364/386/293 367/389/296
f 366/388/295 367/389/296 364/386/293
f 367/389/296 368/390/297 365/387/294
f 368/390/297 367/389/296 369/391/298
f 331/342/260 370/392/299 366/388/295
f 367/389/296 366/388/295 370/392/299
f 370/392/299 369/391/298 367/389/296
f 370/392/299 331/342/260 335/393/265
f 369/391/298 370/392/299 335/394/265
f 284/288/207 282/290/209 371/395/300
f 263/396/173 264/397/175 285/293/212
f 285/293/212 261/398/172 263/396/173
f 262/399/170 261/400/172 285/293/212
f 285/293/212 264/397/175 265/401/174
f 372/402/301 266/403/178 262/404/170
f 265/405/174 268/406/180 486/407/302
f 273/408/186 344/360/274 272/409/187
f 275/410/189 340/355/272 273/358/186
f 268/369/180 278/411/194 345/364/276
f 270/412/181 521/413/303 269/414/182
f 269/415/182 534/416/304 271/417/185
f 520/418/305 270/419/181 279/420/195
f 534/416/304 279/421/195 271/422/185
f 264/423/175 374/424/306 373/249/176
f 375/425/307 373/249/176 374/426/306
f 373/249/176 375/425/307 404/427/308
f 375/425/307 374/428/306 266/429/178
f 376/430/309 375/425/307 266/431/178
f 375/425/307 376/432/309 377/433/310
f 377/434/310 402/435/311 375/425/307
f 377/436/310 378/437/312 402/435/311
f 378/438/312 380/439/313 402/435/311
f 379/440/314 402/435/311 380/439/313
f 378/438/312 339/441/271 380/439/313
f 401/442/315 380/439/313 339/443/271
f 381/444/316 401/442/315 339/443/271
f 275/445/189 381/444/316 339/446/271
f 275/445/189 277/447/191 381/444/316
f 381/444/316 277/448/191 384/449/317
f 381/444/316 384/449/317 382/450/318
f 272/451/187 384/449/317 277/452/191
f 384/449/317 272/453/187 343/454/275
f 384/449/317 383/455/319 382/450/318
f 406/456/320 382/450/318 383/455/319
f 383/455/319 384/449/317 385/457/321
f 385/457/321 384/449/317 343/458/275
f 385/457/321 386/271/193 383/455/319
f 385/457/321 278/459/194 386/271/193
f 386/271/193 406/456/320 383/455/319
f 387/460/322 382/450/318 388/461/323
f 399/462/324 387/460/322 388/461/323
f 389/463/325 388/461/323 382/450/318
f 391/464/326 389/463/327 390/465/328
f 389/463/325 391/464/329 388/461/323
f 431/466/330 392/467/331 389/463/325
f 389/463/325 392/467/331 391/464/329
f 388/461/323 391/464/329 400/468/332
f 400/468/332 391/464/329 392/467/331
f 399/462/324 388/461/323 400/468/332
f 387/460/322 393/469/333 394/470/334
f 399/462/324 393/471/333 387/460/322
f 387/460/322 394/470/334 395/472/335
f 396/473/336 387/460/322 395/474/335
f 387/460/322 396/475/336 382/450/318
f 382/450/318 396/475/336 398/476/337
f 397/477/338 398/476/337 396/478/336
f 398/476/337 397/479/338 399/462/324
f 399/462/324 397/480/338 393/481/333
f 399/462/324 401/442/315 398/476/337
f 400/468/332 401/442/315 399/462/324
f 398/476/337 401/442/315 382/450/318
f 381/444/316 382/450/318 401/442/315
f 380/439/313 401/442/315 379/440/314
f 402/435/311 379/440/314 401/442/315
f 401/442/315 417/482/339 402/435/311
f 375/425/307 402/435/311 417/482/339
f 375/425/307 417/482/339 409/483/340
f 409/483/340 404/427/308 375/425/307
f 373/249/176 404/427/308 403/253/179
f 373/249/176 403/253/179 265/255/174
f 405/484/341 403/253/179 404/427/308
f 386/271/193 403/253/179 405/484/341
f 386/271/193 268/270/180 403/253/179
f 406/456/320 386/271/193 405/484/341
f 404/427/308 435/485/342 405/484/341
f 405/484/341 435/485/342 406/456/320
f 407/486/343 435/485/342 404/427/308
f 392/467/331 407/486/343 404/427/308
f 392/467/331 404/427/308 409/483/340
f 392/467/331 432/258/183 407/486/343
f 407/486/343 432/258/183 408/487/344
f 409/483/340 411/488/345 392/467/331
f 410/489/346 411/488/345 409/483/340
f 392/467/331 412/490/347 400/468/332
f 392/467/331 414/491/348 412/490/347
f 411/488/345 413/492/349 209/493/350
f 209/493/350 413/492/349 210/494/204
f 211/495/199 411/488/345 209/496/350
f 414/491/348 411/488/345 211/495/199
f 414/491/348 392/467/331 411/488/345
f 280/497/198 414/491/348 211/498/199
f 205/499/200 414/491/348 280/497/198
f 205/499/200 412/490/347 414/491/348
f 412/490/347 205/500/200 415/501/351
f 415/501/351 205/500/200 203/502/352
f 415/501/351 203/503/352 416/504/353
f 400/468/332 417/482/339 401/442/315
f 400/468/332 412/490/347 417/482/339
f 420/505/354 410/489/346 409/483/340
f 409/483/340 417/482/339 420/505/354
f 410/489/346 420/505/354 200/506/355
f 200/506/355 208/507/205 410/489/346
f 208/507/205 418/508/356 410/489/346
f 410/489/346 418/508/356 411/488/345
f 208/509/205 411/488/345 418/508/356
f 411/488/345 208/509/205 413/492/349
f 210/510/204 413/492/349 208/509/205
f 200/506/355 420/505/354 419/511/357
f 421/512/358 420/505/354 417/482/339
f 420/505/354 199/513/359 419/511/357
f 200/514/355 419/511/357 199/513/359
f 416/515/353 199/513/359 420/505/354
f 421/512/358 416/515/353 420/505/354
f 416/504/353 421/512/358 415/501/351
f 412/490/347 415/501/351 417/482/339
f 415/501/351 421/512/358 417/482/339
f 423/516/360 422/243/171 262/517/170
f 428/518/361 422/243/171 423/516/360
f 428/518/361 423/516/360 425/519/362
f 262/520/170 425/519/362 423/516/360
f 424/521/363 428/518/361 425/519/362
f 424/521/363 425/519/362 267/250/177
f 425/519/362 262/251/170 267/250/177
f 267/250/177 426/522/364 424/521/363
f 266/252/178 426/522/364 267/250/177
f 424/521/363 429/523/365 428/518/361
f 428/518/361 429/523/365 427/524/366
f 374/525/306 422/243/171 427/524/366
f 374/525/306 427/524/366 429/523/365
f 429/523/365 266/526/178 374/527/306
f 266/528/178 429/523/365 424/521/363
f 424/521/363 426/522/364 266/528/178
f 427/524/366 422/243/171 428/518/361
f 422/243/171 374/529/306 264/530/175
f 263/246/173 422/243/171 264/530/175
f 430/531/367 432/258/183 431/466/330
f 430/531/367 270/532/181 432/258/183
f 431/466/330 432/258/183 392/467/331
f 434/259/184 432/258/183 269/533/182
f 434/259/184 433/534/368 432/258/183
f 433/534/368 408/487/344 432/258/183
f 434/259/184 435/485/342 433/534/368
f 435/485/342 407/486/343 433/534/368
f 433/534/368 407/486/343 408/487/344
f 435/485/342 434/259/184 436/278/197
f 434/259/184 271/535/185 436/278/197
f 436/278/197 437/536/369 435/485/342
f 437/536/369 406/456/320 435/485/342
f 437/536/369 436/278/197 438/275/196
f 438/275/196 436/278/197 279/277/195
f 382/450/318 406/456/320 437/536/369
f 430/531/367 437/536/369 438/275/196
f 430/531/367 438/275/196 270/274/181
f 382/450/318 437/536/369 431/466/330
f 431/466/330 389/463/325 382/450/318
f 431/466/330 437/536/369 430/531/367
f 441/537/370 393/538/333 439/539/371
f 393/540/333 441/537/370 440/541/372
f 394/542/334 393/540/333 440/541/372
f 397/543/338 439/539/371 393/544/333
f 397/545/338 441/537/370 439/539/371
f 441/537/370 397/545/338 396/546/336
f 440/541/372 441/537/370 396/547/336
f 440/541/372 396/548/336 395/549/335
f 394/542/334 440/541/372 395/550/335
f 442/551/373 446/552/374 274/267/190
f 273/266/186 442/551/373 274/267/190
f 446/552/374 447/553/375 274/267/190
f 443/554/376 274/267/190 447/553/375
f 274/267/190 443/554/376 275/265/189
f 447/553/375 276/269/192 443/554/376
f 275/265/189 443/554/376 276/269/192
f 447/553/375 444/555/377 276/269/192
f 276/269/192 444/555/377 277/268/191
f 449/556/378 446/552/374 442/551/373
f 442/551/373 445/264/188 449/556/378
f 442/551/373 273/557/186 445/264/188
f 449/556/378 447/553/375 446/552/374
f 277/558/191 444/555/377 447/553/375
f 448/559/379 277/560/191 447/553/375
f 277/561/191 448/559/379 272/562/187
f 272/563/187 448/559/379 445/264/188
f 448/559/379 449/556/378 445/264/188
f 447/553/375 449/556/378 448/559/379
f 450/283/202 452/564/380 451/565/381
f 450/283/202 211/566/199 452/564/380
f 453/567/382 451/565/381 452/564/380
f 450/283/202 451/565/381 453/567/382
f 211/568/199 209/569/350 454/287/206
f 454/287/206 452/564/380 211/566/199
f 209/570/350 210/285/204 454/287/206
f 200/571/355 454/287/206 208/572/205
f 199/573/359 416/574/353 455/575/383
f 455/575/383 454/287/206 199/576/359
f 200/577/355 199/576/359 454/287/206
f 455/575/383 416/578/353 203/579/352
f 455/575/383 203/579/352 281/284/203
f 205/282/201 281/284/203 203/579/352
f 205/580/201 211/581/199 450/283/202
f 293/306/225 456/305/224 319/332/250
f 319/332/250 456/305/224 320/333/251
f 456/305/224 459/291/210 320/333/251
f 320/333/251 459/291/210 316/329/247
f 321/334/252 316/329/247 459/291/210
f 459/291/210 456/305/224 287/296/215
f 287/296/215 286/294/213 459/291/210
f 459/291/210 458/582/384 321/334/252
f 457/583/385 321/334/252 458/582/384
f 459/291/210 489/584/386 458/582/384
f 457/585/385 458/582/384 489/584/386
f 459/291/210 477/586/387 461/587/388
f 489/584/386 459/291/210 461/587/388
f 489/584/386 461/587/388 283/289/208
f 284/588/207 489/584/386 283/289/208
f 283/289/208 461/587/388 460/589/389
f 282/290/209 283/289/208 460/589/389
f 477/586/387 462/590/390 461/587/388
f 463/591/391 460/589/389 461/587/388
f 282/290/209 460/589/389 463/591/391
f 464/592/392 461/587/388 462/590/390
f 463/591/391 461/587/388 464/592/392
f 464/592/392 462/590/390 465/593/393
f 463/591/391 464/592/392 466/594/394
f 466/594/394 464/592/392 465/593/393
f 466/594/394 467/595/395 463/591/391
f 282/290/209 463/591/391 467/595/395
f 468/596/396 467/595/395 466/594/394
f 467/595/395 468/596/396 469/597/397
f 470/598/398 469/597/397 468/596/396
f 471/599/399 468/596/396 466/594/394
f 468/596/396 471/599/399 470/598/398
f 465/593/393 472/600/400 466/594/394
f 466/594/394 472/600/400 471/599/399
f 462/590/390 473/601/401 465/593/393
f 472/600/400 465/593/393 473/601/401
f 470/598/398 471/599/399 476/602/402
f 470/598/398 476/602/402 474/603/403
f 471/599/399 472/600/400 475/604/404
f 472/600/400 473/601/401 475/604/404
f 475/604/404 476/602/402 471/599/399
f 477/586/387 473/601/401 462/590/390
f 475/604/404 473/601/401 477/586/387
f 477/586/387 476/602/402 475/604/404
f 476/602/402 477/586/387 474/603/403
f 474/603/403 477/586/387 483/605/405
f 474/603/403 483/605/405 478/606/406
f 474/603/403 478/606/406 479/607/407
f 479/607/407 480/608/408 474/603/403
f 479/607/407 478/606/406 483/605/405
f 480/608/408 479/607/407 481/609/409
f 481/609/409 482/610/410 480/608/408
f 481/609/409 479/607/407 483/605/405
f 482/610/410 481/609/409 484/611/411
f 348/612/279 482/610/410 484/611/411
f 481/609/409 483/605/405 484/611/411
f 347/613/278 348/614/279 484/611/411
f 484/611/411 485/615/412 347/613/278
f 485/615/412 484/611/411 483/605/405
f 485/615/412 483/605/405 477/586/387
f 477/586/387 487/616/413 485/615/412
f 347/617/278 485/615/412 487/616/413
f 487/616/413 486/407/302 347/617/278
f 347/618/278 486/407/302 268/619/180
f 487/616/413 477/586/387 459/291/210
f 487/616/413 488/620/414 486/407/302
f 459/291/210 488/620/414 487/616/413
f 459/291/210 285/293/212 488/620/414
f 265/621/174 486/407/302 488/620/414
f 285/293/212 265/622/174 488/620/414
f 371/395/300 490/623/415 284/288/207
f 491/624/416 490/623/415 371/395/300
f 371/395/300 494/625/417 491/624/416
f 282/626/209 494/625/417 371/395/300
f 492/627/418 490/623/415 491/624/416
f 457/583/385 490/623/415 492/627/418
f 491/624/416 494/625/417 493/628/419
f 322/335/253 491/624/416 493/628/419
f 492/627/418 491/624/416 322/335/253
f 492/627/418 322/335/253 321/334/252
f 321/334/252 457/583/385 492/627/418
f 489/584/386 284/288/207 490/623/415
f 489/584/386 490/623/415 457/583/385
f 496/292/211 495/629/420 285/293/212
f 285/293/212 495/629/420 262/399/170
f 497/630/421 495/629/420 496/292/211
f 495/629/420 497/630/421 262/404/170
f 496/292/211 289/295/214 288/297/216
f 288/297/216 504/631/422 496/292/211
f 504/631/422 497/630/421 496/292/211
f 372/402/301 262/404/170 497/630/421
f 505/632/423 497/630/421 504/631/422
f 288/297/216 498/633/424 504/631/422
f 338/352/269 498/633/424 288/297/216
f 504/631/422 498/633/424 503/634/425
f 338/352/269 499/353/270 498/633/424
f 498/633/424 500/635/426 501/636/427
f 498/633/424 501/636/427 503/634/425
f 500/635/426 498/633/424 499/353/270
f 501/636/427 499/353/270 339/637/271
f 501/636/427 500/635/426 499/353/270
f 501/636/427 339/638/271 378/639/312
f 501/636/427 378/640/312 377/641/310
f 502/642/428 501/636/427 377/643/310
f 501/636/427 502/642/428 503/634/425
f 376/644/309 502/642/428 377/645/310
f 503/634/425 505/632/423 504/631/422
f 497/630/421 505/632/423 376/646/309
f 372/402/301 497/630/421 376/647/309
f 376/647/309 266/648/178 372/402/301
f 502/642/428 376/649/309 505/632/423
f 502/642/428 505/632/423 503/634/425
f 334/347/264 506/650/429 335/348/265
f 506/650/429 334/347/264 332/344/262
f 335/393/265 506/650/429 507/651/430
f 507/651/430 506/650/429 332/346/262
f 509/652/431 508/653/432 513/654/433
f 329/339/257 508/653/432 509/652/431
f 329/339/257 327/655/258 508/653/432
f 329/339/257 509/652/431 328/341/259
f 290/301/220 328/341/259 510/656/434
f 510/656/434 511/657/435 290/301/220
f 290/301/220 511/657/435 333/345/263
f 333/345/263 511/657/435 512/658/436
f 512/658/436 332/346/262 333/345/263
f 514/659/437 509/652/431 513/654/433
f 509/652/431 514/659/437 328/341/259
f 515/660/438 328/341/259 514/659/437
f 328/341/259 515/660/438 510/656/434
f 510/656/434 515/660/438 516/661/439
f 516/661/439 511/657/435 510/656/434
f 511/657/435 516/661/439 517/662/440
f 517/662/440 512/658/436 511/657/435
f 518/663/441 512/658/436 517/662/440
f 507/651/430 332/346/262 512/658/436
f 512/658/436 518/663/441 507/651/430
f 507/651/430 518/663/441 335/394/265
f 517/662/440 519/664/442 518/663/441
f 335/665/265 518/663/441 519/664/442
f 508/653/432 327/655/258 325/336/254
f 345/364/276 385/666/321 343/365/275
f 345/364/276 278/667/194 385/666/321
f 520/418/305 521/413/303 270/668/181
f 522/669/443 520/418/305 279/670/195
f 523/671/444 520/418/305 522/672/443
f 523/671/444 524/673/445 520/418/305
f 521/413/303 520/418/305 524/673/445
f 269/674/182 521/413/303 525/675/446
f 526/676/447 525/675/446 521/413/303
f 269/674/182 525/675/446 526/676/447
f 521/413/303 527/677/448 526/678/447
f 527/677/448 521/413/303 524/673/445
f 531/679/449 527/677/448 524/673/445
f 527/677/448 529/680/450 526/681/447
f 531/679/449 529/680/450 527/677/448
f 526/682/447 529/680/450 528/683/451
f 528/684/451 529/680/450 522/685/443
f 529/680/450 530/686/452 522/687/443
f 522/688/443 530/686/452 523/671/444
f 523/671/444 530/686/452 531/679/449
f 523/671/444 531/679/449 524/673/445
f 530/686/452 529/680/450 531/679/449
f 532/689/453 534/416/304 533/690/454
f 534/416/304 526/691/447 533/690/454
f 526/691/447 534/416/304 269/692/182
f 535/693/455 533/690/454 526/694/447
f 526/695/447 528/696/451 535/693/455
f 528/697/451 522/698/443 535/693/455
f 533/690/454 535/693/455 532/689/453
f 522/699/443 536/700/456 535/693/455
f 535/693/455 536/700/456 532/689/453
f 532/689/453 536/700/456 534/416/304
f 522/701/443 534/416/304 536/700/456
f 279/702/195 534/416/304 522/701/443
f 80/20/15 87/16/16 84/18/18
s 0
f 47/20/457 45/20/457 37/20/457 118/20/457
s 1
f 88/20/458 83/703/459 82/20/460 90/20/458
s 0
f 72/20/461 81/20/461 84/18/462
s 1
f 81/13/13 80/15/15 84/18/18
f 79/14/14 87/16/16 80/20/15
s 0
f 118/20/463 36/20/463 42/20/463 59/20/463
f 79/14/464 113/20/465 87/16/466
f 112/20/467 92/20/467 86/19/468
s 1
f 5/20/469 14/704/470 15/20/471 10/2/472
f 10/2/2 11/1/1 13/20/473 7/20/474
s 0
f 88/20/475 1/20/475 83/703/476
f 1/20/477 13/20/477 83/703/478
f 13/20/479 12/20/479 83/703/480
s 1
f 13/20/473 11/1/1 12/3/3
f 10/2/2 16/20/481 12/3/3
s 0
f 61/20/482 57/20/482 105/20/482 56/20/482
f 116/20/483 72/20/483 12/20/483
f 116/20/484 69/20/484 72/20/484
f 69/20/485 81/20/485 72/20/485
s 1
f 69/20/486 79/14/14 81/13/13
s 0
f 69/20/487 71/20/487 79/14/488
f 71/20/489 65/20/489 79/14/490
f 65/20/491 53/20/491 79/14/492
f 53/20/493 103/20/493 79/14/494
s 1
f 103/705/495 102/706/496 79/14/497
s 0
f 102/706/498 113/20/499 79/14/500
f 55/20/501 75/20/501 112/20/501
f 75/20/502 114/20/502 112/20/502
f 17/707/503 60/20/504 50/708/504 51/709/504
f 113/20/505 102/706/506 112/20/505
f 102/706/507 52/20/508 112/20/508
f 52/20/509 55/20/509 112/20/509
s 1
f 91/710/510 90/711/511 92/20/512
s 0
f 115/712/513 73/20/514 92/20/514
f 73/20/515 91/710/516 92/20/515
s 1
f 91/710/510 93/20/517 90/711/511
s 0
f 93/20/518 89/20/518 90/711/519
f 89/20/520 88/20/520 90/20/520
f 89/20/521 78/20/521 88/20/521
s 1
f 115/712/522 114/713/523 75/20/524 73/20/524
s 0
f 77/714/525 13/20/526 1/20/526
f 107/715/527 58/20/528 3/20/528 62/20/528
f 63/20/529 67/20/529 64/11/530 68/20/529
f 15/20/531 16/20/531 10/2/532
f 7/20/533 8/20/533 10/20/533
f 8/20/534 5/20/534 10/20/534
f 30/20/535 116/20/535 12/3/536 29/20/535
f 15/20/537 19/20/537 16/20/537
f 19/20/538 41/20/538 29/20/538
s 1
f 41/3/539 40/1/540 29/20/541
s 0
f 40/1/542 42/20/543 29/20/543
f 42/20/544 33/20/544 29/20/544
f 33/20/545 43/20/545 29/20/545
f 43/20/546 34/20/546 29/20/546
f 34/20/547 32/20/547 29/20/547
f 32/20/548 30/20/548 29/20/548
f 30/20/549 27/20/549 116/20/549
f 17/20/550 14/704/551 8/20/550 4/20/550
s 1
f 70/1/552 71/716/553 116/20/554
s 0
f 71/20/555 69/20/555 116/20/555
s 1
f 70/1/552 65/20/556 71/20/553
f 68/20/557 64/11/11 65/10/10
f 66/12/12 53/20/558 65/20/10
s 0
f 54/20/559 111/20/559 75/20/559 55/20/559
s 1
f 21/5/5 20/4/4 65/20/560
s 0
f 20/4/561 68/20/562 65/10/563
f 66/12/564 103/20/565 53/20/565
s 1
f 52/20/566 102/706/496 103/705/495
s 0
f 66/12/567 52/20/568 103/705/569
f 48/9/570 109/20/571 20/4/572 22/6/573
f 67/20/574 54/20/574 55/20/574
s 1
f 43/20/575 33/20/575 42/717/576 36/20/575
s 0
f 12/20/577 72/20/577 84/18/578 83/703/579
f 111/20/580 96/20/580 75/20/580
f 96/20/581 73/20/581 75/20/581
f 74/20/582 96/20/582 91/20/582
f 96/20/583 94/20/583 91/20/583
s 1
f 94/718/584 93/719/517 91/710/510
f 73/720/585 74/721/586 91/20/587
f 96/20/588 74/20/586 73/720/585
s 0
f 76/20/589 89/20/589 93/20/589
s 1
f 94/20/584 96/20/590 93/719/517
s 0
f 96/20/591 97/20/591 93/719/592
f 97/20/593 2/20/593 93/719/594
f 2/20/595 4/20/595 93/719/596
f 19/20/597 29/20/597 12/3/598 16/20/597
f 78/20/599 76/20/599 93/20/599
f 76/20/600 78/20/600 89/20/600
f 9/20/601 7/20/601 78/20/601
s 1
f 9/722/602 8/723/603 7/20/604
s 0
f 18/20/605 19/20/605 15/20/605
s 1
f 14/704/470 18/20/606 15/20/471
s 0
f 14/704/607 5/20/608 8/20/608
s 1
f 9/20/602 4/20/609 8/723/603
s 0
f 63/20/610 110/20/610 111/20/610 54/20/610
f 18/20/611 41/20/611 19/20/611
f 18/20/612 51/20/612 41/20/612
s 1
f 51/709/613 50/708/614 41/20/539
f 50/708/614 40/1/540 41/3/539
f 38/724/615 39/725/616 40/20/617
s 0
f 39/725/618 42/20/619 40/1/620
f 50/708/621 38/724/622 40/20/621
f 26/726/623 70/20/624 116/20/624 27/8/625
s 1
f 39/725/616 38/724/615 42/20/626
s 0
f 38/724/627 59/20/628 42/20/628
f 107/715/629 62/20/630 108/20/630 106/20/630
f 36/20/631 32/20/631 43/727/632
f 32/20/633 34/20/633 43/20/633
s 1
f 35/20/634 31/727/635 32/3/636
f 31/727/635 30/20/637 32/20/636
s 0
f 36/20/638 37/20/638 32/20/638
f 37/20/639 45/20/639 32/20/639
f 45/20/640 35/20/640 32/3/641
f 31/727/642 28/20/643 30/20/643
f 28/20/644 27/20/644 30/20/644
f 28/20/645 24/20/645 27/20/645
f 24/20/646 22/20/646 27/20/646
s 1
f 22/6/6 21/5/5 27/20/647
f 21/20/5 26/726/648 27/8/647
s 0
f 109/20/649 63/20/649 68/20/649
f 113/20/650 112/20/650 86/19/651 87/16/652
f 20/4/653 109/20/654 68/20/654
s 1
f 67/20/655 66/12/12 64/11/11
s 0
f 60/20/656 6/20/656 4/20/656 100/728/657
f 63/20/658 54/20/658 67/20/658
s 1
f 78/729/659 77/714/660 1/20/661 88/20/661
s 0
f 66/12/662 67/20/663 55/20/663 52/20/663
f 101/20/664 97/20/664 96/20/664
f 106/20/665 108/20/665 96/20/665
f 92/20/666 90/20/666 82/20/666 86/19/667
s 1
f 98/730/668 100/728/669 96/20/670
s 0
f 100/728/671 101/20/672 96/20/672
f 101/20/673 100/728/674 97/20/673
f 100/728/675 4/20/676 97/20/676
f 4/20/677 2/20/677 97/20/677
s 1
f 82/731/460 83/703/459 84/18/18 86/19/19
s 0
f 6/20/678 17/20/678 4/20/678
s 1
f 14/704/470 17/20/679 18/3/606
f 17/707/679 51/20/680 18/20/606
s 0
f 26/726/681 21/20/682 65/20/682 70/20/682
f 60/20/683 61/20/683 50/708/683
f 61/20/684 59/20/684 50/708/684
f 59/20/685 38/724/686 50/708/685
f 118/20/687 37/20/687 36/20/687
f 61/20/688 117/20/688 59/20/688
s 1
f 117/732/689 118/733/690 59/20/691
s 0
f 3/20/692 47/20/692 118/20/692
f 4/20/693 9/20/693 78/20/693 93/719/694
s 1
f 117/732/689 3/20/695 118/20/690
s 0
f 45/20/696 31/727/697 35/20/696
f 95/20/698 61/20/698 60/20/698 100/728/699
s 1
f 47/20/700 44/9/9 45/8/8
f 46/7/7 25/20/701 45/8/8
s 0
f 25/20/702 24/20/702 45/8/703
f 25/20/704 46/7/705 24/20/704
f 46/7/706 48/20/707 24/20/707
s 1
f 48/9/708 49/734/709 24/20/710
f 49/734/709 23/735/711 24/2/710
f 23/735/711 22/20/712 24/20/710
s 0
f 23/735/713 49/734/714 22/20/715
s 1
f 49/734/709 48/9/708 22/20/716
f 107/715/717 106/736/718 109/20/719
f 106/20/718 110/20/720 109/737/719
f 110/20/720 63/20/721 109/20/719
s 0
f 48/9/722 107/715/723 109/20/724
f 115/712/725 92/20/726 112/20/726 114/713/727
f 62/20/728 99/20/728 108/20/728
f 99/20/729 56/20/729 108/20/729
f 56/20/730 105/20/730 108/20/730
f 57/20/731 95/20/731 105/20/731
f 95/20/732 98/20/732 105/20/732
s 1
f 77/714/660 78/729/659 7/20/474 13/20/473
f 95/20/733 100/728/669 98/730/668
s 0
f 105/20/734 98/20/734 96/20/734 108/20/734
f 17/20/735 6/20/735 60/20/735
f 56/20/736 117/20/736 61/20/736
f 95/20/737 57/20/737 61/20/737
f 56/20/738 104/20/738 117/20/738
f 104/20/739 3/20/739 117/732/739
f 104/20/740 62/20/740 3/20/740
f 106/20/741 96/20/741 111/20/741 110/20/741
f 24/20/742 28/20/742 31/727/743 45/20/742
f 48/20/744 46/7/745 47/20/744
s 1
f 46/7/7 44/9/9 47/20/700
s 0
f 58/20/746 107/715/747 48/9/748
f 104/20/749 99/20/749 62/20/749
f 104/20/750 56/20/750 99/20/750
