# Blender 4.3.0
# www.blender.org
mtllib HIPS.mtl
o unityexport.001
v 0.084776 0.035694 0.129022
v 0.142704 0.082088 0.090267
v 0.166991 0.098805 0.022132
v 0.027412 -0.009277 -0.127001
v 0.088338 -0.091731 -0.105040
v 0.118083 -0.003345 -0.115989
v 0.100541 0.120311 -0.086345
v 0.154292 0.071845 -0.037541
v 0.176760 -0.059155 -0.020469
v 0.164313 -0.027626 0.090063
v 0.010440 0.137540 0.139823
v 0.010440 0.137540 0.139823
v 0.010440 -0.109437 0.120174
v 0.010440 -0.109437 0.120174
v 0.005880 0.130206 -0.093980
v 0.005880 0.130206 -0.093980
v 0.010440 -0.053901 -0.117678
v 0.010440 -0.053901 -0.117678
v 0.010440 -0.053901 -0.117678
v 0.010440 -0.109437 0.120174
v -0.111985 0.034106 0.102960
v -0.134800 0.100811 -0.042638
v -0.026638 -0.033990 -0.126165
v -0.034915 -0.099679 -0.098477
v -0.080257 -0.081296 -0.113449
v -0.151137 -0.082905 -0.040736
v -0.074750 0.081660 -0.100700
v -0.054264 0.065267 0.134929
v -0.148858 0.134620 0.040113
v -0.120349 -0.037594 -0.091289
v -0.119476 -0.047667 0.112612
v -0.149289 -0.049696 0.086718
v -0.149628 0.061219 0.037075
v 0.010440 -0.109437 0.120174
v 0.005880 0.130206 -0.093980
v 0.010440 -0.053901 -0.117678
v 0.010440 -0.053901 -0.117678
v 0.010440 -0.053901 -0.117678
v 0.010440 0.137540 0.139823
v 0.010440 -0.109437 0.120174
v 0.010440 -0.109437 0.120174
v 0.069862 0.040906 0.132838
v 0.010239 -0.092165 0.129487
v 0.142926 0.060544 0.088192
v 0.148356 0.098669 -0.044012
v 0.010440 0.116313 -0.094986
v 0.010440 0.116313 -0.094986
v 0.010464 -0.053893 -0.117710
v 0.010464 -0.053893 -0.117710
v 0.010464 -0.053893 -0.117710
v 0.032633 -0.011944 -0.127545
v 0.061596 -0.095016 -0.104537
v 0.104190 -0.014874 -0.122820
v 0.168922 0.060468 0.047363
v 0.096242 0.122694 -0.087329
v 0.173116 0.023048 0.048376
v 0.180074 -0.086090 -0.027763
v 0.141700 -0.083227 0.119520
v 0.010239 -0.092165 0.129487
v 0.010239 -0.092165 0.129487
v 0.010239 -0.092165 0.129487
v -0.053792 0.067305 0.135527
v -0.127810 0.001440 -0.072708
v -0.062544 -0.034099 -0.126686
v -0.034720 -0.084302 -0.109056
v -0.119627 -0.089831 -0.084739
v -0.086029 0.117485 -0.085203
v -0.145692 0.094650 0.053550
v -0.103595 0.025562 0.109237
v -0.172099 -0.079257 0.030433
v -0.176653 -0.082125 0.030803
v -0.176653 -0.082125 0.030803
v 0.010239 -0.092165 0.129487
v 0.010440 0.116313 -0.094986
v 0.010464 -0.053893 -0.117710
v 0.010464 -0.053893 -0.117710
v -0.176653 -0.082125 0.030803
v -0.176653 -0.082125 0.030803
v -0.176653 -0.082125 0.030803
v 0.010239 -0.092165 0.129487
v 0.010239 -0.092165 0.129487
v 0.010239 -0.092165 0.129487
v 0.011636 0.087306 0.142249
v 0.124784 -0.006609 0.116888
v 0.009438 -0.107628 0.123686
v 0.009438 -0.107628 0.123686
v 0.172119 0.057752 0.034817
v 0.139550 0.137896 -0.063843
v -0.007020 0.110003 -0.095074
v 0.064401 0.005124 -0.129562
v -0.007020 0.110003 -0.095074
v 0.008676 -0.052594 -0.118759
v 0.008676 -0.052594 -0.118759
v 0.061546 -0.090443 -0.111085
v 0.134263 -0.085040 -0.097010
v 0.063489 0.124275 -0.092658
v 0.195123 -0.093891 0.051379
v 0.195123 -0.093891 0.051379
v -0.150469 0.067910 0.034850
v -0.109845 0.021525 0.112033
v -0.104582 0.052003 -0.102905
v -0.034406 -0.055716 -0.126178
v -0.093718 -0.106778 -0.104964
v -0.175817 -0.105755 0.037969
v -0.175817 -0.105755 0.037969
v 0.195123 -0.093891 0.051379
v 0.195123 -0.093891 0.051379
v 0.009438 -0.107628 0.123686
v 0.009438 -0.107628 0.123686
v -0.007020 0.110003 -0.095074
v 0.008676 -0.052594 -0.118759
v 0.008676 -0.052594 -0.118759
v -0.175817 -0.105755 0.037969
v -0.175817 -0.105755 0.037969
v 0.011636 0.087306 0.142249
v 0.139409 0.002663 0.109141
v 0.009045 -0.090713 0.129910
v 0.135575 0.065808 -0.081948
v 0.017045 0.123563 -0.101828
v 0.007536 -0.040079 -0.126812
v 0.050324 -0.050224 -0.136613
v 0.007536 -0.040079 -0.126812
v 0.167236 0.128488 0.013878
v 0.194917 -0.108497 0.065131
v 0.009045 -0.090713 0.129910
v -0.154131 0.074645 0.037825
v -0.104999 0.094112 -0.091930
v -0.117105 0.011959 0.109643
v -0.175844 -0.107687 0.017593
v -0.067731 -0.107541 -0.110294
v -0.151033 -0.110907 0.108869
v -0.042183 -0.101965 0.130032
v 0.194917 -0.108497 0.065131
v 0.017045 0.123563 -0.101828
v 0.007536 -0.040079 -0.126812
v 0.007536 -0.040079 -0.126812
v -0.175844 -0.107687 0.017593
v -0.151033 -0.110907 0.108869
v 0.009045 -0.090713 0.129910
v 0.009045 -0.090713 0.129910
vn 0.1025 0.2450 -0.9641
vn 0.4172 0.1597 -0.8947
vn -0.0065 0.0473 -0.9989
vn 0.0380 -0.4390 -0.8977
vn 0.0500 -0.2224 -0.9737
vn 0.3201 0.2701 -0.9081
vn 0.9420 0.2107 -0.2611
vn 0.8862 0.1357 -0.4429
vn 0.7013 0.1608 0.6945
vn 0.8069 0.1073 0.5809
vn 0.3158 0.1697 0.9335
vn 0.8933 0.1615 0.4194
vn 0.9567 0.0765 -0.2809
vn 0.0362 -0.0793 0.9962
vn 0.2714 0.0136 0.9624
vn -0.6380 0.0827 -0.7656
vn -0.0065 0.0474 -0.9989
vn 0.0022 -0.3886 -0.9214
vn 0.1786 -0.5543 -0.8129
vn -0.0190 0.0481 -0.9987
vn -0.0897 -0.0251 -0.9957
vn -0.3850 0.0869 -0.9188
vn -0.8804 0.0688 -0.4693
vn -0.8617 0.0531 -0.5047
vn -0.7155 0.0564 -0.6963
vn -0.8210 0.1768 0.5429
vn -0.7311 -0.0053 0.6822
vn -0.8079 0.0980 0.5811
vn -0.5375 0.2211 0.8137
vn -0.7143 0.2736 0.6442
vn -0.6128 0.3551 0.7059
vn -0.9769 0.0437 -0.2092
vn -0.3959 -0.0172 0.9181
vn 0.0132 -0.0793 0.9968
vn 0.0840 0.1756 -0.9809
vn 0.2867 0.1293 -0.9493
vn 0.0703 0.2548 -0.9644
vn 0.3339 0.1492 -0.9307
vn -0.0664 0.0290 -0.9974
vn 0.1213 -0.4653 -0.8768
vn 0.0469 -0.2514 -0.9667
vn 0.8437 0.1385 -0.5186
vn 0.8951 0.1440 -0.4221
vn 0.2790 0.2117 -0.9367
vn 0.6466 0.1635 0.7451
vn 0.6791 0.0725 0.7304
vn 0.5215 0.1413 0.8415
vn 0.9422 0.1336 0.3073
vn 0.9907 0.0800 0.1098
vn -0.5679 0.1088 -0.8159
vn 0.1325 0.0396 -0.9904
vn 0.0424 -0.5934 -0.8038
vn -0.2300 0.0788 -0.9700
vn -0.8422 -0.0027 -0.5391
vn -0.2295 0.1986 -0.9528
vn -0.7457 -0.0300 -0.6656
vn -0.7085 0.1862 0.6807
vn -0.9323 0.0874 0.3509
vn -0.6952 0.1731 0.6977
vn -0.6728 0.7396 -0.0196
vn -0.8114 0.2430 -0.5315
vn 0.0197 0.1970 -0.9802
vn 0.0112 -0.4609 -0.8874
vn 0.1978 0.1112 -0.9739
vn 0.3207 0.0231 -0.9469
vn -0.2001 0.0098 -0.9797
vn 0.0733 0.2052 -0.9760
vn 0.3825 0.0831 -0.9202
vn 0.7828 0.1844 0.5943
vn 0.7833 0.1333 0.6071
vn 0.8449 0.2448 0.4756
vn 0.9697 0.1238 -0.2106
vn 0.9921 0.0378 -0.1197
vn 0.9539 0.1344 -0.2682
vn -0.2973 0.1095 -0.9485
vn -0.0271 0.2956 -0.9549
vn 0.1416 -0.0954 0.9853
vn 0.0150 -0.1723 0.9849
vn 0.1319 -0.1002 0.9862
vn -0.0110 0.1449 -0.9894
vn 0.0285 0.1799 -0.9833
vn 0.0229 0.0180 -0.9996
vn -0.1354 0.0036 -0.9908
vn 0.1708 -0.5615 -0.8097
vn -0.1670 -0.0748 -0.9831
vn -0.8269 0.0926 0.5547
vn -0.8392 0.1344 0.5269
vn -0.8862 0.1444 0.4403
vn -0.9750 0.1049 -0.1958
vn -0.9375 0.1350 -0.3207
vn -0.9337 0.0823 -0.3486
vn -0.1109 -0.1350 0.9846
vn -0.2661 -0.0581 0.9622
vn -0.1891 -0.0957 0.9773
vn 0.3971 -0.0643 -0.9155
vn -0.0637 0.3043 -0.9504
vn 0.1537 0.2221 -0.9628
vn 0.8076 0.3167 0.4975
vn 0.8303 0.1767 0.5286
vn 0.8768 0.1630 0.4523
vn -0.1845 0.1588 -0.9699
vn -0.9942 0.1035 -0.0291
vn -0.9704 0.1980 0.1381
vn -0.7442 0.0004 0.6679
vn -0.9674 0.0866 -0.2380
vn -0.1173 0.1565 -0.9807
vn -0.1812 0.1023 -0.9781
vn -0.0647 0.0509 -0.9966
vn -0.1064 0.2361 -0.9659
vn -0.6288 0.2337 0.7416
vn -0.0870 0.0663 0.9940
vn -0.0893 0.1190 0.9889
vt 0.444208 0.205018
vt 0.383583 0.123469
vt 0.454298 0.130712
vt 0.408232 0.057116
vt 0.474225 0.093968
vt 0.368447 0.231357
vt 0.323244 0.188708
vt 0.295493 0.074112
vt 0.198422 0.110740
vt 0.205640 0.202828
vt 0.147792 0.177454
vt 0.270284 0.214296
vt 0.088457 0.175948
vt 0.098756 0.215347
vt 0.452794 0.178625
vt 0.470569 0.114805
vt 1.472963 0.105560
vt 1.440258 0.054448
vt 1.441368 0.109368
vt 1.398445 0.063998
vt 1.384189 0.196081
vt 1.327422 0.210738
vt 1.313123 0.051622
vt 1.361425 0.094261
vt 1.185206 0.165003
vt 1.262171 0.244209
vt 1.254095 0.185938
vt 1.144948 0.204434
vt 1.174700 0.096387
vt 1.202027 0.092589
vt 1.088457 0.175948
vt 1.097415 0.210230
vt 1.452794 0.178625
vt 1.464266 0.142651
vt 0.394183 0.116618
vt 0.450501 0.128141
vt 0.435046 0.059496
vt 0.474208 0.093957
vt 0.329254 0.211008
vt 0.305881 0.053222
vt 0.371373 0.233804
vt 0.171413 0.068588
vt 0.203365 0.185401
vt 0.138055 0.182167
vt 0.232560 0.149355
vt 0.251614 0.177971
vt 0.470560 0.114793
vt 1.436673 0.068172
vt 1.411923 0.104964
vt 1.347362 0.126549
vt 1.364834 0.227143
vt 1.360221 0.051499
vt 1.145046 0.206006
vt 1.243172 0.215311
vt 1.175570 0.155024
vt 1.236596 0.052805
vt 1.295028 0.029967
vt 0.429279 0.067996
vt 0.423703 0.136673
vt 0.370774 0.057078
vt 0.474463 0.095449
vt 0.396445 0.238299
vt 0.341415 0.245521
vt 0.219309 0.041340
vt 0.255359 0.179452
vt 0.169106 0.136599
vt 0.229847 0.051895
vt 0.438988 0.221380
vt 0.078090 0.137478
vt 0.101496 0.229769
vt 1.399434 0.193365
vt 1.372576 0.166772
vt 1.436882 0.093708
vt 1.481554 0.046091
vt 1.388389 0.042524
vt 1.257336 0.188376
vt 1.239730 0.040696
vt 1.180456 0.157474
vt 1.255867 0.037119
vt 1.071935 0.113689
vt 0.352980 0.178713
vt 0.440286 0.095483
vt 0.276119 0.241531
vt 0.181021 0.139147
vt 0.475331 0.103826
vt 1.254812 0.194729
vt 1.182607 0.147577
vt 1.360574 0.203746
vt 1.438988 0.221380
vt 1.408396 0.047042
vt 1.187858 0.043565
vt 1.078090 0.137478
vt 1.115653 0.087324
s 1
usemtl Void_Glow_Alt
f 16/1/1 6/2/2 4/3/3
f 5/4/4 18/5/5 4/3/3
f 5/4/4 4/3/3 6/2/2
f 7/6/6 8/7/7 6/2/2
f 6/2/2 8/7/7 9/8/8
f 10/9/9 2/10/10 1/11/11
f 3/12/12 2/10/10 10/9/9
f 3/12/13 9/8/8 8/7/7
f 13/13/14 1/11/15 11/14/14
f 15/15/16 4/3/17 17/16/16
f 7/6/6 6/2/2 16/1/1
f 37/17/18 24/18/19 23/19/20
f 24/18/19 25/20/21 23/19/20
f 25/20/21 27/21/22 23/19/20
f 25/20/21 22/22/23 27/21/22
f 26/23/24 30/24/25 25/20/21
f 21/25/26 29/26/27 33/27/28
f 22/22/23 30/24/25 26/23/24
f 22/22/23 25/20/21 30/24/25
f 29/26/27 21/25/26 28/28/29
f 33/27/28 31/29/30 21/25/26
f 33/27/28 32/30/31 31/29/30
f 22/22/23 26/23/24 33/27/32
f 28/28/33 40/31/34 39/32/34
f 23/19/20 35/33/35 36/34/36
f 23/19/20 27/21/22 35/33/35
f 47/1/37 53/35/38 51/36/39
f 52/37/40 49/38/41 51/36/39
f 53/35/38 52/37/40 51/36/39
f 53/35/38 45/39/42 57/40/43
f 55/41/44 45/39/42 53/35/38
f 58/42/45 44/43/46 42/44/47
f 44/43/46 58/42/45 56/45/48
f 54/46/49 44/43/46 56/45/48
f 57/40/43 54/46/49 56/45/48
f 57/40/43 45/39/42 54/46/49
f 46/15/50 51/36/39 48/47/50
f 55/41/44 53/35/38 47/1/37
f 75/34/51 65/48/52 64/49/53
f 64/49/53 63/50/54 67/51/55
f 66/52/56 64/49/53 65/48/52
f 63/50/54 64/49/53 66/52/56
f 62/53/57 68/54/58 69/55/59
f 68/54/58 70/56/60 69/55/59
f 63/50/54 70/56/60 68/54/58
f 66/52/56 70/56/60 63/50/54
f 66/52/56 72/57/61 70/56/60
f 64/49/53 74/33/62 75/34/51
f 64/49/53 67/51/55 74/33/62
f 94/58/63 90/59/64 95/60/65
f 90/59/64 94/58/63 93/61/66
f 90/59/64 96/62/67 88/63/68
f 88/63/68 95/60/65 90/59/64
f 106/64/69 87/65/70 84/66/71
f 98/67/72 88/63/73 87/65/74
f 89/15/75 90/59/64 93/61/66
f 96/62/67 90/59/64 91/68/76
f 86/69/77 84/66/78 83/70/79
f 110/71/80 111/17/81 101/72/82
f 111/17/81 102/73/83 101/72/82
f 112/74/84 103/75/85 102/73/83
f 103/75/85 101/72/82 102/73/83
f 99/76/86 104/77/87 100/78/88
f 101/72/89 105/79/90 99/76/91
f 100/78/92 108/80/93 115/32/94
f 118/81/95 121/82/96 119/68/97
f 124/64/98 123/83/99 116/84/100
f 119/68/97 121/82/96 120/85/101
f 126/86/102 129/79/103 128/87/104
f 127/88/105 129/79/103 126/86/102
f 134/89/106 136/17/107 127/88/108
f 130/90/109 127/88/108 136/17/107
f 129/79/103 131/91/110 128/87/104
f 139/92/111 128/87/104 132/93/112
f 132/93/112 128/87/104 131/91/110
l 65 76
l 118 123
l 62 81
l 62 73
l 116 117
l 92 94
l 24 38
l 42 60
l 42 43
l 121 122
l 137 138
l 28 34
l 5 19
l 50 52
l 130 135
l 132 140
l 1 12
l 1 14
l 70 71
l 84 85
